<svg width="100%" height="720" viewBox="0 0 630 720" xmlns="http://www.w3.org/2000/svg" role="img" aria-label="ASCII portrait of shre2201">
  <rect width="630" height="720" fill="#06161d"/>
  <style>text{font-family:"Courier New",Courier,monospace;font-size:16px;dominant-baseline:hanging;}</style>
  <text><tspan x="297" y="80" fill="rgb(58,32,14)">.</tspan><tspan x="306" y="80" fill="rgb(60,32,16)">.</tspan></text>
  <text><tspan x="270" y="96" fill="rgb(50,28,16)">.</tspan><tspan x="279" y="96" fill="rgb(78,44,23)">.</tspan><tspan x="288" y="96" fill="rgb(92,50,25)">:</tspan><tspan x="297" y="96" fill="rgb(80,45,22)">.</tspan><tspan x="306" y="96" fill="rgb(62,35,19)">.</tspan><tspan x="315" y="96" fill="rgb(54,31,17)">.</tspan><tspan x="369" y="96" fill="rgb(51,29,17)">.</tspan><tspan x="378" y="96" fill="rgb(45,26,14)">.</tspan></text>
  <text><tspan x="288" y="112" fill="rgb(45,25,14)">.</tspan><tspan x="297" y="112" fill="rgb(62,35,19)">.</tspan><tspan x="306" y="112" fill="rgb(62,35,18)">.</tspan><tspan x="315" y="112" fill="rgb(45,25,14)">.</tspan><tspan x="333" y="112" fill="rgb(77,42,20)">.</tspan><tspan x="342" y="112" fill="rgb(84,46,22)">.</tspan><tspan x="351" y="112" fill="rgb(66,37,19)">.</tspan><tspan x="378" y="112" fill="rgb(49,28,16)">.</tspan><tspan x="423" y="112" fill="rgb(46,26,15)">.</tspan><tspan x="459" y="112" fill="rgb(63,33,15)">.</tspan><tspan x="468" y="112" fill="rgb(103,61,33)">:</tspan></text>
  <text><tspan x="153" y="128" fill="rgb(67,37,17)">.</tspan><tspan x="234" y="128" fill="rgb(52,29,16)">.</tspan><tspan x="243" y="128" fill="rgb(51,28,15)">.</tspan><tspan x="297" y="128" fill="rgb(45,25,14)">.</tspan><tspan x="306" y="128" fill="rgb(48,27,15)">.</tspan><tspan x="333" y="128" fill="rgb(62,34,18)">.</tspan><tspan x="342" y="128" fill="rgb(92,50,23)">:</tspan><tspan x="351" y="128" fill="rgb(98,53,25)">:</tspan><tspan x="360" y="128" fill="rgb(76,42,21)">.</tspan><tspan x="450" y="128" fill="rgb(51,27,13)">.</tspan><tspan x="459" y="128" fill="rgb(94,51,24)">:</tspan><tspan x="468" y="128" fill="rgb(87,47,23)">.</tspan></text>
  <text><tspan x="153" y="144" fill="rgb(50,28,15)">.</tspan><tspan x="162" y="144" fill="rgb(62,35,18)">.</tspan><tspan x="207" y="144" fill="rgb(56,32,17)">.</tspan><tspan x="216" y="144" fill="rgb(62,34,18)">.</tspan><tspan x="243" y="144" fill="rgb(72,39,19)">.</tspan><tspan x="252" y="144" fill="rgb(80,44,21)">.</tspan><tspan x="261" y="144" fill="rgb(66,37,19)">.</tspan><tspan x="270" y="144" fill="rgb(44,26,15)">.</tspan><tspan x="324" y="144" fill="rgb(50,28,15)">.</tspan><tspan x="342" y="144" fill="rgb(46,27,15)">.</tspan><tspan x="351" y="144" fill="rgb(74,41,20)">.</tspan><tspan x="360" y="144" fill="rgb(71,40,21)">.</tspan><tspan x="441" y="144" fill="rgb(79,43,21)">.</tspan><tspan x="450" y="144" fill="rgb(94,51,24)">:</tspan><tspan x="459" y="144" fill="rgb(62,34,18)">.</tspan></text>
  <text><tspan x="396" y="160" fill="rgb(48,28,16)">.</tspan><tspan x="405" y="160" fill="rgb(54,30,17)">.</tspan><tspan x="414" y="160" fill="rgb(61,34,17)">.</tspan><tspan x="423" y="160" fill="rgb(89,47,22)">:</tspan><tspan x="432" y="160" fill="rgb(95,52,25)">:</tspan><tspan x="441" y="160" fill="rgb(66,37,19)">.</tspan></text>
  <text><tspan x="216" y="176" fill="rgb(57,32,16)">.</tspan><tspan x="288" y="176" fill="rgb(53,29,15)">.</tspan><tspan x="297" y="176" fill="rgb(61,33,17)">.</tspan><tspan x="414" y="176" fill="rgb(50,28,15)">.</tspan><tspan x="423" y="176" fill="rgb(62,34,18)">.</tspan><tspan x="477" y="176" fill="rgb(45,26,14)">.</tspan><tspan x="486" y="176" fill="rgb(53,30,15)">.</tspan></text>
  <text><tspan x="144" y="192" fill="rgb(47,27,15)">.</tspan><tspan x="153" y="192" fill="rgb(54,29,15)">.</tspan><tspan x="162" y="192" fill="rgb(55,31,16)">.</tspan><tspan x="171" y="192" fill="rgb(51,28,15)">.</tspan><tspan x="216" y="192" fill="rgb(50,28,15)">.</tspan><tspan x="225" y="192" fill="rgb(48,27,15)">.</tspan><tspan x="234" y="192" fill="rgb(75,41,20)">.</tspan><tspan x="243" y="192" fill="rgb(87,47,23)">.</tspan><tspan x="252" y="192" fill="rgb(59,33,18)">.</tspan><tspan x="468" y="192" fill="rgb(46,26,14)">.</tspan><tspan x="477" y="192" fill="rgb(54,30,15)">.</tspan><tspan x="486" y="192" fill="rgb(45,25,13)">.</tspan></text>
  <text><tspan x="234" y="208" fill="rgb(53,30,16)">.</tspan><tspan x="243" y="208" fill="rgb(57,32,17)">.</tspan><tspan x="279" y="208" fill="rgb(44,25,14)">.</tspan><tspan x="450" y="208" fill="rgb(51,28,15)">.</tspan></text>
  <text><tspan x="450" y="224" fill="rgb(52,29,16)">.</tspan><tspan x="459" y="224" fill="rgb(59,32,17)">.</tspan><tspan x="468" y="224" fill="rgb(53,29,15)">.</tspan><tspan x="477" y="224" fill="rgb(53,29,14)">.</tspan><tspan x="486" y="224" fill="rgb(46,26,14)">.</tspan></text>
  <text><tspan x="126" y="240" fill="rgb(47,26,15)">.</tspan><tspan x="180" y="240" fill="rgb(58,32,16)">.</tspan><tspan x="189" y="240" fill="rgb(54,30,16)">.</tspan><tspan x="468" y="240" fill="rgb(50,28,15)">.</tspan><tspan x="477" y="240" fill="rgb(64,35,17)">.</tspan><tspan x="486" y="240" fill="rgb(49,27,15)">.</tspan></text>
  <text><tspan x="171" y="256" fill="rgb(45,25,12)">.</tspan><tspan x="180" y="256" fill="rgb(71,39,20)">.</tspan><tspan x="243" y="256" fill="rgb(46,23,11)">.</tspan><tspan x="252" y="256" fill="rgb(96,48,18)">:</tspan><tspan x="261" y="256" fill="rgb(148,78,29)">-</tspan><tspan x="270" y="256" fill="rgb(175,89,32)">-</tspan><tspan x="297" y="256" fill="rgb(50,27,15)">.</tspan><tspan x="306" y="256" fill="rgb(46,26,15)">.</tspan><tspan x="333" y="256" fill="rgb(102,49,16)">:</tspan><tspan x="342" y="256" fill="rgb(135,73,28)">-</tspan><tspan x="351" y="256" fill="rgb(205,117,48)">=</tspan><tspan x="360" y="256" fill="rgb(218,130,57)">+</tspan><tspan x="369" y="256" fill="rgb(205,119,51)">=</tspan><tspan x="378" y="256" fill="rgb(181,104,44)">=</tspan><tspan x="387" y="256" fill="rgb(145,80,33)">-</tspan><tspan x="396" y="256" fill="rgb(102,48,18)">:</tspan><tspan x="432" y="256" fill="rgb(65,35,18)">.</tspan><tspan x="441" y="256" fill="rgb(84,45,22)">.</tspan><tspan x="450" y="256" fill="rgb(52,28,15)">.</tspan></text>
  <text><tspan x="225" y="272" fill="rgb(93,40,13)">.</tspan><tspan x="234" y="272" fill="rgb(149,77,28)">-</tspan><tspan x="243" y="272" fill="rgb(193,109,44)">=</tspan><tspan x="252" y="272" fill="rgb(232,140,60)">+</tspan><tspan x="261" y="272" fill="rgb(248,158,71)">*</tspan><tspan x="270" y="272" fill="rgb(211,123,50)">=</tspan><tspan x="288" y="272" fill="rgb(44,26,16)">.</tspan><tspan x="315" y="272" fill="rgb(81,41,16)">.</tspan><tspan x="324" y="272" fill="rgb(187,103,40)">=</tspan><tspan x="333" y="272" fill="rgb(232,139,59)">+</tspan><tspan x="342" y="272" fill="rgb(249,162,75)">*</tspan><tspan x="351" y="272" fill="rgb(251,172,85)">*</tspan><tspan x="360" y="272" fill="rgb(250,172,85)">*</tspan><tspan x="369" y="272" fill="rgb(249,168,82)">*</tspan><tspan x="378" y="272" fill="rgb(250,167,80)">*</tspan><tspan x="387" y="272" fill="rgb(249,162,75)">*</tspan><tspan x="396" y="272" fill="rgb(235,144,64)">+</tspan><tspan x="405" y="272" fill="rgb(186,100,39)">=</tspan><tspan x="414" y="272" fill="rgb(76,33,11)">.</tspan><tspan x="441" y="272" fill="rgb(55,31,16)">.</tspan><tspan x="450" y="272" fill="rgb(72,39,21)">.</tspan><tspan x="477" y="272" fill="rgb(46,26,15)">.</tspan><tspan x="486" y="272" fill="rgb(44,25,14)">.</tspan></text>
  <text><tspan x="144" y="288" fill="rgb(49,28,15)">.</tspan><tspan x="216" y="288" fill="rgb(94,44,16)">.</tspan><tspan x="225" y="288" fill="rgb(199,109,43)">=</tspan><tspan x="234" y="288" fill="rgb(243,154,68)">*</tspan><tspan x="243" y="288" fill="rgb(248,165,78)">*</tspan><tspan x="252" y="288" fill="rgb(247,170,84)">*</tspan><tspan x="261" y="288" fill="rgb(248,172,85)">*</tspan><tspan x="270" y="288" fill="rgb(229,144,65)">+</tspan><tspan x="279" y="288" fill="rgb(97,52,19)">:</tspan><tspan x="306" y="288" fill="rgb(77,38,14)">.</tspan><tspan x="315" y="288" fill="rgb(223,126,51)">+</tspan><tspan x="324" y="288" fill="rgb(246,162,76)">*</tspan><tspan x="333" y="288" fill="rgb(248,171,85)">*</tspan><tspan x="342" y="288" fill="rgb(247,170,84)">*</tspan><tspan x="351" y="288" fill="rgb(247,170,85)">*</tspan><tspan x="360" y="288" fill="rgb(246,169,85)">*</tspan><tspan x="369" y="288" fill="rgb(244,169,86)">*</tspan><tspan x="378" y="288" fill="rgb(244,168,85)">*</tspan><tspan x="387" y="288" fill="rgb(243,166,83)">*</tspan><tspan x="396" y="288" fill="rgb(240,162,77)">*</tspan><tspan x="405" y="288" fill="rgb(246,159,72)">*</tspan><tspan x="414" y="288" fill="rgb(174,93,35)">-</tspan><tspan x="459" y="288" fill="rgb(44,25,15)">.</tspan></text>
  <text><tspan x="216" y="304" fill="rgb(182,97,36)">=</tspan><tspan x="225" y="304" fill="rgb(243,157,71)">*</tspan><tspan x="234" y="304" fill="rgb(248,169,83)">*</tspan><tspan x="243" y="304" fill="rgb(255,175,87)">*</tspan><tspan x="252" y="304" fill="rgb(254,175,87)">*</tspan><tspan x="261" y="304" fill="rgb(254,175,87)">*</tspan><tspan x="270" y="304" fill="rgb(255,173,84)">*</tspan><tspan x="279" y="304" fill="rgb(234,146,66)">+</tspan><tspan x="288" y="304" fill="rgb(100,54,21)">:</tspan><tspan x="315" y="304" fill="rgb(117,75,35)">:</tspan><tspan x="324" y="304" fill="rgb(244,169,83)">*</tspan><tspan x="333" y="304" fill="rgb(249,171,85)">*</tspan><tspan x="342" y="304" fill="rgb(249,171,85)">*</tspan><tspan x="351" y="304" fill="rgb(252,173,87)">*</tspan><tspan x="360" y="304" fill="rgb(255,180,90)">*</tspan><tspan x="369" y="304" fill="rgb(255,184,92)">*</tspan><tspan x="378" y="304" fill="rgb(255,182,90)">*</tspan><tspan x="387" y="304" fill="rgb(255,181,88)">*</tspan><tspan x="396" y="304" fill="rgb(255,180,87)">*</tspan><tspan x="405" y="304" fill="rgb(255,179,86)">*</tspan><tspan x="414" y="304" fill="rgb(249,160,72)">*</tspan><tspan x="423" y="304" fill="rgb(212,115,46)">=</tspan><tspan x="432" y="304" fill="rgb(84,39,14)">.</tspan></text>
  <text><tspan x="171" y="320" fill="rgb(45,26,15)">.</tspan><tspan x="207" y="320" fill="rgb(153,81,30)">-</tspan><tspan x="216" y="320" fill="rgb(238,150,67)">+</tspan><tspan x="225" y="320" fill="rgb(255,185,90)">*</tspan><tspan x="234" y="320" fill="rgb(240,164,81)">*</tspan><tspan x="243" y="320" fill="rgb(223,154,76)">+</tspan><tspan x="252" y="320" fill="rgb(224,155,77)">+</tspan><tspan x="261" y="320" fill="rgb(225,155,77)">+</tspan><tspan x="270" y="320" fill="rgb(224,155,76)">+</tspan><tspan x="279" y="320" fill="rgb(230,157,77)">+</tspan><tspan x="288" y="320" fill="rgb(251,158,71)">*</tspan><tspan x="297" y="320" fill="rgb(174,103,43)">=</tspan><tspan x="306" y="320" fill="rgb(67,37,16)">.</tspan><tspan x="324" y="320" fill="rgb(146,99,48)">-</tspan><tspan x="333" y="320" fill="rgb(254,174,85)">*</tspan><tspan x="342" y="320" fill="rgb(247,170,85)">*</tspan><tspan x="351" y="320" fill="rgb(240,167,83)">*</tspan><tspan x="360" y="320" fill="rgb(160,108,53)">=</tspan><tspan x="369" y="320" fill="rgb(95,65,33)">:</tspan><tspan x="378" y="320" fill="rgb(97,68,35)">:</tspan><tspan x="387" y="320" fill="rgb(106,71,36)">:</tspan><tspan x="396" y="320" fill="rgb(102,68,34)">:</tspan><tspan x="405" y="320" fill="rgb(89,60,30)">:</tspan><tspan x="414" y="320" fill="rgb(104,69,33)">:</tspan><tspan x="423" y="320" fill="rgb(204,125,54)">=</tspan><tspan x="432" y="320" fill="rgb(157,82,31)">-</tspan></text>
  <text><tspan x="198" y="336" fill="rgb(108,57,22)">:</tspan><tspan x="207" y="336" fill="rgb(240,148,64)">+</tspan><tspan x="216" y="336" fill="rgb(208,140,67)">+</tspan><tspan x="225" y="336" fill="rgb(126,83,41)">-</tspan><tspan x="234" y="336" fill="rgb(64,38,18)">.</tspan><tspan x="252" y="336" fill="rgb(53,31,17)">.</tspan><tspan x="261" y="336" fill="rgb(51,30,16)">.</tspan><tspan x="270" y="336" fill="rgb(44,27,15)">.</tspan><tspan x="288" y="336" fill="rgb(129,77,35)">-</tspan><tspan x="297" y="336" fill="rgb(237,156,75)">*</tspan><tspan x="306" y="336" fill="rgb(243,159,75)">*</tspan><tspan x="315" y="336" fill="rgb(237,157,75)">*</tspan><tspan x="324" y="336" fill="rgb(238,162,80)">*</tspan><tspan x="333" y="336" fill="rgb(247,169,84)">*</tspan><tspan x="342" y="336" fill="rgb(254,179,89)">*</tspan><tspan x="351" y="336" fill="rgb(152,98,47)">-</tspan><tspan x="369" y="336" fill="rgb(75,39,17)">.</tspan><tspan x="378" y="336" fill="rgb(108,60,26)">:</tspan><tspan x="387" y="336" fill="rgb(120,71,33)">:</tspan><tspan x="396" y="336" fill="rgb(127,80,38)">-</tspan><tspan x="405" y="336" fill="rgb(125,81,39)">-</tspan><tspan x="414" y="336" fill="rgb(112,74,35)">:</tspan><tspan x="423" y="336" fill="rgb(101,56,23)">:</tspan><tspan x="432" y="336" fill="rgb(169,88,33)">-</tspan><tspan x="441" y="336" fill="rgb(115,56,20)">:</tspan></text>
  <text><tspan x="198" y="352" fill="rgb(169,101,42)">=</tspan><tspan x="207" y="352" fill="rgb(199,115,49)">=</tspan><tspan x="216" y="352" fill="rgb(108,60,25)">:</tspan><tspan x="225" y="352" fill="rgb(128,74,32)">-</tspan><tspan x="234" y="352" fill="rgb(139,78,30)">-</tspan><tspan x="243" y="352" fill="rgb(150,85,33)">-</tspan><tspan x="252" y="352" fill="rgb(161,92,39)">-</tspan><tspan x="261" y="352" fill="rgb(159,90,37)">-</tspan><tspan x="270" y="352" fill="rgb(145,76,25)">-</tspan><tspan x="279" y="352" fill="rgb(165,87,30)">-</tspan><tspan x="288" y="352" fill="rgb(176,94,36)">-</tspan><tspan x="297" y="352" fill="rgb(221,141,65)">+</tspan><tspan x="306" y="352" fill="rgb(254,176,88)">*</tspan><tspan x="315" y="352" fill="rgb(251,172,86)">*</tspan><tspan x="324" y="352" fill="rgb(252,173,87)">*</tspan><tspan x="333" y="352" fill="rgb(248,171,85)">*</tspan><tspan x="342" y="352" fill="rgb(252,175,87)">*</tspan><tspan x="351" y="352" fill="rgb(207,123,54)">=</tspan><tspan x="360" y="352" fill="rgb(197,102,38)">=</tspan><tspan x="369" y="352" fill="rgb(162,82,27)">-</tspan><tspan x="378" y="352" fill="rgb(113,60,18)">:</tspan><tspan x="387" y="352" fill="rgb(129,77,33)">-</tspan><tspan x="396" y="352" fill="rgb(138,87,39)">-</tspan><tspan x="405" y="352" fill="rgb(139,91,41)">-</tspan><tspan x="414" y="352" fill="rgb(196,120,52)">=</tspan><tspan x="423" y="352" fill="rgb(238,150,68)">+</tspan><tspan x="432" y="352" fill="rgb(222,138,61)">+</tspan><tspan x="441" y="352" fill="rgb(197,109,44)">=</tspan></text>
  <text><tspan x="189" y="368" fill="rgb(77,34,12)">.</tspan><tspan x="198" y="368" fill="rgb(216,124,51)">+</tspan><tspan x="207" y="368" fill="rgb(220,135,59)">+</tspan><tspan x="216" y="368" fill="rgb(231,141,62)">+</tspan><tspan x="225" y="368" fill="rgb(135,77,31)">-</tspan><tspan x="234" y="368" fill="rgb(56,33,15)">.</tspan><tspan x="243" y="368" fill="rgb(41,30,20)">.</tspan><tspan x="270" y="368" fill="rgb(71,62,54)">:</tspan><tspan x="279" y="368" fill="rgb(88,57,37)">:</tspan><tspan x="288" y="368" fill="rgb(159,87,33)">-</tspan><tspan x="297" y="368" fill="rgb(245,161,76)">*</tspan><tspan x="306" y="368" fill="rgb(248,171,84)">*</tspan><tspan x="315" y="368" fill="rgb(248,170,84)">*</tspan><tspan x="324" y="368" fill="rgb(249,171,85)">*</tspan><tspan x="333" y="368" fill="rgb(249,171,85)">*</tspan><tspan x="342" y="368" fill="rgb(251,174,87)">*</tspan><tspan x="351" y="368" fill="rgb(231,145,66)">+</tspan><tspan x="360" y="368" fill="rgb(118,63,22)">:</tspan><tspan x="369" y="368" fill="rgb(59,50,42)">.</tspan><tspan x="378" y="368" fill="rgb(42,45,48)">.</tspan><tspan x="405" y="368" fill="rgb(51,46,44)">.</tspan><tspan x="423" y="368" fill="rgb(78,41,14)">.</tspan><tspan x="432" y="368" fill="rgb(223,141,63)">+</tspan><tspan x="441" y="368" fill="rgb(232,151,69)">+</tspan><tspan x="468" y="368" fill="rgb(75,49,22)">.</tspan><tspan x="477" y="368" fill="rgb(162,112,53)">=</tspan><tspan x="486" y="368" fill="rgb(56,30,12)">.</tspan></text>
  <text><tspan x="198" y="384" fill="rgb(189,116,50)">=</tspan><tspan x="207" y="384" fill="rgb(246,160,73)">*</tspan><tspan x="216" y="384" fill="rgb(69,38,14)">.</tspan><tspan x="234" y="384" fill="rgb(143,130,114)">=</tspan><tspan x="243" y="384" fill="rgb(99,91,84)">-</tspan><tspan x="252" y="384" fill="rgb(104,104,106)">-</tspan><tspan x="270" y="384" fill="rgb(34,27,26)">.</tspan><tspan x="279" y="384" fill="rgb(41,44,46)">.</tspan><tspan x="288" y="384" fill="rgb(166,126,83)">=</tspan><tspan x="297" y="384" fill="rgb(255,173,82)">*</tspan><tspan x="306" y="384" fill="rgb(247,170,84)">*</tspan><tspan x="315" y="384" fill="rgb(249,172,86)">*</tspan><tspan x="324" y="384" fill="rgb(249,172,86)">*</tspan><tspan x="333" y="384" fill="rgb(249,171,85)">*</tspan><tspan x="342" y="384" fill="rgb(249,172,87)">*</tspan><tspan x="351" y="384" fill="rgb(249,167,79)">*</tspan><tspan x="360" y="384" fill="rgb(166,134,99)">=</tspan><tspan x="369" y="384" fill="rgb(90,86,84)">-</tspan><tspan x="378" y="384" fill="rgb(101,96,95)">-</tspan><tspan x="405" y="384" fill="rgb(90,77,67)">:</tspan><tspan x="414" y="384" fill="rgb(193,179,162)">*</tspan><tspan x="432" y="384" fill="rgb(115,72,30)">:</tspan><tspan x="441" y="384" fill="rgb(248,162,76)">*</tspan><tspan x="459" y="384" fill="rgb(51,27,10)">.</tspan><tspan x="468" y="384" fill="rgb(189,101,40)">=</tspan><tspan x="477" y="384" fill="rgb(193,112,49)">=</tspan><tspan x="486" y="384" fill="rgb(235,146,66)">+</tspan><tspan x="495" y="384" fill="rgb(68,34,13)">.</tspan></text>
  <text><tspan x="153" y="400" fill="rgb(153,99,47)">-</tspan><tspan x="162" y="400" fill="rgb(166,110,51)">=</tspan><tspan x="171" y="400" fill="rgb(63,37,15)">.</tspan><tspan x="198" y="400" fill="rgb(167,106,48)">=</tspan><tspan x="207" y="400" fill="rgb(224,139,59)">+</tspan><tspan x="225" y="400" fill="rgb(171,160,148)">+</tspan><tspan x="234" y="400" fill="rgb(255,252,243)">@</tspan><tspan x="243" y="400" fill="rgb(81,64,54)">:</tspan><tspan x="252" y="400" fill="rgb(51,34,29)">.</tspan><tspan x="279" y="400" fill="rgb(59,43,36)">.</tspan><tspan x="288" y="400" fill="rgb(241,204,162)">%</tspan><tspan x="297" y="400" fill="rgb(250,166,74)">*</tspan><tspan x="306" y="400" fill="rgb(249,172,87)">*</tspan><tspan x="315" y="400" fill="rgb(249,171,86)">*</tspan><tspan x="324" y="400" fill="rgb(249,171,85)">*</tspan><tspan x="333" y="400" fill="rgb(251,173,87)">*</tspan><tspan x="342" y="400" fill="rgb(248,171,87)">*</tspan><tspan x="351" y="400" fill="rgb(250,166,74)">*</tspan><tspan x="360" y="400" fill="rgb(253,221,184)">%</tspan><tspan x="369" y="400" fill="rgb(75,53,46)">:</tspan><tspan x="396" y="400" fill="rgb(69,24,0)">.</tspan><tspan x="405" y="400" fill="rgb(111,85,70)">-</tspan><tspan x="414" y="400" fill="rgb(249,255,255)">@</tspan><tspan x="423" y="400" fill="rgb(108,79,52)">:</tspan><tspan x="432" y="400" fill="rgb(235,152,67)">+</tspan><tspan x="441" y="400" fill="rgb(232,154,74)">+</tspan><tspan x="459" y="400" fill="rgb(80,30,10)">.</tspan><tspan x="468" y="400" fill="rgb(153,70,25)">-</tspan><tspan x="477" y="400" fill="rgb(191,110,45)">=</tspan><tspan x="486" y="400" fill="rgb(255,176,87)">*</tspan><tspan x="495" y="400" fill="rgb(83,43,17)">.</tspan></text>
  <text><tspan x="144" y="416" fill="rgb(206,124,53)">=</tspan><tspan x="153" y="416" fill="rgb(218,129,56)">+</tspan><tspan x="162" y="416" fill="rgb(192,108,45)">=</tspan><tspan x="171" y="416" fill="rgb(180,98,38)">=</tspan><tspan x="180" y="416" fill="rgb(74,36,13)">.</tspan><tspan x="198" y="416" fill="rgb(162,100,43)">-</tspan><tspan x="207" y="416" fill="rgb(247,156,68)">*</tspan><tspan x="216" y="416" fill="rgb(198,126,60)">=</tspan><tspan x="225" y="416" fill="rgb(224,198,170)">%</tspan><tspan x="234" y="416" fill="rgb(255,255,255)">#</tspan><tspan x="243" y="416" fill="rgb(138,118,108)">=</tspan><tspan x="252" y="416" fill="rgb(73,21,0)">.</tspan><tspan x="261" y="416" fill="rgb(78,39,6)">.</tspan><tspan x="270" y="416" fill="rgb(83,34,1)">.</tspan><tspan x="279" y="416" fill="rgb(154,130,115)">=</tspan><tspan x="288" y="416" fill="rgb(250,211,165)">%</tspan><tspan x="297" y="416" fill="rgb(248,163,72)">*</tspan><tspan x="306" y="416" fill="rgb(248,171,86)">*</tspan><tspan x="315" y="416" fill="rgb(250,171,85)">*</tspan><tspan x="324" y="416" fill="rgb(248,171,86)">*</tspan><tspan x="333" y="416" fill="rgb(242,161,78)">*</tspan><tspan x="342" y="416" fill="rgb(254,176,89)">*</tspan><tspan x="351" y="416" fill="rgb(248,166,78)">*</tspan><tspan x="360" y="416" fill="rgb(251,193,126)">%</tspan><tspan x="369" y="416" fill="rgb(182,153,125)">+</tspan><tspan x="378" y="416" fill="rgb(103,54,16)">:</tspan><tspan x="387" y="416" fill="rgb(136,72,17)">:</tspan><tspan x="396" y="416" fill="rgb(114,61,19)">:</tspan><tspan x="405" y="416" fill="rgb(198,174,148)">*</tspan><tspan x="414" y="416" fill="rgb(244,202,157)">%</tspan><tspan x="423" y="416" fill="rgb(229,152,73)">+</tspan><tspan x="432" y="416" fill="rgb(255,173,82)">*</tspan><tspan x="441" y="416" fill="rgb(214,140,66)">+</tspan><tspan x="450" y="416" fill="rgb(81,45,18)">.</tspan><tspan x="459" y="416" fill="rgb(174,89,35)">-</tspan><tspan x="468" y="416" fill="rgb(162,84,33)">-</tspan><tspan x="477" y="416" fill="rgb(255,172,82)">*</tspan><tspan x="486" y="416" fill="rgb(244,158,72)">*</tspan><tspan x="495" y="416" fill="rgb(81,39,15)">.</tspan></text>
  <text><tspan x="144" y="432" fill="rgb(240,155,72)">*</tspan><tspan x="153" y="432" fill="rgb(222,138,62)">+</tspan><tspan x="162" y="432" fill="rgb(170,81,28)">-</tspan><tspan x="171" y="432" fill="rgb(140,62,21)">:</tspan><tspan x="180" y="432" fill="rgb(128,56,19)">:</tspan><tspan x="198" y="432" fill="rgb(107,52,18)">:</tspan><tspan x="207" y="432" fill="rgb(239,150,66)">+</tspan><tspan x="216" y="432" fill="rgb(250,167,78)">*</tspan><tspan x="225" y="432" fill="rgb(238,156,71)">*</tspan><tspan x="234" y="432" fill="rgb(249,186,119)">*</tspan><tspan x="243" y="432" fill="rgb(238,191,136)">%</tspan><tspan x="252" y="432" fill="rgb(165,111,53)">=</tspan><tspan x="261" y="432" fill="rgb(176,114,51)">=</tspan><tspan x="270" y="432" fill="rgb(168,112,54)">=</tspan><tspan x="279" y="432" fill="rgb(245,178,104)">*</tspan><tspan x="288" y="432" fill="rgb(251,174,89)">*</tspan><tspan x="297" y="432" fill="rgb(247,169,83)">*</tspan><tspan x="306" y="432" fill="rgb(247,169,84)">*</tspan><tspan x="315" y="432" fill="rgb(248,173,89)">*</tspan><tspan x="324" y="432" fill="rgb(247,174,93)">*</tspan><tspan x="333" y="432" fill="rgb(213,125,53)">+</tspan><tspan x="342" y="432" fill="rgb(210,127,56)">+</tspan><tspan x="351" y="432" fill="rgb(248,170,85)">*</tspan><tspan x="360" y="432" fill="rgb(247,166,77)">*</tspan><tspan x="369" y="432" fill="rgb(249,171,86)">*</tspan><tspan x="378" y="432" fill="rgb(227,156,78)">+</tspan><tspan x="387" y="432" fill="rgb(231,158,78)">*</tspan><tspan x="396" y="432" fill="rgb(231,161,82)">*</tspan><tspan x="405" y="432" fill="rgb(255,177,91)">*</tspan><tspan x="414" y="432" fill="rgb(248,165,75)">*</tspan><tspan x="423" y="432" fill="rgb(251,171,84)">*</tspan><tspan x="432" y="432" fill="rgb(251,171,83)">*</tspan><tspan x="441" y="432" fill="rgb(209,126,55)">+</tspan><tspan x="450" y="432" fill="rgb(140,64,22)">:</tspan><tspan x="459" y="432" fill="rgb(182,96,37)">=</tspan><tspan x="468" y="432" fill="rgb(199,119,53)">=</tspan><tspan x="477" y="432" fill="rgb(255,172,80)">*</tspan><tspan x="486" y="432" fill="rgb(133,69,26)">:</tspan></text>
  <text><tspan x="144" y="448" fill="rgb(200,124,56)">=</tspan><tspan x="153" y="448" fill="rgb(255,177,86)">*</tspan><tspan x="162" y="448" fill="rgb(237,151,68)">+</tspan><tspan x="171" y="448" fill="rgb(142,63,22)">:</tspan><tspan x="180" y="448" fill="rgb(154,75,27)">-</tspan><tspan x="189" y="448" fill="rgb(141,73,28)">-</tspan><tspan x="198" y="448" fill="rgb(98,41,14)">.</tspan><tspan x="207" y="448" fill="rgb(223,139,62)">+</tspan><tspan x="216" y="448" fill="rgb(250,171,83)">*</tspan><tspan x="225" y="448" fill="rgb(248,170,84)">*</tspan><tspan x="234" y="448" fill="rgb(248,166,76)">*</tspan><tspan x="243" y="448" fill="rgb(250,167,76)">*</tspan><tspan x="252" y="448" fill="rgb(255,181,91)">*</tspan><tspan x="261" y="448" fill="rgb(255,180,92)">*</tspan><tspan x="270" y="448" fill="rgb(255,179,90)">*</tspan><tspan x="279" y="448" fill="rgb(247,167,80)">*</tspan><tspan x="288" y="448" fill="rgb(250,173,88)">*</tspan><tspan x="297" y="448" fill="rgb(255,179,92)">*</tspan><tspan x="306" y="448" fill="rgb(255,180,92)">*</tspan><tspan x="315" y="448" fill="rgb(255,175,88)">*</tspan><tspan x="324" y="448" fill="rgb(252,168,81)">*</tspan><tspan x="333" y="448" fill="rgb(211,126,55)">+</tspan><tspan x="342" y="448" fill="rgb(193,114,52)">=</tspan><tspan x="351" y="448" fill="rgb(255,182,92)">*</tspan><tspan x="360" y="448" fill="rgb(255,181,93)">*</tspan><tspan x="369" y="448" fill="rgb(255,178,90)">*</tspan><tspan x="378" y="448" fill="rgb(255,182,91)">*</tspan><tspan x="387" y="448" fill="rgb(255,176,88)">*</tspan><tspan x="396" y="448" fill="rgb(253,173,86)">*</tspan><tspan x="405" y="448" fill="rgb(248,170,85)">*</tspan><tspan x="414" y="448" fill="rgb(248,172,87)">*</tspan><tspan x="423" y="448" fill="rgb(247,169,85)">*</tspan><tspan x="432" y="448" fill="rgb(250,170,83)">*</tspan><tspan x="441" y="448" fill="rgb(198,110,45)">=</tspan><tspan x="450" y="448" fill="rgb(193,105,41)">=</tspan><tspan x="459" y="448" fill="rgb(234,153,72)">+</tspan><tspan x="468" y="448" fill="rgb(254,169,80)">*</tspan><tspan x="477" y="448" fill="rgb(154,91,40)">-</tspan></text>
  <text><tspan x="153" y="464" fill="rgb(174,111,53)">=</tspan><tspan x="162" y="464" fill="rgb(255,176,85)">*</tspan><tspan x="171" y="464" fill="rgb(207,124,55)">=</tspan><tspan x="180" y="464" fill="rgb(146,68,24)">-</tspan><tspan x="189" y="464" fill="rgb(165,80,28)">-</tspan><tspan x="198" y="464" fill="rgb(125,55,18)">:</tspan><tspan x="207" y="464" fill="rgb(164,92,37)">-</tspan><tspan x="216" y="464" fill="rgb(253,171,81)">*</tspan><tspan x="225" y="464" fill="rgb(246,168,82)">*</tspan><tspan x="234" y="464" fill="rgb(248,171,86)">*</tspan><tspan x="243" y="464" fill="rgb(248,172,87)">*</tspan><tspan x="252" y="464" fill="rgb(246,169,85)">*</tspan><tspan x="261" y="464" fill="rgb(246,170,86)">*</tspan><tspan x="270" y="464" fill="rgb(255,179,90)">*</tspan><tspan x="279" y="464" fill="rgb(255,179,88)">*</tspan><tspan x="288" y="464" fill="rgb(241,158,70)">*</tspan><tspan x="297" y="464" fill="rgb(213,132,56)">+</tspan><tspan x="306" y="464" fill="rgb(204,126,53)">=</tspan><tspan x="315" y="464" fill="rgb(207,127,53)">+</tspan><tspan x="324" y="464" fill="rgb(206,127,52)">+</tspan><tspan x="333" y="464" fill="rgb(204,125,51)">=</tspan><tspan x="342" y="464" fill="rgb(209,130,55)">+</tspan><tspan x="351" y="464" fill="rgb(203,126,53)">=</tspan><tspan x="360" y="464" fill="rgb(191,122,54)">=</tspan><tspan x="369" y="464" fill="rgb(195,133,65)">+</tspan><tspan x="378" y="464" fill="rgb(187,125,61)">=</tspan><tspan x="387" y="464" fill="rgb(230,157,78)">+</tspan><tspan x="396" y="464" fill="rgb(250,173,87)">*</tspan><tspan x="405" y="464" fill="rgb(248,170,85)">*</tspan><tspan x="414" y="464" fill="rgb(248,170,85)">*</tspan><tspan x="423" y="464" fill="rgb(249,171,85)">*</tspan><tspan x="432" y="464" fill="rgb(237,152,69)">+</tspan><tspan x="441" y="464" fill="rgb(173,87,32)">-</tspan><tspan x="450" y="464" fill="rgb(175,102,44)">=</tspan><tspan x="459" y="464" fill="rgb(188,118,54)">=</tspan><tspan x="468" y="464" fill="rgb(95,53,25)">:</tspan></text>
  <text><tspan x="162" y="480" fill="rgb(112,68,33)">:</tspan><tspan x="171" y="480" fill="rgb(237,156,74)">*</tspan><tspan x="180" y="480" fill="rgb(253,166,79)">*</tspan><tspan x="189" y="480" fill="rgb(240,155,72)">*</tspan><tspan x="198" y="480" fill="rgb(226,137,60)">+</tspan><tspan x="207" y="480" fill="rgb(146,70,26)">-</tspan><tspan x="216" y="480" fill="rgb(220,135,58)">+</tspan><tspan x="225" y="480" fill="rgb(254,175,86)">*</tspan><tspan x="234" y="480" fill="rgb(247,168,84)">*</tspan><tspan x="243" y="480" fill="rgb(248,171,85)">*</tspan><tspan x="252" y="480" fill="rgb(250,172,86)">*</tspan><tspan x="261" y="480" fill="rgb(247,172,86)">*</tspan><tspan x="270" y="480" fill="rgb(111,68,31)">:</tspan><tspan x="279" y="480" fill="rgb(124,81,46)">-</tspan><tspan x="288" y="480" fill="rgb(179,132,95)">+</tspan><tspan x="297" y="480" fill="rgb(176,146,127)">+</tspan><tspan x="306" y="480" fill="rgb(193,174,162)">*</tspan><tspan x="315" y="480" fill="rgb(202,184,173)">*</tspan><tspan x="324" y="480" fill="rgb(201,183,172)">*</tspan><tspan x="333" y="480" fill="rgb(201,183,172)">*</tspan><tspan x="342" y="480" fill="rgb(200,182,173)">*</tspan><tspan x="351" y="480" fill="rgb(190,174,163)">*</tspan><tspan x="360" y="480" fill="rgb(156,138,123)">+</tspan><tspan x="369" y="480" fill="rgb(66,46,36)">.</tspan><tspan x="387" y="480" fill="rgb(194,133,67)">+</tspan><tspan x="396" y="480" fill="rgb(255,180,90)">*</tspan><tspan x="405" y="480" fill="rgb(246,169,85)">*</tspan><tspan x="414" y="480" fill="rgb(246,170,86)">*</tspan><tspan x="423" y="480" fill="rgb(255,174,85)">*</tspan><tspan x="432" y="480" fill="rgb(184,104,43)">=</tspan></text>
  <text><tspan x="180" y="496" fill="rgb(155,97,44)">-</tspan><tspan x="189" y="496" fill="rgb(193,122,56)">=</tspan><tspan x="198" y="496" fill="rgb(187,116,54)">=</tspan><tspan x="207" y="496" fill="rgb(136,69,27)">:</tspan><tspan x="216" y="496" fill="rgb(113,56,21)">:</tspan><tspan x="225" y="496" fill="rgb(238,152,70)">+</tspan><tspan x="234" y="496" fill="rgb(254,176,88)">*</tspan><tspan x="243" y="496" fill="rgb(246,169,84)">*</tspan><tspan x="252" y="496" fill="rgb(248,170,84)">*</tspan><tspan x="261" y="496" fill="rgb(252,173,86)">*</tspan><tspan x="270" y="496" fill="rgb(112,69,31)">:</tspan><tspan x="288" y="496" fill="rgb(77,62,59)">:</tspan><tspan x="297" y="496" fill="rgb(114,84,74)">-</tspan><tspan x="306" y="496" fill="rgb(153,95,79)">-</tspan><tspan x="315" y="496" fill="rgb(156,96,80)">-</tspan><tspan x="324" y="496" fill="rgb(157,97,80)">-</tspan><tspan x="333" y="496" fill="rgb(160,98,81)">=</tspan><tspan x="342" y="496" fill="rgb(155,97,81)">-</tspan><tspan x="351" y="496" fill="rgb(135,92,79)">-</tspan><tspan x="360" y="496" fill="rgb(99,73,61)">:</tspan><tspan x="378" y="496" fill="rgb(174,115,55)">=</tspan><tspan x="387" y="496" fill="rgb(252,176,88)">*</tspan><tspan x="396" y="496" fill="rgb(245,168,83)">*</tspan><tspan x="405" y="496" fill="rgb(247,169,85)">*</tspan><tspan x="414" y="496" fill="rgb(253,172,84)">*</tspan><tspan x="423" y="496" fill="rgb(207,126,57)">+</tspan><tspan x="432" y="496" fill="rgb(68,32,13)">.</tspan></text>
  <text><tspan x="225" y="512" fill="rgb(100,51,19)">:</tspan><tspan x="234" y="512" fill="rgb(228,142,65)">+</tspan><tspan x="243" y="512" fill="rgb(255,175,86)">*</tspan><tspan x="252" y="512" fill="rgb(250,173,87)">*</tspan><tspan x="261" y="512" fill="rgb(248,170,85)">*</tspan><tspan x="270" y="512" fill="rgb(255,179,89)">*</tspan><tspan x="279" y="512" fill="rgb(143,94,44)">-</tspan><tspan x="297" y="512" fill="rgb(141,34,9)">:</tspan><tspan x="306" y="512" fill="rgb(174,51,18)">:</tspan><tspan x="315" y="512" fill="rgb(191,62,24)">-</tspan><tspan x="324" y="512" fill="rgb(195,65,26)">-</tspan><tspan x="333" y="512" fill="rgb(195,65,26)">-</tspan><tspan x="342" y="512" fill="rgb(190,60,23)">-</tspan><tspan x="351" y="512" fill="rgb(150,36,9)">:</tspan><tspan x="360" y="512" fill="rgb(90,16,0)">.</tspan><tspan x="369" y="512" fill="rgb(141,86,40)">-</tspan><tspan x="378" y="512" fill="rgb(245,170,84)">*</tspan><tspan x="387" y="512" fill="rgb(249,171,86)">*</tspan><tspan x="396" y="512" fill="rgb(254,176,88)">*</tspan><tspan x="405" y="512" fill="rgb(251,167,80)">*</tspan><tspan x="414" y="512" fill="rgb(193,110,47)">=</tspan><tspan x="423" y="512" fill="rgb(86,38,13)">.</tspan></text>
  <text><tspan x="234" y="528" fill="rgb(51,22,8)">.</tspan><tspan x="243" y="528" fill="rgb(161,95,40)">-</tspan><tspan x="252" y="528" fill="rgb(242,158,73)">*</tspan><tspan x="261" y="528" fill="rgb(255,177,87)">*</tspan><tspan x="270" y="528" fill="rgb(254,176,88)">*</tspan><tspan x="279" y="528" fill="rgb(255,180,90)">*</tspan><tspan x="288" y="528" fill="rgb(210,138,68)">+</tspan><tspan x="297" y="528" fill="rgb(175,84,40)">-</tspan><tspan x="306" y="528" fill="rgb(211,87,46)">=</tspan><tspan x="315" y="528" fill="rgb(223,89,49)">=</tspan><tspan x="324" y="528" fill="rgb(223,89,48)">=</tspan><tspan x="333" y="528" fill="rgb(224,90,49)">=</tspan><tspan x="342" y="528" fill="rgb(215,88,46)">=</tspan><tspan x="351" y="528" fill="rgb(184,89,43)">-</tspan><tspan x="360" y="528" fill="rgb(201,128,63)">+</tspan><tspan x="369" y="528" fill="rgb(255,178,89)">*</tspan><tspan x="378" y="528" fill="rgb(255,175,87)">*</tspan><tspan x="387" y="528" fill="rgb(255,175,86)">*</tspan><tspan x="396" y="528" fill="rgb(215,138,65)">+</tspan><tspan x="405" y="528" fill="rgb(131,69,28)">:</tspan></text>
  <text><tspan x="252" y="544" fill="rgb(78,37,12)">.</tspan><tspan x="261" y="544" fill="rgb(164,97,42)">-</tspan><tspan x="270" y="544" fill="rgb(216,142,66)">+</tspan><tspan x="279" y="544" fill="rgb(251,170,83)">*</tspan><tspan x="288" y="544" fill="rgb(255,183,91)">*</tspan><tspan x="297" y="544" fill="rgb(250,173,86)">*</tspan><tspan x="306" y="544" fill="rgb(231,151,74)">+</tspan><tspan x="315" y="544" fill="rgb(209,119,54)">=</tspan><tspan x="324" y="544" fill="rgb(208,118,54)">=</tspan><tspan x="333" y="544" fill="rgb(209,119,54)">=</tspan><tspan x="342" y="544" fill="rgb(227,146,71)">+</tspan><tspan x="351" y="544" fill="rgb(246,171,85)">*</tspan><tspan x="360" y="544" fill="rgb(255,183,92)">*</tspan><tspan x="369" y="544" fill="rgb(255,176,87)">*</tspan><tspan x="378" y="544" fill="rgb(226,150,70)">+</tspan><tspan x="387" y="544" fill="rgb(145,82,35)">-</tspan><tspan x="396" y="544" fill="rgb(65,25,8)">.</tspan></text>
  <text><tspan x="261" y="560" fill="rgb(83,31,10)">.</tspan><tspan x="270" y="560" fill="rgb(100,41,13)">.</tspan><tspan x="279" y="560" fill="rgb(115,60,24)">:</tspan><tspan x="288" y="560" fill="rgb(195,121,55)">=</tspan><tspan x="297" y="560" fill="rgb(224,153,75)">+</tspan><tspan x="306" y="560" fill="rgb(255,175,86)">*</tspan><tspan x="315" y="560" fill="rgb(255,187,93)">*</tspan><tspan x="324" y="560" fill="rgb(255,186,93)">*</tspan><tspan x="333" y="560" fill="rgb(255,185,92)">*</tspan><tspan x="342" y="560" fill="rgb(255,183,91)">*</tspan><tspan x="351" y="560" fill="rgb(249,168,83)">*</tspan><tspan x="360" y="560" fill="rgb(214,139,65)">+</tspan><tspan x="369" y="560" fill="rgb(163,94,40)">-</tspan><tspan x="378" y="560" fill="rgb(101,46,16)">:</tspan><tspan x="387" y="560" fill="rgb(98,36,11)">.</tspan><tspan x="396" y="560" fill="rgb(65,26,11)">.</tspan></text>
  <text><tspan x="261" y="576" fill="rgb(132,65,24)">:</tspan><tspan x="270" y="576" fill="rgb(184,94,36)">=</tspan><tspan x="279" y="576" fill="rgb(124,51,18)">:</tspan><tspan x="288" y="576" fill="rgb(97,40,14)">.</tspan><tspan x="297" y="576" fill="rgb(89,37,13)">.</tspan><tspan x="306" y="576" fill="rgb(140,81,35)">-</tspan><tspan x="315" y="576" fill="rgb(159,102,48)">-</tspan><tspan x="324" y="576" fill="rgb(157,100,48)">-</tspan><tspan x="333" y="576" fill="rgb(157,99,47)">-</tspan><tspan x="342" y="576" fill="rgb(159,100,46)">-</tspan><tspan x="351" y="576" fill="rgb(130,69,28)">:</tspan><tspan x="360" y="576" fill="rgb(89,35,11)">.</tspan><tspan x="369" y="576" fill="rgb(84,30,9)">.</tspan><tspan x="378" y="576" fill="rgb(157,78,29)">-</tspan><tspan x="387" y="576" fill="rgb(175,91,36)">-</tspan></text>
  <text><tspan x="261" y="592" fill="rgb(142,69,26)">-</tspan><tspan x="270" y="592" fill="rgb(229,134,55)">+</tspan><tspan x="279" y="592" fill="rgb(204,114,45)">=</tspan><tspan x="288" y="592" fill="rgb(172,84,31)">-</tspan><tspan x="297" y="592" fill="rgb(138,61,23)">:</tspan><tspan x="306" y="592" fill="rgb(108,42,14)">:</tspan><tspan x="315" y="592" fill="rgb(90,33,10)">.</tspan><tspan x="324" y="592" fill="rgb(85,30,9)">.</tspan><tspan x="333" y="592" fill="rgb(83,29,8)">.</tspan><tspan x="342" y="592" fill="rgb(91,32,10)">.</tspan><tspan x="351" y="592" fill="rgb(107,42,14)">:</tspan><tspan x="360" y="592" fill="rgb(142,64,23)">:</tspan><tspan x="369" y="592" fill="rgb(183,95,36)">=</tspan><tspan x="378" y="592" fill="rgb(244,149,64)">+</tspan><tspan x="387" y="592" fill="rgb(198,113,47)">=</tspan></text>
  <text><tspan x="261" y="608" fill="rgb(50,22,8)">.</tspan><tspan x="270" y="608" fill="rgb(204,124,54)">=</tspan><tspan x="279" y="608" fill="rgb(238,151,68)">+</tspan><tspan x="288" y="608" fill="rgb(220,126,51)">+</tspan><tspan x="297" y="608" fill="rgb(200,106,41)">=</tspan><tspan x="306" y="608" fill="rgb(170,84,32)">-</tspan><tspan x="315" y="608" fill="rgb(147,67,26)">-</tspan><tspan x="324" y="608" fill="rgb(141,62,24)">:</tspan><tspan x="333" y="608" fill="rgb(139,61,23)">:</tspan><tspan x="342" y="608" fill="rgb(152,72,28)">-</tspan><tspan x="351" y="608" fill="rgb(188,98,38)">=</tspan><tspan x="360" y="608" fill="rgb(214,117,46)">=</tspan><tspan x="369" y="608" fill="rgb(226,136,60)">+</tspan><tspan x="378" y="608" fill="rgb(167,108,50)">=</tspan><tspan x="387" y="608" fill="rgb(62,37,16)">.</tspan></text>
  <text><tspan x="279" y="624" fill="rgb(63,41,20)">.</tspan><tspan x="288" y="624" fill="rgb(151,96,43)">-</tspan><tspan x="297" y="624" fill="rgb(144,82,34)">-</tspan><tspan x="306" y="624" fill="rgb(199,109,43)">=</tspan><tspan x="315" y="624" fill="rgb(200,109,42)">=</tspan><tspan x="324" y="624" fill="rgb(201,109,42)">=</tspan><tspan x="333" y="624" fill="rgb(199,110,44)">=</tspan><tspan x="342" y="624" fill="rgb(213,121,49)">=</tspan><tspan x="351" y="624" fill="rgb(159,91,37)">-</tspan><tspan x="360" y="624" fill="rgb(149,89,38)">-</tspan><tspan x="369" y="624" fill="rgb(78,50,24)">.</tspan></text>
  <text><tspan x="315" y="640" fill="rgb(49,28,11)">.</tspan><tspan x="324" y="640" fill="rgb(49,28,10)">.</tspan><tspan x="333" y="640" fill="rgb(42,25,10)">.</tspan><tspan x="342" y="640" fill="rgb(48,28,11)">.</tspan></text>
</svg>