<svg xmlns="http://www.w3.org/2000/svg" viewBox="0 0 900 420" width="100%" role="img" aria-label="Night sky built from shre2201's recent commit activity">
  <style>text{font-family:"Courier New",Courier,monospace;}</style>
  <rect width="900" height="420" fill="#050912"/>
  <circle cx="683.1" cy="29.2" r="0.8" fill="#ffffff" opacity="0.12"/>
  <circle cx="861.3" cy="301.5" r="0.6" fill="#ffffff" opacity="0.24"/>
  <circle cx="219.5" cy="307.7" r="1.0" fill="#ffffff" opacity="0.20"/>
  <circle cx="809.1" cy="241.4" r="0.6" fill="#ffffff" opacity="0.21"/>
  <circle cx="847.0" cy="339.2" r="0.8" fill="#ffffff" opacity="0.18"/>
  <circle cx="482.9" cy="245.7" r="0.8" fill="#ffffff" opacity="0.21"/>
  <circle cx="525.0" cy="52.1" r="0.8" fill="#ffffff" opacity="0.08"/>
  <circle cx="390.0" cy="60.3" r="0.8" fill="#ffffff" opacity="0.19"/>
  <circle cx="201.7" cy="302.6" r="0.8" fill="#ffffff" opacity="0.08"/>
  <circle cx="857.8" cy="251.3" r="1.0" fill="#ffffff" opacity="0.16"/>
  <circle cx="97.0" cy="82.2" r="0.6" fill="#ffffff" opacity="0.15"/>
  <circle cx="191.2" cy="144.0" r="0.6" fill="#ffffff" opacity="0.22"/>
  <circle cx="504.3" cy="183.3" r="0.8" fill="#ffffff" opacity="0.18"/>
  <circle cx="85.6" cy="51.1" r="1.0" fill="#ffffff" opacity="0.22"/>
  <circle cx="866.0" cy="291.8" r="0.6" fill="#ffffff" opacity="0.21"/>
  <circle cx="242.8" cy="219.9" r="0.6" fill="#ffffff" opacity="0.11"/>
  <circle cx="320.0" cy="131.4" r="1.0" fill="#ffffff" opacity="0.22"/>
  <circle cx="134.8" cy="341.4" r="1.0" fill="#ffffff" opacity="0.20"/>
  <circle cx="167.3" cy="68.6" r="1.0" fill="#ffffff" opacity="0.22"/>
  <circle cx="43.9" cy="56.4" r="0.6" fill="#ffffff" opacity="0.17"/>
  <circle cx="451.4" cy="194.9" r="0.8" fill="#ffffff" opacity="0.15"/>
  <circle cx="274.7" cy="164.4" r="0.6" fill="#ffffff" opacity="0.23"/>
  <circle cx="385.3" cy="219.0" r="0.6" fill="#ffffff" opacity="0.14"/>
  <circle cx="485.4" cy="159.3" r="0.6" fill="#ffffff" opacity="0.13"/>
  <circle cx="334.5" cy="29.2" r="1.0" fill="#ffffff" opacity="0.20"/>
  <circle cx="450.7" cy="50.7" r="1.0" fill="#ffffff" opacity="0.20"/>
  <circle cx="563.9" cy="303.8" r="0.6" fill="#ffffff" opacity="0.09"/>
  <circle cx="215.2" cy="295.7" r="1.0" fill="#ffffff" opacity="0.17"/>
  <circle cx="24.6" cy="85.0" r="0.8" fill="#ffffff" opacity="0.25"/>
  <circle cx="808.7" cy="73.8" r="1.0" fill="#ffffff" opacity="0.12"/>
  <circle cx="70.5" cy="274.6" r="0.6" fill="#ffffff" opacity="0.22"/>
  <circle cx="310.3" cy="230.4" r="1.0" fill="#ffffff" opacity="0.14"/>
  <circle cx="858.2" cy="180.8" r="0.8" fill="#ffffff" opacity="0.20"/>
  <circle cx="102.8" cy="272.2" r="1.0" fill="#ffffff" opacity="0.14"/>
  <circle cx="365.3" cy="86.0" r="1.0" fill="#ffffff" opacity="0.16"/>
  <circle cx="815.4" cy="80.8" r="0.6" fill="#ffffff" opacity="0.12"/>
  <circle cx="603.5" cy="329.8" r="0.8" fill="#ffffff" opacity="0.09"/>
  <circle cx="835.1" cy="309.0" r="0.6" fill="#ffffff" opacity="0.16"/>
  <circle cx="125.1" cy="257.5" r="1.0" fill="#ffffff" opacity="0.15"/>
  <circle cx="217.4" cy="89.4" r="0.8" fill="#ffffff" opacity="0.09"/>
  <circle cx="104.0" cy="325.9" r="0.6" fill="#ffffff" opacity="0.12"/>
  <circle cx="504.6" cy="217.0" r="0.8" fill="#ffffff" opacity="0.10"/>
  <circle cx="815.6" cy="57.7" r="0.8" fill="#ffffff" opacity="0.21"/>
  <circle cx="174.6" cy="284.2" r="1.0" fill="#ffffff" opacity="0.17"/>
  <circle cx="76.0" cy="63.0" r="1.0" fill="#ffffff" opacity="0.15"/>
  <circle cx="478.7" cy="116.6" r="1.0" fill="#ffffff" opacity="0.14"/>
  <circle cx="128.7" cy="305.9" r="1.0" fill="#ffffff" opacity="0.23"/>
  <circle cx="411.8" cy="202.3" r="0.8" fill="#ffffff" opacity="0.24"/>
  <circle cx="846.4" cy="286.2" r="0.6" fill="#ffffff" opacity="0.22"/>
  <circle cx="503.6" cy="57.3" r="0.6" fill="#ffffff" opacity="0.20"/>
  <circle cx="710.0" cy="347.5" r="1.0" fill="#ffffff" opacity="0.19"/>
  <circle cx="537.3" cy="143.8" r="0.6" fill="#ffffff" opacity="0.21"/>
  <circle cx="152.7" cy="251.8" r="0.8" fill="#ffffff" opacity="0.20"/>
  <circle cx="36.8" cy="216.2" r="1.0" fill="#ffffff" opacity="0.08"/>
  <circle cx="658.2" cy="78.4" r="1.0" fill="#ffffff" opacity="0.16"/>
  <circle cx="734.6" cy="216.6" r="0.8" fill="#ffffff" opacity="0.11"/>
  <circle cx="221.4" cy="185.7" r="0.6" fill="#ffffff" opacity="0.16"/>
  <circle cx="267.3" cy="56.0" r="0.6" fill="#ffffff" opacity="0.17"/>
  <circle cx="201.6" cy="151.2" r="0.6" fill="#ffffff" opacity="0.17"/>
  <circle cx="106.9" cy="237.5" r="0.8" fill="#ffffff" opacity="0.20"/>
  <circle cx="754.9" cy="263.4" r="0.6" fill="#ffffff" opacity="0.14"/>
  <circle cx="485.4" cy="262.9" r="0.8" fill="#ffffff" opacity="0.09"/>
  <circle cx="161.1" cy="185.5" r="0.8" fill="#ffffff" opacity="0.11"/>
  <circle cx="638.3" cy="113.9" r="1.0" fill="#ffffff" opacity="0.15"/>
  <circle cx="300.5" cy="329.6" r="1.0" fill="#ffffff" opacity="0.24"/>
  <circle cx="324.5" cy="318.3" r="0.6" fill="#ffffff" opacity="0.21"/>
  <circle cx="645.4" cy="316.5" r="1.0" fill="#ffffff" opacity="0.11"/>
  <circle cx="634.4" cy="65.5" r="0.8" fill="#ffffff" opacity="0.15"/>
  <circle cx="428.3" cy="243.2" r="1.0" fill="#ffffff" opacity="0.11"/>
  <circle cx="76.8" cy="64.4" r="1.0" fill="#ffffff" opacity="0.12"/>
  <circle cx="851.9" cy="245.9" r="0.6" fill="#ffffff" opacity="0.23"/>
  <circle cx="828.6" cy="195.2" r="0.6" fill="#ffffff" opacity="0.16"/>
  <circle cx="425.6" cy="236.4" r="1.0" fill="#ffffff" opacity="0.24"/>
  <circle cx="726.6" cy="251.9" r="0.8" fill="#ffffff" opacity="0.09"/>
  <circle cx="759.1" cy="232.1" r="0.6" fill="#ffffff" opacity="0.10"/>
  <circle cx="563.5" cy="117.8" r="1.0" fill="#ffffff" opacity="0.18"/>
  <circle cx="113.6" cy="229.6" r="0.6" fill="#ffffff" opacity="0.19"/>
  <circle cx="115.2" cy="164.9" r="0.6" fill="#ffffff" opacity="0.10"/>
  <circle cx="250.1" cy="206.3" r="0.6" fill="#ffffff" opacity="0.25"/>
  <circle cx="284.9" cy="36.1" r="0.6" fill="#ffffff" opacity="0.16"/>
  <circle cx="113.5" cy="36.9" r="1.0" fill="#ffffff" opacity="0.15"/>
  <circle cx="521.1" cy="148.2" r="0.8" fill="#ffffff" opacity="0.21"/>
  <circle cx="712.4" cy="46.6" r="1.0" fill="#ffffff" opacity="0.15"/>
  <circle cx="175.9" cy="135.1" r="1.0" fill="#ffffff" opacity="0.10"/>
  <circle cx="190.1" cy="232.4" r="1.0" fill="#ffffff" opacity="0.21"/>
  <circle cx="240.4" cy="44.2" r="1.0" fill="#ffffff" opacity="0.12"/>
  <circle cx="379.2" cy="220.6" r="0.6" fill="#ffffff" opacity="0.25"/>
  <circle cx="832.9" cy="55.5" r="0.6" fill="#ffffff" opacity="0.12"/>
  <circle cx="336.9" cy="60.6" r="1.0" fill="#ffffff" opacity="0.24"/>
  <circle cx="44.5" cy="278.3" r="0.8" fill="#ffffff" opacity="0.10"/>
  <circle cx="63.7" cy="264.1" r="0.6" fill="#ffffff" opacity="0.15"/>
  <circle cx="616.9" cy="320.1" r="1.0" fill="#ffffff" opacity="0.13"/>
  <circle cx="150.6" cy="230.5" r="0.8" fill="#ffffff" opacity="0.17"/>
  <circle cx="840.6" cy="256.4" r="0.6" fill="#ffffff" opacity="0.12"/>
  <circle cx="878.9" cy="321.8" r="0.6" fill="#ffffff" opacity="0.20"/>
  <circle cx="326.0" cy="231.6" r="0.8" fill="#ffffff" opacity="0.24"/>
  <circle cx="108.1" cy="322.6" r="0.6" fill="#ffffff" opacity="0.14"/>
  <circle cx="364.1" cy="322.4" r="0.8" fill="#ffffff" opacity="0.10"/>
  <circle cx="812.7" cy="254.6" r="0.6" fill="#ffffff" opacity="0.21"/>
  <circle cx="639.5" cy="139.1" r="0.6" fill="#ffffff" opacity="0.18"/>
  <circle cx="65.1" cy="20.1" r="1.0" fill="#ffffff" opacity="0.21"/>
  <circle cx="397.4" cy="147.5" r="0.6" fill="#ffffff" opacity="0.10"/>
  <circle cx="664.3" cy="321.4" r="1.0" fill="#ffffff" opacity="0.11"/>
  <circle cx="318.1" cy="152.5" r="0.8" fill="#ffffff" opacity="0.09"/>
  <circle cx="808.5" cy="163.8" r="0.6" fill="#ffffff" opacity="0.19"/>
  <circle cx="844.0" cy="241.1" r="0.8" fill="#ffffff" opacity="0.19"/>
  <circle cx="845.8" cy="320.9" r="0.8" fill="#ffffff" opacity="0.21"/>
  <circle cx="423.0" cy="176.5" r="0.8" fill="#ffffff" opacity="0.16"/>
  <circle cx="293.4" cy="321.2" r="0.6" fill="#ffffff" opacity="0.16"/>
  <circle cx="148.1" cy="281.0" r="0.8" fill="#ffffff" opacity="0.22"/>
  <circle cx="765.0" cy="71.8" r="1.0" fill="#ffffff" opacity="0.23"/>
  <circle cx="332.7" cy="290.3" r="0.8" fill="#ffffff" opacity="0.10"/>
  <circle cx="482.1" cy="336.4" r="0.6" fill="#ffffff" opacity="0.25"/>
  <circle cx="576.0" cy="264.3" r="0.8" fill="#ffffff" opacity="0.14"/>
  <circle cx="458.4" cy="128.3" r="0.8" fill="#ffffff" opacity="0.12"/>
  <circle cx="870.2" cy="294.4" r="0.6" fill="#ffffff" opacity="0.21"/>
  <circle cx="686.0" cy="182.6" r="0.8" fill="#ffffff" opacity="0.16"/>
  <circle cx="816.0" cy="145.6" r="1.0" fill="#ffffff" opacity="0.19"/>
  <circle cx="513.4" cy="328.2" r="0.8" fill="#ffffff" opacity="0.16"/>
  <circle cx="720.5" cy="155.7" r="0.6" fill="#ffffff" opacity="0.15"/>
  <text x="16" y="57.6" fill="#334155" font-size="11">Mon</text>
  <text x="16" y="104.7" fill="#334155" font-size="11">Tue</text>
  <text x="16" y="151.9" fill="#334155" font-size="11">Wed</text>
  <text x="16" y="199.0" fill="#334155" font-size="11">Thu</text>
  <text x="16" y="246.1" fill="#334155" font-size="11">Fri</text>
  <text x="16" y="293.3" fill="#334155" font-size="11">Sat</text>
  <text x="16" y="340.4" fill="#334155" font-size="11">Sun</text>
  <circle cx="224.2" cy="235.4" r="2.0" fill="#f0b7c8" opacity="0.51"/>
  <circle cx="223.1" cy="248.1" r="2.0" fill="#dbeafe" opacity="0.51"/>
  <circle cx="222.0" cy="237.9" r="2.0" fill="#dbeafe" opacity="0.51"/>
  <circle cx="222.0" cy="250.3" r="2.0" fill="#dbeafe" opacity="0.51"/>
  <circle cx="221.4" cy="228.3" r="2.0" fill="#dbeafe" opacity="0.51"/>
  <circle cx="221.4" cy="235.1" r="2.0" fill="#dbeafe" opacity="0.51"/>
  <circle cx="192.2" cy="250.0" r="2.0" fill="#dbeafe" opacity="0.51"/>
  <circle cx="584.2" cy="149.8" r="2.0" fill="#dbeafe" opacity="0.51"/>
  <circle cx="341.2" cy="151.8" r="2.0" fill="#dbeafe" opacity="0.51"/>
  <circle cx="463.9" cy="296.0" r="2.0" fill="#dbeafe" opacity="0.51"/>
  <circle cx="461.6" cy="285.3" r="2.0" fill="#dbeafe" opacity="0.51"/>
  <circle cx="461.6" cy="282.4" r="2.0" fill="#dbeafe" opacity="0.51"/>
  <circle cx="460.5" cy="282.4" r="2.0" fill="#dbeafe" opacity="0.51"/>
  <circle cx="459.9" cy="301.5" r="2.0" fill="#dbeafe" opacity="0.51"/>
  <circle cx="459.4" cy="287.2" r="2.0" fill="#dbeafe" opacity="0.51"/>
  <circle cx="458.2" cy="293.1" r="2.0" fill="#dbeafe" opacity="0.51"/>
  <text x="450.0" y="386" fill="#94a3b8" font-size="13" text-anchor="middle">the sky the moment you last shipped &#183; Jul 10, 2026 04:52 UTC</text>
  <text x="450.0" y="408" fill="#475569" font-size="11" text-anchor="middle">16 pushes charted &#183; x-axis = hour of day (UTC), y-axis = day of week</text>
</svg>