<svg xmlns="http://www.w3.org/2000/svg" viewBox="0 0 900 420" width="100%" role="img" aria-label="Night sky built from shre2201's recent commit activity">
  <style>text{font-family:"Courier New",Courier,monospace;}</style>
  <rect width="900" height="420" fill="#050912"/>
  <circle cx="230.8" cy="96.0" r="0.8" fill="#ffffff" opacity="0.18"/>
  <circle cx="655.1" cy="51.2" r="1.0" fill="#ffffff" opacity="0.18"/>
  <circle cx="284.0" cy="62.7" r="0.8" fill="#ffffff" opacity="0.15"/>
  <circle cx="839.1" cy="310.5" r="0.6" fill="#ffffff" opacity="0.16"/>
  <circle cx="362.9" cy="177.9" r="1.0" fill="#ffffff" opacity="0.19"/>
  <circle cx="22.8" cy="277.2" r="1.0" fill="#ffffff" opacity="0.15"/>
  <circle cx="287.0" cy="205.4" r="0.6" fill="#ffffff" opacity="0.15"/>
  <circle cx="453.4" cy="261.2" r="0.6" fill="#ffffff" opacity="0.10"/>
  <circle cx="50.8" cy="264.4" r="0.8" fill="#ffffff" opacity="0.18"/>
  <circle cx="494.9" cy="264.1" r="0.8" fill="#ffffff" opacity="0.11"/>
  <circle cx="253.2" cy="21.4" r="1.0" fill="#ffffff" opacity="0.22"/>
  <circle cx="429.2" cy="294.3" r="0.8" fill="#ffffff" opacity="0.14"/>
  <circle cx="868.6" cy="282.3" r="1.0" fill="#ffffff" opacity="0.08"/>
  <circle cx="401.2" cy="214.5" r="0.8" fill="#ffffff" opacity="0.20"/>
  <circle cx="714.3" cy="345.9" r="0.8" fill="#ffffff" opacity="0.23"/>
  <circle cx="538.1" cy="151.5" r="1.0" fill="#ffffff" opacity="0.16"/>
  <circle cx="317.4" cy="117.4" r="0.8" fill="#ffffff" opacity="0.10"/>
  <circle cx="188.3" cy="173.3" r="0.6" fill="#ffffff" opacity="0.20"/>
  <circle cx="517.5" cy="277.7" r="0.8" fill="#ffffff" opacity="0.17"/>
  <circle cx="418.4" cy="169.0" r="0.8" fill="#ffffff" opacity="0.25"/>
  <circle cx="762.4" cy="174.6" r="0.8" fill="#ffffff" opacity="0.09"/>
  <circle cx="603.3" cy="249.5" r="1.0" fill="#ffffff" opacity="0.25"/>
  <circle cx="405.9" cy="49.5" r="0.6" fill="#ffffff" opacity="0.10"/>
  <circle cx="376.0" cy="202.0" r="1.0" fill="#ffffff" opacity="0.16"/>
  <circle cx="156.4" cy="124.4" r="0.8" fill="#ffffff" opacity="0.21"/>
  <circle cx="461.6" cy="40.8" r="1.0" fill="#ffffff" opacity="0.19"/>
  <circle cx="441.3" cy="156.4" r="1.0" fill="#ffffff" opacity="0.20"/>
  <circle cx="335.2" cy="265.5" r="0.8" fill="#ffffff" opacity="0.09"/>
  <circle cx="194.0" cy="340.9" r="0.6" fill="#ffffff" opacity="0.11"/>
  <circle cx="406.1" cy="89.3" r="0.8" fill="#ffffff" opacity="0.16"/>
  <circle cx="487.1" cy="254.2" r="1.0" fill="#ffffff" opacity="0.11"/>
  <circle cx="878.9" cy="50.1" r="0.6" fill="#ffffff" opacity="0.16"/>
  <circle cx="235.5" cy="289.1" r="1.0" fill="#ffffff" opacity="0.15"/>
  <circle cx="512.6" cy="239.0" r="0.8" fill="#ffffff" opacity="0.10"/>
  <circle cx="371.1" cy="115.1" r="1.0" fill="#ffffff" opacity="0.17"/>
  <circle cx="671.9" cy="343.3" r="0.6" fill="#ffffff" opacity="0.10"/>
  <circle cx="562.4" cy="305.6" r="1.0" fill="#ffffff" opacity="0.21"/>
  <circle cx="446.9" cy="155.0" r="1.0" fill="#ffffff" opacity="0.21"/>
  <circle cx="723.9" cy="28.2" r="0.8" fill="#ffffff" opacity="0.23"/>
  <circle cx="825.2" cy="234.0" r="0.8" fill="#ffffff" opacity="0.13"/>
  <circle cx="172.4" cy="72.9" r="1.0" fill="#ffffff" opacity="0.11"/>
  <circle cx="103.9" cy="36.4" r="0.8" fill="#ffffff" opacity="0.13"/>
  <circle cx="730.7" cy="323.3" r="0.8" fill="#ffffff" opacity="0.24"/>
  <circle cx="761.6" cy="42.9" r="1.0" fill="#ffffff" opacity="0.11"/>
  <circle cx="445.6" cy="55.5" r="0.6" fill="#ffffff" opacity="0.20"/>
  <circle cx="720.6" cy="244.9" r="1.0" fill="#ffffff" opacity="0.12"/>
  <circle cx="487.8" cy="154.3" r="1.0" fill="#ffffff" opacity="0.12"/>
  <circle cx="603.5" cy="218.4" r="0.6" fill="#ffffff" opacity="0.16"/>
  <circle cx="627.9" cy="184.0" r="0.6" fill="#ffffff" opacity="0.15"/>
  <circle cx="346.5" cy="308.1" r="0.8" fill="#ffffff" opacity="0.15"/>
  <circle cx="665.0" cy="319.6" r="1.0" fill="#ffffff" opacity="0.23"/>
  <circle cx="808.9" cy="320.1" r="0.8" fill="#ffffff" opacity="0.20"/>
  <circle cx="502.2" cy="195.9" r="0.8" fill="#ffffff" opacity="0.22"/>
  <circle cx="30.5" cy="83.2" r="0.6" fill="#ffffff" opacity="0.18"/>
  <circle cx="539.3" cy="155.2" r="1.0" fill="#ffffff" opacity="0.23"/>
  <circle cx="441.7" cy="280.8" r="0.8" fill="#ffffff" opacity="0.22"/>
  <circle cx="832.5" cy="67.5" r="1.0" fill="#ffffff" opacity="0.15"/>
  <circle cx="274.3" cy="254.5" r="0.8" fill="#ffffff" opacity="0.10"/>
  <circle cx="237.2" cy="135.1" r="0.6" fill="#ffffff" opacity="0.16"/>
  <circle cx="536.2" cy="176.3" r="0.6" fill="#ffffff" opacity="0.23"/>
  <circle cx="545.8" cy="110.2" r="1.0" fill="#ffffff" opacity="0.18"/>
  <circle cx="838.1" cy="336.8" r="0.6" fill="#ffffff" opacity="0.11"/>
  <circle cx="70.7" cy="60.3" r="1.0" fill="#ffffff" opacity="0.19"/>
  <circle cx="648.5" cy="48.7" r="1.0" fill="#ffffff" opacity="0.13"/>
  <circle cx="564.1" cy="248.0" r="0.8" fill="#ffffff" opacity="0.21"/>
  <circle cx="639.0" cy="137.2" r="1.0" fill="#ffffff" opacity="0.10"/>
  <circle cx="757.3" cy="32.5" r="0.8" fill="#ffffff" opacity="0.12"/>
  <circle cx="806.4" cy="160.0" r="0.6" fill="#ffffff" opacity="0.10"/>
  <circle cx="610.6" cy="136.9" r="0.6" fill="#ffffff" opacity="0.23"/>
  <circle cx="217.0" cy="27.8" r="0.6" fill="#ffffff" opacity="0.22"/>
  <circle cx="770.2" cy="232.3" r="0.8" fill="#ffffff" opacity="0.23"/>
  <circle cx="352.0" cy="237.9" r="1.0" fill="#ffffff" opacity="0.13"/>
  <circle cx="56.3" cy="343.3" r="0.8" fill="#ffffff" opacity="0.24"/>
  <circle cx="668.5" cy="234.7" r="0.8" fill="#ffffff" opacity="0.14"/>
  <circle cx="159.3" cy="163.5" r="0.6" fill="#ffffff" opacity="0.20"/>
  <circle cx="811.0" cy="34.9" r="1.0" fill="#ffffff" opacity="0.12"/>
  <circle cx="741.2" cy="144.6" r="0.8" fill="#ffffff" opacity="0.21"/>
  <circle cx="166.8" cy="113.9" r="0.8" fill="#ffffff" opacity="0.25"/>
  <circle cx="662.6" cy="40.3" r="0.8" fill="#ffffff" opacity="0.12"/>
  <circle cx="223.1" cy="146.2" r="1.0" fill="#ffffff" opacity="0.14"/>
  <circle cx="793.1" cy="110.8" r="0.6" fill="#ffffff" opacity="0.09"/>
  <circle cx="181.1" cy="329.1" r="0.8" fill="#ffffff" opacity="0.20"/>
  <circle cx="613.4" cy="224.4" r="0.8" fill="#ffffff" opacity="0.17"/>
  <circle cx="592.6" cy="311.2" r="0.8" fill="#ffffff" opacity="0.14"/>
  <circle cx="832.7" cy="274.8" r="0.8" fill="#ffffff" opacity="0.13"/>
  <circle cx="717.9" cy="121.6" r="0.8" fill="#ffffff" opacity="0.08"/>
  <circle cx="308.9" cy="47.8" r="1.0" fill="#ffffff" opacity="0.20"/>
  <circle cx="259.2" cy="289.4" r="0.6" fill="#ffffff" opacity="0.15"/>
  <circle cx="366.0" cy="212.8" r="0.8" fill="#ffffff" opacity="0.18"/>
  <circle cx="665.7" cy="281.2" r="0.8" fill="#ffffff" opacity="0.14"/>
  <circle cx="777.9" cy="341.8" r="1.0" fill="#ffffff" opacity="0.21"/>
  <circle cx="387.2" cy="212.7" r="0.8" fill="#ffffff" opacity="0.12"/>
  <circle cx="444.4" cy="139.8" r="0.8" fill="#ffffff" opacity="0.21"/>
  <circle cx="299.1" cy="106.7" r="1.0" fill="#ffffff" opacity="0.15"/>
  <circle cx="336.8" cy="325.8" r="0.8" fill="#ffffff" opacity="0.21"/>
  <circle cx="405.0" cy="253.0" r="0.8" fill="#ffffff" opacity="0.20"/>
  <circle cx="311.6" cy="268.2" r="1.0" fill="#ffffff" opacity="0.23"/>
  <circle cx="353.7" cy="295.1" r="0.6" fill="#ffffff" opacity="0.25"/>
  <circle cx="586.2" cy="144.4" r="1.0" fill="#ffffff" opacity="0.16"/>
  <circle cx="73.5" cy="58.9" r="0.8" fill="#ffffff" opacity="0.21"/>
  <circle cx="426.8" cy="105.6" r="0.8" fill="#ffffff" opacity="0.15"/>
  <circle cx="171.0" cy="42.3" r="0.8" fill="#ffffff" opacity="0.21"/>
  <circle cx="685.5" cy="44.5" r="0.8" fill="#ffffff" opacity="0.09"/>
  <circle cx="340.6" cy="335.3" r="0.6" fill="#ffffff" opacity="0.10"/>
  <circle cx="723.6" cy="175.9" r="1.0" fill="#ffffff" opacity="0.22"/>
  <circle cx="559.7" cy="305.7" r="0.8" fill="#ffffff" opacity="0.13"/>
  <circle cx="664.7" cy="191.4" r="1.0" fill="#ffffff" opacity="0.19"/>
  <circle cx="167.5" cy="23.6" r="0.6" fill="#ffffff" opacity="0.21"/>
  <circle cx="332.7" cy="51.0" r="0.6" fill="#ffffff" opacity="0.15"/>
  <circle cx="810.0" cy="142.8" r="0.6" fill="#ffffff" opacity="0.13"/>
  <circle cx="21.8" cy="30.8" r="0.6" fill="#ffffff" opacity="0.15"/>
  <circle cx="489.0" cy="304.1" r="1.0" fill="#ffffff" opacity="0.21"/>
  <circle cx="664.3" cy="192.9" r="1.0" fill="#ffffff" opacity="0.22"/>
  <circle cx="30.5" cy="330.8" r="0.8" fill="#ffffff" opacity="0.19"/>
  <circle cx="249.8" cy="314.4" r="0.6" fill="#ffffff" opacity="0.13"/>
  <circle cx="461.3" cy="83.5" r="0.6" fill="#ffffff" opacity="0.18"/>
  <circle cx="254.2" cy="329.4" r="1.0" fill="#ffffff" opacity="0.24"/>
  <circle cx="734.3" cy="277.6" r="0.8" fill="#ffffff" opacity="0.17"/>
  <circle cx="452.6" cy="203.5" r="0.8" fill="#ffffff" opacity="0.20"/>
  <circle cx="252.3" cy="94.4" r="0.8" fill="#ffffff" opacity="0.14"/>
  <text x="16" y="57.6" fill="#334155" font-size="11">Mon</text>
  <text x="16" y="104.7" fill="#334155" font-size="11">Tue</text>
  <text x="16" y="151.9" fill="#334155" font-size="11">Wed</text>
  <text x="16" y="199.0" fill="#334155" font-size="11">Thu</text>
  <text x="16" y="246.1" fill="#334155" font-size="11">Fri</text>
  <text x="16" y="293.3" fill="#334155" font-size="11">Sat</text>
  <text x="16" y="340.4" fill="#334155" font-size="11">Sun</text>
  <circle cx="359.2" cy="298.0" r="2.0" fill="#f0b7c8" opacity="0.51"/>
  <circle cx="224.2" cy="250.9" r="2.0" fill="#dbeafe" opacity="0.51"/>
  <circle cx="223.1" cy="240.1" r="2.0" fill="#dbeafe" opacity="0.51"/>
  <circle cx="222.0" cy="231.9" r="2.0" fill="#dbeafe" opacity="0.51"/>
  <circle cx="222.0" cy="255.6" r="2.0" fill="#dbeafe" opacity="0.51"/>
  <circle cx="221.4" cy="253.3" r="2.0" fill="#dbeafe" opacity="0.51"/>
  <circle cx="221.4" cy="254.9" r="2.0" fill="#dbeafe" opacity="0.51"/>
  <circle cx="192.2" cy="234.3" r="2.0" fill="#dbeafe" opacity="0.51"/>
  <circle cx="584.2" cy="140.5" r="2.0" fill="#dbeafe" opacity="0.51"/>
  <circle cx="341.2" cy="139.9" r="2.0" fill="#dbeafe" opacity="0.51"/>
  <circle cx="463.9" cy="283.9" r="2.0" fill="#dbeafe" opacity="0.51"/>
  <circle cx="461.6" cy="286.3" r="2.0" fill="#dbeafe" opacity="0.51"/>
  <circle cx="461.6" cy="300.6" r="2.0" fill="#dbeafe" opacity="0.51"/>
  <circle cx="460.5" cy="295.6" r="2.0" fill="#dbeafe" opacity="0.51"/>
  <circle cx="459.9" cy="281.6" r="2.0" fill="#dbeafe" opacity="0.51"/>
  <circle cx="459.4" cy="278.8" r="2.0" fill="#dbeafe" opacity="0.51"/>
  <circle cx="458.2" cy="282.8" r="2.0" fill="#dbeafe" opacity="0.51"/>
  <text x="450.0" y="386" fill="#94a3b8" font-size="13" text-anchor="middle">the sky the moment you last shipped &#183; Jul 11, 2026 08:52 UTC</text>
  <text x="450.0" y="408" fill="#475569" font-size="11" text-anchor="middle">17 pushes charted &#183; x-axis = hour of day (UTC), y-axis = day of week</text>
</svg>