<svg xmlns="http://www.w3.org/2000/svg" viewBox="0 0 900 480" width="100%" role="img" aria-label="A tree grown from shre2201's GitHub activity">
  <style>text{font-family:"Courier New",Courier,monospace;}</style>
  <rect width="900" height="480" fill="#06161d"/>
  <line x1="40" y1="420" x2="860" y2="420" stroke="#1d2b37" stroke-width="2"/>
  <path d="M440.0 420 q-24 18 -50 14" stroke="#3a2b22" stroke-width="4" fill="none"/>
  <path d="M460.0 420 q24 18 50 14" stroke="#3a2b22" stroke-width="4" fill="none"/>
  <rect x="434.0" y="262" width="32" height="158" rx="10.7" fill="#4b3226"/>
  <path d="M450.0 285.7 Q407.1 260.6 342.3 235.5" stroke="#4b3226" stroke-width="5.3" fill="none" stroke-linecap="round"/>
  <path d="M450.0 285.7 Q425.6 237.4 371.7 189.0" stroke="#4b3226" stroke-width="5.3" fill="none" stroke-linecap="round"/>
  <path d="M450.0 285.7 Q445.6 227.8 423.3 169.9" stroke="#4b3226" stroke-width="5.3" fill="none" stroke-linecap="round"/>
  <path d="M450.0 285.7 Q483.1 220.4 480.1 155.2" stroke="#4b3226" stroke-width="5.3" fill="none" stroke-linecap="round"/>
  <path d="M450.0 285.7 Q472.6 240.4 523.3 195.2" stroke="#4b3226" stroke-width="5.3" fill="none" stroke-linecap="round"/>
  <path d="M450.0 285.7 Q509.9 260.2 559.4 234.7" stroke="#4b3226" stroke-width="5.3" fill="none" stroke-linecap="round"/>
  <circle cx="292.0" cy="195.7" r="3.4" fill="#f1e05a" opacity="0.74"/>
  <circle cx="391.6" cy="237.9" r="4.6" fill="#f1e05a" opacity="0.56"/>
  <circle cx="349.4" cy="222.0" r="4.5" fill="#f1e05a" opacity="0.87"/>
  <circle cx="360.9" cy="232.1" r="4.3" fill="#f1e05a" opacity="0.91"/>
  <circle cx="355.3" cy="194.0" r="3.3" fill="#f1e05a" opacity="0.55"/>
  <circle cx="326.3" cy="215.4" r="3.9" fill="#f1e05a" opacity="0.78"/>
  <circle cx="355.6" cy="238.9" r="2.9" fill="#f1e05a" opacity="0.57"/>
  <circle cx="350.0" cy="212.1" r="5.0" fill="#f1e05a" opacity="0.87"/>
  <circle cx="338.8" cy="157.5" r="3.7" fill="#3572A5" opacity="0.77"/>
  <circle cx="345.3" cy="156.3" r="3.1" fill="#3572A5" opacity="0.93"/>
  <circle cx="384.3" cy="168.3" r="4.7" fill="#3572A5" opacity="0.58"/>
  <circle cx="425.4" cy="202.3" r="4.3" fill="#3572A5" opacity="0.65"/>
  <circle cx="385.5" cy="193.3" r="4.5" fill="#3572A5" opacity="0.85"/>
  <circle cx="339.6" cy="159.1" r="5.0" fill="#3572A5" opacity="0.69"/>
  <circle cx="378.3" cy="152.6" r="4.8" fill="#3572A5" opacity="0.62"/>
  <circle cx="394.4" cy="186.0" r="3.1" fill="#3572A5" opacity="0.62"/>
  <circle cx="452.4" cy="164.2" r="4.4" fill="#3178c6" opacity="0.78"/>
  <circle cx="382.0" cy="129.1" r="4.2" fill="#3178c6" opacity="0.78"/>
  <circle cx="466.9" cy="178.2" r="4.2" fill="#3178c6" opacity="0.66"/>
  <circle cx="395.2" cy="166.4" r="3.4" fill="#3178c6" opacity="0.80"/>
  <circle cx="396.9" cy="210.2" r="3.2" fill="#3178c6" opacity="0.74"/>
  <circle cx="423.7" cy="206.5" r="3.8" fill="#3178c6" opacity="0.72"/>
  <circle cx="381.9" cy="210.5" r="4.0" fill="#3178c6" opacity="0.71"/>
  <circle cx="397.2" cy="190.5" r="4.1" fill="#3178c6" opacity="0.73"/>
  <circle cx="506.9" cy="195.5" r="3.5" fill="#3572A5" opacity="0.81"/>
  <circle cx="506.7" cy="157.3" r="2.5" fill="#3572A5" opacity="0.87"/>
  <circle cx="479.6" cy="160.2" r="2.8" fill="#3572A5" opacity="0.94"/>
  <circle cx="496.4" cy="194.0" r="3.6" fill="#3572A5" opacity="0.74"/>
  <circle cx="522.7" cy="177.7" r="2.6" fill="#3572A5" opacity="0.78"/>
  <circle cx="439.5" cy="113.7" r="3.1" fill="#3572A5" opacity="0.73"/>
  <circle cx="492.4" cy="176.3" r="2.9" fill="#3572A5" opacity="0.86"/>
  <circle cx="515.8" cy="156.7" r="3.0" fill="#3572A5" opacity="0.74"/>
  <circle cx="573.8" cy="202.1" r="3.6" fill="#e34c26" opacity="0.55"/>
  <circle cx="549.0" cy="181.7" r="3.5" fill="#e34c26" opacity="0.73"/>
  <circle cx="556.0" cy="172.2" r="3.7" fill="#e34c26" opacity="0.67"/>
  <circle cx="546.3" cy="196.3" r="4.2" fill="#e34c26" opacity="0.69"/>
  <circle cx="480.8" cy="215.2" r="4.3" fill="#e34c26" opacity="0.62"/>
  <circle cx="506.7" cy="184.7" r="3.4" fill="#e34c26" opacity="0.85"/>
  <circle cx="473.7" cy="178.6" r="2.6" fill="#e34c26" opacity="0.63"/>
  <circle cx="563.3" cy="167.2" r="3.1" fill="#e34c26" opacity="0.65"/>
  <circle cx="543.1" cy="240.7" r="4.4" fill="#3572A5" opacity="0.64"/>
  <circle cx="510.0" cy="235.3" r="4.9" fill="#3572A5" opacity="0.69"/>
  <circle cx="534.7" cy="276.2" r="4.1" fill="#3572A5" opacity="0.79"/>
  <circle cx="520.0" cy="276.0" r="4.9" fill="#3572A5" opacity="0.90"/>
  <circle cx="605.1" cy="276.7" r="4.3" fill="#3572A5" opacity="0.92"/>
  <circle cx="554.5" cy="234.2" r="4.9" fill="#3572A5" opacity="0.91"/>
  <circle cx="518.6" cy="206.7" r="2.7" fill="#3572A5" opacity="0.95"/>
  <circle cx="544.7" cy="240.5" r="4.1" fill="#3572A5" opacity="0.80"/>
  <text x="40" y="402" fill="#7dd3fc" font-size="13">$ git log --graph --all --decorate</text>
  <circle cx="40" cy="422" r="4" fill="#f1e05a"/>
  <text x="52" y="426" fill="#94a3b8" font-size="12">portfolio</text>
  <circle cx="250" cy="422" r="4" fill="#3572A5"/>
  <text x="262" y="426" fill="#94a3b8" font-size="12">shre2201</text>
  <circle cx="460" cy="422" r="4" fill="#3178c6"/>
  <text x="472" y="426" fill="#94a3b8" font-size="12">prijasskincare</text>
  <circle cx="670" cy="422" r="4" fill="#3572A5"/>
  <text x="682" y="426" fill="#94a3b8" font-size="12">solar-image-classification</text>
  <circle cx="40" cy="440" r="4" fill="#e34c26"/>
  <text x="52" y="444" fill="#94a3b8" font-size="12">rageclicker</text>
  <circle cx="250" cy="440" r="4" fill="#3572A5"/>
  <text x="262" y="444" fill="#94a3b8" font-size="12">BDA_IA2_Grp11</text>
  <text x="450.0" y="470" fill="#64748b" font-size="12" text-anchor="middle">3 year(s) active &#183; 6 repos &#183; 51 contributions this year</text>
</svg>