<?xml version="1.0" encoding="utf-8" standalone="no"?>
<!DOCTYPE svg PUBLIC "-//W3C//DTD SVG 1.1//EN"
  "http://www.w3.org/Graphics/SVG/1.1/DTD/svg11.dtd">
<svg xmlns:xlink="http://www.w3.org/1999/xlink" width="720pt" height="446.4pt" viewBox="0 0 720 446.4" xmlns="http://www.w3.org/2000/svg" version="1.1">
 <metadata>
  <rdf:RDF xmlns:dc="http://purl.org/dc/elements/1.1/" xmlns:cc="http://creativecommons.org/ns#" xmlns:rdf="http://www.w3.org/1999/02/22-rdf-syntax-ns#">
   <cc:Work>
    <dc:type rdf:resource="http://purl.org/dc/dcmitype/StillImage"/>
    <dc:date>2026-07-11T15:02:05.858548</dc:date>
    <dc:format>image/svg+xml</dc:format>
    <dc:creator>
     <cc:Agent>
      <dc:title>Matplotlib v3.11.0, https://matplotlib.org/</dc:title>
     </cc:Agent>
    </dc:creator>
   </cc:Work>
  </rdf:RDF>
 </metadata>
 <defs>
  <style type="text/css">*{stroke-linejoin: round; stroke-linecap: butt}</style>
 </defs>
 <g id="figure_1">
  <g id="patch_1">
   <path d="M 0 446.4 
L 720 446.4 
L 720 0 
L 0 0 
z
" style="fill: #06161d"/>
  </g>
  <g id="axes_1">
   <g id="patch_2">
    <path d="M 260.734155 86.218709 
C 252.81948 86.218709 244.986985 87.829602 237.714708 90.953071 
C 230.44243 94.07654 223.88139 98.647722 218.432024 104.387625 
C 212.982658 110.127529 208.758131 116.916955 206.016276 124.34153 
C 203.274421 131.766105 202.072177 139.671645 202.482921 147.575655 
C 202.893664 155.479665 204.908865 163.218005 208.405531 170.318386 
C 211.902197 177.418767 216.807713 183.733738 222.822684 188.87788 
C 228.837656 194.022022 235.837172 197.88851 243.394034 200.241361 
C 250.950897 202.594212 258.908176 203.384566 266.780219 202.564186 
L 260.734155 144.548544 
z
" style="fill: #084a91; stroke: #06161d; stroke-width: 1.5; stroke-linejoin: miter"/>
   </g>
   <g id="patch_3">
    <path d="M 266.780219 202.564186 
C 280.487841 201.135655 293.255295 194.894196 302.802216 184.954582 
C 312.349136 175.014968 318.071155 162.006425 318.946278 148.252379 
L 260.734155 144.548544 
z
" style="fill: #2070b4; stroke: #06161d; stroke-width: 1.5; stroke-linejoin: miter"/>
   </g>
   <g id="patch_4">
    <path d="M 318.946278 148.252379 
C 319.42143 140.78454 318.455138 133.294559 316.100216 126.191831 
C 313.745295 119.089103 310.045446 112.505438 305.202899 106.800691 
L 260.734155 144.548544 
z
" style="fill: #4a98c9; stroke: #06161d; stroke-width: 1.5; stroke-linejoin: miter"/>
   </g>
   <g id="patch_5">
    <path d="M 305.202899 106.800691 
C 301.685721 102.65729 297.606644 99.02572 293.084176 96.011488 
C 288.561708 92.997256 283.640072 90.629837 278.462256 88.978011 
L 260.734155 144.548544 
z
" style="fill: #7fb9da; stroke: #06161d; stroke-width: 1.5; stroke-linejoin: miter"/>
   </g>
   <g id="patch_6">
    <path d="M 278.462256 88.978011 
C 275.60068 88.065112 272.672861 87.374608 269.704931 86.912662 
C 266.737002 86.450717 263.737819 86.218709 260.734155 86.218709 
L 260.734155 144.548544 
z
" style="fill: #b7d4ea; stroke: #06161d; stroke-width: 1.5; stroke-linejoin: miter"/>
   </g>
   <g id="matplotlib.axis_1"/>
   <g id="matplotlib.axis_2"/>
   <g id="text_1">
    <!-- 52% -->
    <g style="fill: #06161d" transform="translate(210.724401 148.637236) scale(0.07 -0.07)">
     <defs>
      <path id="DejaVuSansMono-Bold-18" d="M 603 4666 
L 3138 4666 
L 3138 3853 
L 1350 3853 
L 1350 2988 
Q 1463 3031 1591 3051 
Q 1719 3072 1863 3072 
Q 2556 3072 2987 2634 
Q 3419 2197 3419 1497 
Q 3419 763 2951 336 
Q 2484 -91 1678 -91 
Q 1378 -91 1072 -41 
Q 766 9 447 109 
L 447 941 
Q 706 813 979 748 
Q 1253 684 1528 684 
Q 2016 684 2269 892 
Q 2522 1100 2522 1497 
Q 2522 1863 2270 2083 
Q 2019 2303 1600 2303 
Q 1353 2303 1104 2242 
Q 856 2181 603 2059 
L 603 4666 
z
" transform="scale(0.015625)"/>
      <path id="DejaVuSansMono-Bold-15" d="M 1356 813 
L 3322 813 
L 3322 0 
L 359 0 
L 359 788 
L 859 1319 
Q 1750 2266 1941 2484 
Q 2175 2753 2278 2961 
Q 2381 3169 2381 3372 
Q 2381 3684 2192 3854 
Q 2003 4025 1656 4025 
Q 1409 4025 1101 3926 
Q 794 3828 459 3641 
L 459 4500 
Q 794 4622 1114 4686 
Q 1434 4750 1728 4750 
Q 2469 4750 2892 4404 
Q 3316 4059 3316 3463 
Q 3316 3188 3223 2947 
Q 3131 2706 2906 2413 
Q 2741 2200 1997 1456 
Q 1594 1053 1356 813 
z
" transform="scale(0.015625)"/>
      <path id="DejaVuSansMono-Bold-8" d="M 103 3475 
Q 103 3894 393 4184 
Q 684 4475 1100 4475 
Q 1516 4475 1808 4183 
Q 2100 3891 2100 3475 
Q 2100 3059 1808 2768 
Q 1516 2478 1100 2478 
Q 684 2478 393 2767 
Q 103 3056 103 3475 
z
M 1100 3903 
Q 922 3903 797 3779 
Q 672 3656 672 3475 
Q 672 3294 797 3170 
Q 922 3047 1100 3047 
Q 1281 3047 1404 3170 
Q 1528 3294 1528 3475 
Q 1528 3653 1403 3778 
Q 1278 3903 1100 3903 
z
M 269 1753 
L 3525 3059 
L 3653 2759 
L 378 1453 
L 269 1753 
z
M 1813 997 
Q 1813 1416 2102 1706 
Q 2391 1997 2809 1997 
Q 3222 1997 3515 1705 
Q 3809 1413 3809 997 
Q 3809 584 3515 292 
Q 3222 0 2809 0 
Q 2391 0 2102 289 
Q 1813 578 1813 997 
z
M 2803 1428 
Q 2628 1428 2504 1303 
Q 2381 1178 2381 997 
Q 2381 816 2503 692 
Q 2625 569 2803 569 
Q 2984 569 3111 694 
Q 3238 819 3238 997 
Q 3238 1175 3109 1301 
Q 2981 1428 2803 1428 
z
" transform="scale(0.015625)"/>
     </defs>
     <use xlink:href="#DejaVuSansMono-Bold-18"/>
     <use xlink:href="#DejaVuSansMono-Bold-15" transform="translate(60.203125 0)"/>
     <use xlink:href="#DejaVuSansMono-Bold-8" transform="translate(120.40625 0)"/>
    </g>
   </g>
   <g id="text_2">
    <!-- 22% -->
    <g style="fill: #06161d" transform="translate(285.963872 176.671432) scale(0.07 -0.07)">
     <use xlink:href="#DejaVuSansMono-Bold-15"/>
     <use xlink:href="#DejaVuSansMono-Bold-15" transform="translate(60.203125 0)"/>
     <use xlink:href="#DejaVuSansMono-Bold-8" transform="translate(120.40625 0)"/>
    </g>
   </g>
   <g id="text_3">
    <!-- 12% -->
    <g style="fill: #06161d" transform="translate(295.937373 132.599369) scale(0.07 -0.07)">
     <defs>
      <path id="DejaVuSansMono-Bold-14" d="M 588 813 
L 1619 813 
L 1619 3841 
L 659 3603 
L 659 4434 
L 1625 4666 
L 2516 4666 
L 2516 813 
L 3547 813 
L 3547 0 
L 588 0 
L 588 813 
z
" transform="scale(0.015625)"/>
     </defs>
     <use xlink:href="#DejaVuSansMono-Bold-14"/>
     <use xlink:href="#DejaVuSansMono-Bold-15" transform="translate(60.203125 0)"/>
     <use xlink:href="#DejaVuSansMono-Bold-8" transform="translate(120.40625 0)"/>
    </g>
   </g>
   <g id="text_4">
    <!-- 9% -->
    <g style="fill: #06161d" transform="translate(280.782452 109.964111) scale(0.07 -0.07)">
     <defs>
      <path id="DejaVuSansMono-Bold-1c" d="M 634 63 
L 634 903 
Q 881 759 1107 690 
Q 1334 622 1544 622 
Q 2041 622 2302 955 
Q 2563 1288 2578 1950 
Q 2431 1747 2203 1645 
Q 1975 1544 1663 1544 
Q 1034 1544 690 1942 
Q 347 2341 347 3072 
Q 347 3853 731 4281 
Q 1116 4709 1819 4709 
Q 2672 4709 3058 4139 
Q 3444 3569 3444 2297 
Q 3444 1088 2972 483 
Q 2500 -122 1556 -122 
Q 1338 -122 1105 -75 
Q 872 -28 634 63 
z
M 1844 2316 
Q 2141 2316 2298 2533 
Q 2456 2750 2456 3163 
Q 2456 3572 2298 3789 
Q 2141 4006 1844 4006 
Q 1544 4006 1383 3789 
Q 1222 3572 1222 3163 
Q 1222 2753 1383 2534 
Q 1544 2316 1844 2316 
z
" transform="scale(0.015625)"/>
     </defs>
     <use xlink:href="#DejaVuSansMono-Bold-1c"/>
     <use xlink:href="#DejaVuSansMono-Bold-8" transform="translate(60.203125 0)"/>
    </g>
   </g>
   <g id="text_5">
    <!-- 5% -->
    <g style="fill: #06161d" transform="translate(263.248018 103.139992) scale(0.07 -0.07)">
     <use xlink:href="#DejaVuSansMono-Bold-18"/>
     <use xlink:href="#DejaVuSansMono-Bold-8" transform="translate(60.203125 0)"/>
    </g>
   </g>
   <g id="text_6">
    <!-- language distribution (bytes) -->
    <g style="fill: #dbeafe" transform="translate(187.821861 63.63625) scale(0.1 -0.1)">
     <defs>
      <path id="DejaVuSansMono-4f" d="M 1997 1269 
Q 1997 881 2139 684 
Q 2281 488 2559 488 
L 3231 488 
L 3231 0 
L 2503 0 
Q 1988 0 1705 331 
Q 1422 663 1422 1269 
L 1422 4447 
L 500 4447 
L 500 4897 
L 1997 4897 
L 1997 1269 
z
" transform="scale(0.015625)"/>
      <path id="DejaVuSansMono-44" d="M 2194 1759 
L 2003 1759 
Q 1500 1759 1245 1582 
Q 991 1406 991 1056 
Q 991 741 1181 566 
Q 1372 391 1709 391 
Q 2184 391 2456 720 
Q 2728 1050 2731 1631 
L 2731 1759 
L 2194 1759 
z
M 3309 1997 
L 3309 0 
L 2731 0 
L 2731 519 
Q 2547 206 2267 57 
Q 1988 -91 1588 -91 
Q 1053 -91 734 211 
Q 416 513 416 1019 
Q 416 1603 808 1906 
Q 1200 2209 1959 2209 
L 2731 2209 
L 2731 2300 
Q 2728 2719 2518 2908 
Q 2309 3097 1850 3097 
Q 1556 3097 1256 3012 
Q 956 2928 672 2766 
L 672 3341 
Q 991 3463 1283 3523 
Q 1575 3584 1850 3584 
Q 2284 3584 2592 3456 
Q 2900 3328 3091 3072 
Q 3209 2916 3259 2686 
Q 3309 2456 3309 1997 
z
" transform="scale(0.015625)"/>
      <path id="DejaVuSansMono-51" d="M 3284 2169 
L 3284 0 
L 2706 0 
L 2706 2169 
Q 2706 2641 2540 2862 
Q 2375 3084 2022 3084 
Q 1619 3084 1401 2798 
Q 1184 2513 1184 1978 
L 1184 0 
L 609 0 
L 609 3500 
L 1184 3500 
L 1184 2975 
Q 1338 3275 1600 3429 
Q 1863 3584 2222 3584 
Q 2756 3584 3020 3232 
Q 3284 2881 3284 2169 
z
" transform="scale(0.015625)"/>
      <path id="DejaVuSansMono-4a" d="M 2681 1778 
Q 2681 2425 2470 2761 
Q 2259 3097 1856 3097 
Q 1434 3097 1212 2761 
Q 991 2425 991 1778 
Q 991 1131 1214 792 
Q 1438 453 1863 453 
Q 2259 453 2470 793 
Q 2681 1134 2681 1778 
z
M 3256 225 
Q 3256 -563 2884 -969 
Q 2513 -1375 1791 -1375 
Q 1553 -1375 1293 -1331 
Q 1034 -1288 775 -1203 
L 775 -634 
Q 1081 -778 1331 -847 
Q 1581 -916 1791 -916 
Q 2256 -916 2468 -662 
Q 2681 -409 2681 141 
L 2681 166 
L 2681 556 
Q 2544 263 2306 119 
Q 2069 -25 1728 -25 
Q 1116 -25 750 465 
Q 384 956 384 1778 
Q 384 2603 750 3093 
Q 1116 3584 1728 3584 
Q 2066 3584 2300 3450 
Q 2534 3316 2681 3034 
L 2681 3488 
L 3256 3488 
L 3256 225 
z
" transform="scale(0.015625)"/>
      <path id="DejaVuSansMono-58" d="M 609 1325 
L 609 3494 
L 1184 3494 
L 1184 1325 
Q 1184 853 1351 631 
Q 1519 409 1869 409 
Q 2275 409 2490 695 
Q 2706 981 2706 1516 
L 2706 3494 
L 3284 3494 
L 3284 0 
L 2706 0 
L 2706 525 
Q 2553 222 2289 65 
Q 2025 -91 1672 -91 
Q 1134 -91 871 261 
Q 609 613 609 1325 
z
" transform="scale(0.015625)"/>
      <path id="DejaVuSansMono-48" d="M 3475 1894 
L 3475 1613 
L 984 1613 
L 984 1594 
Q 984 1022 1282 709 
Q 1581 397 2125 397 
Q 2400 397 2700 484 
Q 3000 572 3341 750 
L 3341 178 
Q 3013 44 2708 -23 
Q 2403 -91 2119 -91 
Q 1303 -91 843 398 
Q 384 888 384 1747 
Q 384 2584 834 3084 
Q 1284 3584 2034 3584 
Q 2703 3584 3089 3131 
Q 3475 2678 3475 1894 
z
M 2900 2063 
Q 2888 2569 2661 2833 
Q 2434 3097 2009 3097 
Q 1594 3097 1325 2822 
Q 1056 2547 1006 2059 
L 2900 2063 
z
" transform="scale(0.015625)"/>
      <path id="DejaVuSansMono-3" transform="scale(0.015625)"/>
      <path id="DejaVuSansMono-47" d="M 2681 3053 
L 2681 4863 
L 3256 4863 
L 3256 0 
L 2681 0 
L 2681 441 
Q 2538 181 2298 45 
Q 2059 -91 1747 -91 
Q 1113 -91 748 401 
Q 384 894 384 1759 
Q 384 2613 750 3098 
Q 1116 3584 1747 3584 
Q 2063 3584 2303 3448 
Q 2544 3313 2681 3053 
z
M 991 1747 
Q 991 1078 1203 737 
Q 1416 397 1831 397 
Q 2247 397 2464 740 
Q 2681 1084 2681 1747 
Q 2681 2413 2464 2755 
Q 2247 3097 1831 3097 
Q 1416 3097 1203 2756 
Q 991 2416 991 1747 
z
" transform="scale(0.015625)"/>
      <path id="DejaVuSansMono-4c" d="M 800 3500 
L 2272 3500 
L 2272 447 
L 3413 447 
L 3413 0 
L 556 0 
L 556 447 
L 1697 447 
L 1697 3053 
L 800 3053 
L 800 3500 
z
M 1697 4863 
L 2272 4863 
L 2272 4134 
L 1697 4134 
L 1697 4863 
z
" transform="scale(0.015625)"/>
      <path id="DejaVuSansMono-56" d="M 3041 3378 
L 3041 2816 
Q 2794 2959 2544 3031 
Q 2294 3103 2034 3103 
Q 1644 3103 1451 2976 
Q 1259 2850 1259 2591 
Q 1259 2356 1403 2240 
Q 1547 2125 2119 2016 
L 2350 1972 
Q 2778 1891 2998 1647 
Q 3219 1403 3219 1013 
Q 3219 494 2850 201 
Q 2481 -91 1825 -91 
Q 1566 -91 1281 -36 
Q 997 19 666 128 
L 666 722 
Q 988 556 1281 473 
Q 1575 391 1838 391 
Q 2219 391 2428 545 
Q 2638 700 2638 978 
Q 2638 1378 1872 1531 
L 1847 1538 
L 1631 1581 
Q 1134 1678 906 1908 
Q 678 2138 678 2534 
Q 678 3038 1018 3311 
Q 1359 3584 1991 3584 
Q 2272 3584 2531 3532 
Q 2791 3481 3041 3378 
z
" transform="scale(0.015625)"/>
      <path id="DejaVuSansMono-57" d="M 1919 4494 
L 1919 3500 
L 3225 3500 
L 3225 3053 
L 1919 3053 
L 1919 1153 
Q 1919 766 2066 612 
Q 2213 459 2578 459 
L 3225 459 
L 3225 0 
L 2522 0 
Q 1875 0 1609 259 
Q 1344 519 1344 1153 
L 1344 3053 
L 409 3053 
L 409 3500 
L 1344 3500 
L 1344 4494 
L 1919 4494 
z
" transform="scale(0.015625)"/>
      <path id="DejaVuSansMono-55" d="M 3609 2778 
Q 3425 2922 3234 2987 
Q 3044 3053 2816 3053 
Q 2278 3053 1993 2715 
Q 1709 2378 1709 1741 
L 1709 0 
L 1131 0 
L 1131 3500 
L 1709 3500 
L 1709 2816 
Q 1853 3188 2151 3386 
Q 2450 3584 2859 3584 
Q 3072 3584 3256 3531 
Q 3441 3478 3609 3366 
L 3609 2778 
z
" transform="scale(0.015625)"/>
      <path id="DejaVuSansMono-45" d="M 2869 1747 
Q 2869 2416 2656 2756 
Q 2444 3097 2028 3097 
Q 1609 3097 1393 2755 
Q 1178 2413 1178 1747 
Q 1178 1084 1393 740 
Q 1609 397 2028 397 
Q 2444 397 2656 737 
Q 2869 1078 2869 1747 
z
M 1178 3053 
Q 1316 3309 1558 3446 
Q 1800 3584 2119 3584 
Q 2750 3584 3112 3098 
Q 3475 2613 3475 1759 
Q 3475 894 3111 401 
Q 2747 -91 2113 -91 
Q 1800 -91 1561 45 
Q 1322 181 1178 441 
L 1178 0 
L 603 0 
L 603 4863 
L 1178 4863 
L 1178 3053 
z
" transform="scale(0.015625)"/>
      <path id="DejaVuSansMono-52" d="M 1925 3097 
Q 1488 3097 1263 2756 
Q 1038 2416 1038 1747 
Q 1038 1081 1263 739 
Q 1488 397 1925 397 
Q 2366 397 2591 739 
Q 2816 1081 2816 1747 
Q 2816 2416 2591 2756 
Q 2366 3097 1925 3097 
z
M 1925 3584 
Q 2653 3584 3039 3112 
Q 3425 2641 3425 1747 
Q 3425 850 3040 379 
Q 2656 -91 1925 -91 
Q 1197 -91 812 379 
Q 428 850 428 1747 
Q 428 2641 812 3112 
Q 1197 3584 1925 3584 
z
" transform="scale(0.015625)"/>
      <path id="DejaVuSansMono-b" d="M 2766 4856 
Q 2350 4144 2145 3436 
Q 1941 2728 1941 2009 
Q 1941 1294 2145 584 
Q 2350 -125 2766 -844 
L 2266 -844 
Q 1794 -100 1562 604 
Q 1331 1309 1331 2009 
Q 1331 2706 1562 3412 
Q 1794 4119 2266 4856 
L 2766 4856 
z
" transform="scale(0.015625)"/>
      <path id="DejaVuSansMono-5c" d="M 2681 1125 
Q 2538 759 2316 163 
Q 2006 -663 1900 -844 
Q 1756 -1088 1540 -1209 
Q 1325 -1331 1038 -1331 
L 575 -1331 
L 575 -850 
L 916 -850 
Q 1169 -850 1312 -703 
Q 1456 -556 1678 56 
L 325 3500 
L 934 3500 
L 1972 763 
L 2994 3500 
L 3603 3500 
L 2681 1125 
z
" transform="scale(0.015625)"/>
      <path id="DejaVuSansMono-c" d="M 1088 4856 
L 1588 4856 
Q 2059 4119 2290 3412 
Q 2522 2706 2522 2009 
Q 2522 1306 2290 600 
Q 2059 -106 1588 -844 
L 1088 -844 
Q 1503 -119 1708 590 
Q 1913 1300 1913 2009 
Q 1913 2722 1708 3431 
Q 1503 4141 1088 4856 
z
" transform="scale(0.015625)"/>
     </defs>
     <use xlink:href="#DejaVuSansMono-4f"/>
     <use xlink:href="#DejaVuSansMono-44" transform="translate(60.203125 0)"/>
     <use xlink:href="#DejaVuSansMono-51" transform="translate(120.40625 0)"/>
     <use xlink:href="#DejaVuSansMono-4a" transform="translate(180.609375 0)"/>
     <use xlink:href="#DejaVuSansMono-58" transform="translate(240.8125 0)"/>
     <use xlink:href="#DejaVuSansMono-44" transform="translate(301.015625 0)"/>
     <use xlink:href="#DejaVuSansMono-4a" transform="translate(361.21875 0)"/>
     <use xlink:href="#DejaVuSansMono-48" transform="translate(421.421875 0)"/>
     <use xlink:href="#DejaVuSansMono-3" transform="translate(481.625 0)"/>
     <use xlink:href="#DejaVuSansMono-47" transform="translate(541.828125 0)"/>
     <use xlink:href="#DejaVuSansMono-4c" transform="translate(602.03125 0)"/>
     <use xlink:href="#DejaVuSansMono-56" transform="translate(662.234375 0)"/>
     <use xlink:href="#DejaVuSansMono-57" transform="translate(722.4375 0)"/>
     <use xlink:href="#DejaVuSansMono-55" transform="translate(782.640625 0)"/>
     <use xlink:href="#DejaVuSansMono-4c" transform="translate(842.84375 0)"/>
     <use xlink:href="#DejaVuSansMono-45" transform="translate(903.046875 0)"/>
     <use xlink:href="#DejaVuSansMono-58" transform="translate(963.25 0)"/>
     <use xlink:href="#DejaVuSansMono-57" transform="translate(1023.453125 0)"/>
     <use xlink:href="#DejaVuSansMono-4c" transform="translate(1083.65625 0)"/>
     <use xlink:href="#DejaVuSansMono-52" transform="translate(1143.859375 0)"/>
     <use xlink:href="#DejaVuSansMono-51" transform="translate(1204.0625 0)"/>
     <use xlink:href="#DejaVuSansMono-3" transform="translate(1264.265625 0)"/>
     <use xlink:href="#DejaVuSansMono-b" transform="translate(1324.46875 0)"/>
     <use xlink:href="#DejaVuSansMono-45" transform="translate(1384.671875 0)"/>
     <use xlink:href="#DejaVuSansMono-5c" transform="translate(1444.875 0)"/>
     <use xlink:href="#DejaVuSansMono-57" transform="translate(1505.078125 0)"/>
     <use xlink:href="#DejaVuSansMono-48" transform="translate(1565.28125 0)"/>
     <use xlink:href="#DejaVuSansMono-56" transform="translate(1625.484375 0)"/>
     <use xlink:href="#DejaVuSansMono-c" transform="translate(1685.6875 0)"/>
    </g>
   </g>
   <g id="legend_1">
    <g id="patch_7">
     <path d="M 339.946449 125.310302 
L 353.946449 125.310302 
L 353.946449 120.410302 
L 339.946449 120.410302 
z
" style="fill: #084a91; stroke: #06161d; stroke-width: 1.5; stroke-linejoin: miter"/>
    </g>
    <g id="text_7">
     <!-- TypeScript -->
     <g style="fill: #94a3b8" transform="translate(359.546449 125.310302) scale(0.07 -0.07)">
      <defs>
       <path id="DejaVuSansMono-37" d="M 147 4666 
L 3706 4666 
L 3706 4134 
L 2247 4134 
L 2247 0 
L 1613 0 
L 1613 4134 
L 147 4134 
L 147 4666 
z
" transform="scale(0.015625)"/>
       <path id="DejaVuSansMono-53" d="M 1172 441 
L 1172 -1331 
L 594 -1331 
L 594 3500 
L 1172 3500 
L 1172 3053 
Q 1316 3313 1555 3448 
Q 1794 3584 2106 3584 
Q 2741 3584 3102 3093 
Q 3463 2603 3463 1734 
Q 3463 881 3100 395 
Q 2738 -91 2106 -91 
Q 1788 -91 1548 45 
Q 1309 181 1172 441 
z
M 2859 1747 
Q 2859 2416 2648 2756 
Q 2438 3097 2022 3097 
Q 1603 3097 1387 2755 
Q 1172 2413 1172 1747 
Q 1172 1084 1387 740 
Q 1603 397 2022 397 
Q 2438 397 2648 737 
Q 2859 1078 2859 1747 
z
" transform="scale(0.015625)"/>
       <path id="DejaVuSansMono-36" d="M 3163 4506 
L 3163 3866 
Q 2875 4050 2586 4144 
Q 2297 4238 2003 4238 
Q 1556 4238 1297 4030 
Q 1038 3822 1038 3469 
Q 1038 3159 1208 2996 
Q 1378 2834 1844 2725 
L 2175 2650 
Q 2831 2497 3131 2169 
Q 3431 1841 3431 1275 
Q 3431 609 3018 259 
Q 2606 -91 1819 -91 
Q 1491 -91 1159 -20 
Q 828 50 494 191 
L 494 863 
Q 853 634 1173 528 
Q 1494 422 1819 422 
Q 2297 422 2562 636 
Q 2828 850 2828 1234 
Q 2828 1584 2645 1768 
Q 2463 1953 2009 2053 
L 1672 2131 
Q 1022 2278 728 2575 
Q 434 2872 434 3372 
Q 434 3997 854 4373 
Q 1275 4750 1972 4750 
Q 2241 4750 2537 4689 
Q 2834 4628 3163 4506 
z
" transform="scale(0.015625)"/>
       <path id="DejaVuSansMono-46" d="M 3316 178 
Q 3084 44 2839 -23 
Q 2594 -91 2338 -91 
Q 1525 -91 1067 396 
Q 609 884 609 1747 
Q 609 2609 1067 3096 
Q 1525 3584 2338 3584 
Q 2591 3584 2831 3518 
Q 3072 3453 3316 3316 
L 3316 2713 
Q 3088 2916 2858 3006 
Q 2628 3097 2338 3097 
Q 1797 3097 1506 2747 
Q 1216 2397 1216 1747 
Q 1216 1100 1508 748 
Q 1800 397 2338 397 
Q 2638 397 2875 489 
Q 3113 581 3316 775 
L 3316 178 
z
" transform="scale(0.015625)"/>
      </defs>
      <use xlink:href="#DejaVuSansMono-37"/>
      <use xlink:href="#DejaVuSansMono-5c" transform="translate(60.203125 0)"/>
      <use xlink:href="#DejaVuSansMono-53" transform="translate(120.40625 0)"/>
      <use xlink:href="#DejaVuSansMono-48" transform="translate(180.609375 0)"/>
      <use xlink:href="#DejaVuSansMono-36" transform="translate(240.8125 0)"/>
      <use xlink:href="#DejaVuSansMono-46" transform="translate(301.015625 0)"/>
      <use xlink:href="#DejaVuSansMono-55" transform="translate(361.21875 0)"/>
      <use xlink:href="#DejaVuSansMono-4c" transform="translate(421.421875 0)"/>
      <use xlink:href="#DejaVuSansMono-53" transform="translate(481.625 0)"/>
      <use xlink:href="#DejaVuSansMono-57" transform="translate(541.828125 0)"/>
     </g>
    </g>
    <g id="patch_8">
     <path d="M 339.946449 135.848036 
L 353.946449 135.848036 
L 353.946449 130.948036 
L 339.946449 130.948036 
z
" style="fill: #2070b4; stroke: #06161d; stroke-width: 1.5; stroke-linejoin: miter"/>
    </g>
    <g id="text_8">
     <!-- Python -->
     <g style="fill: #94a3b8" transform="translate(359.546449 135.848036) scale(0.07 -0.07)">
      <defs>
       <path id="DejaVuSansMono-33" d="M 1247 4147 
L 1247 2394 
L 1978 2394 
Q 2416 2394 2661 2625 
Q 2906 2856 2906 3272 
Q 2906 3688 2662 3917 
Q 2419 4147 1978 4147 
L 1247 4147 
z
M 616 4666 
L 1978 4666 
Q 2759 4666 3162 4311 
Q 3566 3956 3566 3272 
Q 3566 2581 3164 2228 
Q 2763 1875 1978 1875 
L 1247 1875 
L 1247 0 
L 616 0 
L 616 4666 
z
" transform="scale(0.015625)"/>
       <path id="DejaVuSansMono-4b" d="M 3284 2169 
L 3284 0 
L 2706 0 
L 2706 2169 
Q 2706 2641 2540 2862 
Q 2375 3084 2022 3084 
Q 1619 3084 1401 2798 
Q 1184 2513 1184 1978 
L 1184 0 
L 609 0 
L 609 4863 
L 1184 4863 
L 1184 2975 
Q 1338 3275 1600 3429 
Q 1863 3584 2222 3584 
Q 2756 3584 3020 3232 
Q 3284 2881 3284 2169 
z
" transform="scale(0.015625)"/>
      </defs>
      <use xlink:href="#DejaVuSansMono-33"/>
      <use xlink:href="#DejaVuSansMono-5c" transform="translate(60.203125 0)"/>
      <use xlink:href="#DejaVuSansMono-57" transform="translate(120.40625 0)"/>
      <use xlink:href="#DejaVuSansMono-4b" transform="translate(180.609375 0)"/>
      <use xlink:href="#DejaVuSansMono-52" transform="translate(240.8125 0)"/>
      <use xlink:href="#DejaVuSansMono-51" transform="translate(301.015625 0)"/>
     </g>
    </g>
    <g id="patch_9">
     <path d="M 339.946449 146.38577 
L 353.946449 146.38577 
L 353.946449 141.48577 
L 339.946449 141.48577 
z
" style="fill: #4a98c9; stroke: #06161d; stroke-width: 1.5; stroke-linejoin: miter"/>
    </g>
    <g id="text_9">
     <!-- JavaScript -->
     <g style="fill: #94a3b8" transform="translate(359.546449 146.38577) scale(0.07 -0.07)">
      <defs>
       <path id="DejaVuSansMono-2d" d="M 341 191 
L 341 928 
Q 625 675 928 548 
Q 1231 422 1556 422 
Q 2003 422 2179 655 
Q 2356 888 2356 1522 
L 2356 4134 
L 1166 4134 
L 1166 4666 
L 2988 4666 
L 2988 1522 
Q 2988 641 2658 275 
Q 2328 -91 1556 -91 
Q 1256 -91 959 -22 
Q 663 47 341 191 
z
" transform="scale(0.015625)"/>
       <path id="DejaVuSansMono-59" d="M 313 3500 
L 909 3500 
L 1925 563 
L 2944 3500 
L 3541 3500 
L 2297 0 
L 1556 0 
L 313 3500 
z
" transform="scale(0.015625)"/>
      </defs>
      <use xlink:href="#DejaVuSansMono-2d"/>
      <use xlink:href="#DejaVuSansMono-44" transform="translate(60.203125 0)"/>
      <use xlink:href="#DejaVuSansMono-59" transform="translate(120.40625 0)"/>
      <use xlink:href="#DejaVuSansMono-44" transform="translate(180.609375 0)"/>
      <use xlink:href="#DejaVuSansMono-36" transform="translate(240.8125 0)"/>
      <use xlink:href="#DejaVuSansMono-46" transform="translate(301.015625 0)"/>
      <use xlink:href="#DejaVuSansMono-55" transform="translate(361.21875 0)"/>
      <use xlink:href="#DejaVuSansMono-4c" transform="translate(421.421875 0)"/>
      <use xlink:href="#DejaVuSansMono-53" transform="translate(481.625 0)"/>
      <use xlink:href="#DejaVuSansMono-57" transform="translate(541.828125 0)"/>
     </g>
    </g>
    <g id="patch_10">
     <path d="M 339.946449 156.923505 
L 353.946449 156.923505 
L 353.946449 152.023505 
L 339.946449 152.023505 
z
" style="fill: #7fb9da; stroke: #06161d; stroke-width: 1.5; stroke-linejoin: miter"/>
    </g>
    <g id="text_10">
     <!-- HTML -->
     <g style="fill: #94a3b8" transform="translate(359.546449 156.923505) scale(0.07 -0.07)">
      <defs>
       <path id="DejaVuSansMono-2b" d="M 428 4666 
L 1063 4666 
L 1063 2753 
L 2791 2753 
L 2791 4666 
L 3425 4666 
L 3425 0 
L 2791 0 
L 2791 2222 
L 1063 2222 
L 1063 0 
L 428 0 
L 428 4666 
z
" transform="scale(0.015625)"/>
       <path id="DejaVuSansMono-30" d="M 269 4666 
L 1113 4666 
L 1919 2291 
L 2731 4666 
L 3578 4666 
L 3578 0 
L 2994 0 
L 2994 4122 
L 2163 1663 
L 1684 1663 
L 850 4122 
L 850 0 
L 269 0 
L 269 4666 
z
" transform="scale(0.015625)"/>
       <path id="DejaVuSansMono-2f" d="M 672 4666 
L 1306 4666 
L 1306 531 
L 3559 531 
L 3559 0 
L 672 0 
L 672 4666 
z
" transform="scale(0.015625)"/>
      </defs>
      <use xlink:href="#DejaVuSansMono-2b"/>
      <use xlink:href="#DejaVuSansMono-37" transform="translate(60.203125 0)"/>
      <use xlink:href="#DejaVuSansMono-30" transform="translate(120.40625 0)"/>
      <use xlink:href="#DejaVuSansMono-2f" transform="translate(180.609375 0)"/>
     </g>
    </g>
    <g id="patch_11">
     <path d="M 339.946449 167.461239 
L 353.946449 167.461239 
L 353.946449 162.561239 
L 339.946449 162.561239 
z
" style="fill: #b7d4ea; stroke: #06161d; stroke-width: 1.5; stroke-linejoin: miter"/>
    </g>
    <g id="text_11">
     <!-- CSS -->
     <g style="fill: #94a3b8" transform="translate(359.546449 167.461239) scale(0.07 -0.07)">
      <defs>
       <path id="DejaVuSansMono-26" d="M 3353 166 
Q 3113 38 2859 -26 
Q 2606 -91 2322 -91 
Q 1425 -91 929 543 
Q 434 1178 434 2328 
Q 434 3472 932 4111 
Q 1431 4750 2322 4750 
Q 2606 4750 2859 4686 
Q 3113 4622 3353 4494 
L 3353 3847 
Q 3122 4038 2856 4138 
Q 2591 4238 2322 4238 
Q 1706 4238 1400 3763 
Q 1094 3288 1094 2328 
Q 1094 1372 1400 897 
Q 1706 422 2322 422 
Q 2597 422 2861 522 
Q 3125 622 3353 813 
L 3353 166 
z
" transform="scale(0.015625)"/>
      </defs>
      <use xlink:href="#DejaVuSansMono-26"/>
      <use xlink:href="#DejaVuSansMono-36" transform="translate(60.203125 0)"/>
      <use xlink:href="#DejaVuSansMono-36" transform="translate(120.40625 0)"/>
     </g>
    </g>
   </g>
  </g>
  <g id="axes_2">
   <g id="patch_12">
    <path d="M 442.471065 217.460837 
L 709.2 217.460837 
L 709.2 71.63625 
L 442.471065 71.63625 
z
" style="fill: #0b1c26"/>
   </g>
   <g id="FillBetweenPolyCollection_1">
    <defs>
     <path id="m1ba434b70b" d="M 454.595108 -235.567553 
L 454.595108 -235.567553 
L 476.638821 -235.567553 
L 498.682535 -235.567553 
L 520.726249 -235.567553 
L 542.769962 -263.97494 
L 564.813676 -235.567553 
L 586.857389 -245.036682 
L 608.901103 -311.320585 
L 630.944817 -368.13536 
L 652.98853 -301.851456 
L 675.032244 -301.851456 
L 697.075958 -339.727973 
L 697.075958 -235.567553 
L 697.075958 -235.567553 
L 675.032244 -235.567553 
L 652.98853 -235.567553 
L 630.944817 -235.567553 
L 608.901103 -235.567553 
L 586.857389 -235.567553 
L 564.813676 -235.567553 
L 542.769962 -235.567553 
L 520.726249 -235.567553 
L 498.682535 -235.567553 
L 476.638821 -235.567553 
L 454.595108 -235.567553 
z
" style="stroke: #7dd3fc; stroke-opacity: 0.12"/>
    </defs>
    <g clip-path="url(#pabed3e8ef5)">
     <use xlink:href="#m1ba434b70b" x="0" y="446.4" style="fill: #7dd3fc; fill-opacity: 0.12; stroke: #7dd3fc; stroke-opacity: 0.12"/>
    </g>
   </g>
   <g id="matplotlib.axis_3">
    <g id="xtick_1">
     <g id="line2d_1">
      <path d="M 454.595108 217.460837 
L 454.595108 71.63625 
" clip-path="url(#pabed3e8ef5)" style="fill: none; stroke: #1d2b37; stroke-opacity: 0.6; stroke-width: 0.6; stroke-linecap: square"/>
     </g>
     <g id="line2d_2">
      <defs>
       <path id="m56ed45d1a5" d="M 0 0 
L 0 3.5 
" style="stroke: #94a3b8; stroke-width: 0.8"/>
      </defs>
      <g>
       <use xlink:href="#m56ed45d1a5" x="454.595108" y="217.460837" style="fill: #94a3b8; stroke: #94a3b8; stroke-width: 0.8"/>
      </g>
     </g>
     <g id="text_12">
      <!-- Aug -->
      <g style="fill: #94a3b8" transform="translate(451.411028 237.161193) rotate(-45) scale(0.07 -0.07)">
       <defs>
        <path id="DejaVuSansMono-24" d="M 1925 4109 
L 1259 1722 
L 2591 1722 
L 1925 4109 
z
M 1544 4666 
L 2309 4666 
L 3738 0 
L 3084 0 
L 2741 1216 
L 1106 1216 
L 769 0 
L 116 0 
L 1544 4666 
z
" transform="scale(0.015625)"/>
       </defs>
       <use xlink:href="#DejaVuSansMono-24"/>
       <use xlink:href="#DejaVuSansMono-58" transform="translate(60.203125 0)"/>
       <use xlink:href="#DejaVuSansMono-4a" transform="translate(120.40625 0)"/>
      </g>
     </g>
    </g>
    <g id="xtick_2">
     <g id="line2d_3">
      <path d="M 476.638821 217.460837 
L 476.638821 71.63625 
" clip-path="url(#pabed3e8ef5)" style="fill: none; stroke: #1d2b37; stroke-opacity: 0.6; stroke-width: 0.6; stroke-linecap: square"/>
     </g>
     <g id="line2d_4">
      <g>
       <use xlink:href="#m56ed45d1a5" x="476.638821" y="217.460837" style="fill: #94a3b8; stroke: #94a3b8; stroke-width: 0.8"/>
      </g>
     </g>
     <g id="text_13">
      <!-- Sep -->
      <g style="fill: #94a3b8" transform="translate(473.454742 237.161193) rotate(-45) scale(0.07 -0.07)">
       <use xlink:href="#DejaVuSansMono-36"/>
       <use xlink:href="#DejaVuSansMono-48" transform="translate(60.203125 0)"/>
       <use xlink:href="#DejaVuSansMono-53" transform="translate(120.40625 0)"/>
      </g>
     </g>
    </g>
    <g id="xtick_3">
     <g id="line2d_5">
      <path d="M 498.682535 217.460837 
L 498.682535 71.63625 
" clip-path="url(#pabed3e8ef5)" style="fill: none; stroke: #1d2b37; stroke-opacity: 0.6; stroke-width: 0.6; stroke-linecap: square"/>
     </g>
     <g id="line2d_6">
      <g>
       <use xlink:href="#m56ed45d1a5" x="498.682535" y="217.460837" style="fill: #94a3b8; stroke: #94a3b8; stroke-width: 0.8"/>
      </g>
     </g>
     <g id="text_14">
      <!-- Oct -->
      <g style="fill: #94a3b8" transform="translate(495.498455 237.161193) rotate(-45) scale(0.07 -0.07)">
       <defs>
        <path id="DejaVuSansMono-32" d="M 2828 2328 
Q 2828 3356 2617 3797 
Q 2406 4238 1925 4238 
Q 1447 4238 1236 3797 
Q 1025 3356 1025 2328 
Q 1025 1303 1236 862 
Q 1447 422 1925 422 
Q 2406 422 2617 861 
Q 2828 1300 2828 2328 
z
M 3488 2328 
Q 3488 1109 3102 509 
Q 2716 -91 1925 -91 
Q 1134 -91 750 506 
Q 366 1103 366 2328 
Q 366 3550 752 4150 
Q 1138 4750 1925 4750 
Q 2716 4750 3102 4150 
Q 3488 3550 3488 2328 
z
" transform="scale(0.015625)"/>
       </defs>
       <use xlink:href="#DejaVuSansMono-32"/>
       <use xlink:href="#DejaVuSansMono-46" transform="translate(60.203125 0)"/>
       <use xlink:href="#DejaVuSansMono-57" transform="translate(120.40625 0)"/>
      </g>
     </g>
    </g>
    <g id="xtick_4">
     <g id="line2d_7">
      <path d="M 520.726249 217.460837 
L 520.726249 71.63625 
" clip-path="url(#pabed3e8ef5)" style="fill: none; stroke: #1d2b37; stroke-opacity: 0.6; stroke-width: 0.6; stroke-linecap: square"/>
     </g>
     <g id="line2d_8">
      <g>
       <use xlink:href="#m56ed45d1a5" x="520.726249" y="217.460837" style="fill: #94a3b8; stroke: #94a3b8; stroke-width: 0.8"/>
      </g>
     </g>
     <g id="text_15">
      <!-- Nov -->
      <g style="fill: #94a3b8" transform="translate(517.542169 237.161193) rotate(-45) scale(0.07 -0.07)">
       <defs>
        <path id="DejaVuSansMono-31" d="M 434 4666 
L 1234 4666 
L 2809 825 
L 2809 4666 
L 3419 4666 
L 3419 0 
L 2619 0 
L 1044 3841 
L 1044 0 
L 434 0 
L 434 4666 
z
" transform="scale(0.015625)"/>
       </defs>
       <use xlink:href="#DejaVuSansMono-31"/>
       <use xlink:href="#DejaVuSansMono-52" transform="translate(60.203125 0)"/>
       <use xlink:href="#DejaVuSansMono-59" transform="translate(120.40625 0)"/>
      </g>
     </g>
    </g>
    <g id="xtick_5">
     <g id="line2d_9">
      <path d="M 542.769962 217.460837 
L 542.769962 71.63625 
" clip-path="url(#pabed3e8ef5)" style="fill: none; stroke: #1d2b37; stroke-opacity: 0.6; stroke-width: 0.6; stroke-linecap: square"/>
     </g>
     <g id="line2d_10">
      <g>
       <use xlink:href="#m56ed45d1a5" x="542.769962" y="217.460837" style="fill: #94a3b8; stroke: #94a3b8; stroke-width: 0.8"/>
      </g>
     </g>
     <g id="text_16">
      <!-- Dec -->
      <g style="fill: #94a3b8" transform="translate(539.585883 237.161193) rotate(-45) scale(0.07 -0.07)">
       <defs>
        <path id="DejaVuSansMono-27" d="M 1363 519 
Q 2159 519 2475 911 
Q 2791 1303 2791 2328 
Q 2791 3363 2477 3755 
Q 2163 4147 1363 4147 
L 1063 4147 
L 1063 519 
L 1363 519 
z
M 1375 4666 
Q 2444 4666 2950 4097 
Q 3456 3528 3456 2328 
Q 3456 1134 2950 567 
Q 2444 0 1375 0 
L 428 0 
L 428 4666 
L 1375 4666 
z
" transform="scale(0.015625)"/>
       </defs>
       <use xlink:href="#DejaVuSansMono-27"/>
       <use xlink:href="#DejaVuSansMono-48" transform="translate(60.203125 0)"/>
       <use xlink:href="#DejaVuSansMono-46" transform="translate(120.40625 0)"/>
      </g>
     </g>
    </g>
    <g id="xtick_6">
     <g id="line2d_11">
      <path d="M 564.813676 217.460837 
L 564.813676 71.63625 
" clip-path="url(#pabed3e8ef5)" style="fill: none; stroke: #1d2b37; stroke-opacity: 0.6; stroke-width: 0.6; stroke-linecap: square"/>
     </g>
     <g id="line2d_12">
      <g>
       <use xlink:href="#m56ed45d1a5" x="564.813676" y="217.460837" style="fill: #94a3b8; stroke: #94a3b8; stroke-width: 0.8"/>
      </g>
     </g>
     <g id="text_17">
      <!-- Jan -->
      <g style="fill: #94a3b8" transform="translate(561.629596 237.161193) rotate(-45) scale(0.07 -0.07)">
       <use xlink:href="#DejaVuSansMono-2d"/>
       <use xlink:href="#DejaVuSansMono-44" transform="translate(60.203125 0)"/>
       <use xlink:href="#DejaVuSansMono-51" transform="translate(120.40625 0)"/>
      </g>
     </g>
    </g>
    <g id="xtick_7">
     <g id="line2d_13">
      <path d="M 586.857389 217.460837 
L 586.857389 71.63625 
" clip-path="url(#pabed3e8ef5)" style="fill: none; stroke: #1d2b37; stroke-opacity: 0.6; stroke-width: 0.6; stroke-linecap: square"/>
     </g>
     <g id="line2d_14">
      <g>
       <use xlink:href="#m56ed45d1a5" x="586.857389" y="217.460837" style="fill: #94a3b8; stroke: #94a3b8; stroke-width: 0.8"/>
      </g>
     </g>
     <g id="text_18">
      <!-- Feb -->
      <g style="fill: #94a3b8" transform="translate(583.673503 237.16158) rotate(-45) scale(0.07 -0.07)">
       <defs>
        <path id="DejaVuSansMono-29" d="M 728 4666 
L 3475 4666 
L 3475 4134 
L 1363 4134 
L 1363 2759 
L 3278 2759 
L 3278 2228 
L 1363 2228 
L 1363 0 
L 728 0 
L 728 4666 
z
" transform="scale(0.015625)"/>
       </defs>
       <use xlink:href="#DejaVuSansMono-29"/>
       <use xlink:href="#DejaVuSansMono-48" transform="translate(60.203125 0)"/>
       <use xlink:href="#DejaVuSansMono-45" transform="translate(120.40625 0)"/>
      </g>
     </g>
    </g>
    <g id="xtick_8">
     <g id="line2d_15">
      <path d="M 608.901103 217.460837 
L 608.901103 71.63625 
" clip-path="url(#pabed3e8ef5)" style="fill: none; stroke: #1d2b37; stroke-opacity: 0.6; stroke-width: 0.6; stroke-linecap: square"/>
     </g>
     <g id="line2d_16">
      <g>
       <use xlink:href="#m56ed45d1a5" x="608.901103" y="217.460837" style="fill: #94a3b8; stroke: #94a3b8; stroke-width: 0.8"/>
      </g>
     </g>
     <g id="text_19">
      <!-- Mar -->
      <g style="fill: #94a3b8" transform="translate(605.717023 237.161193) rotate(-45) scale(0.07 -0.07)">
       <use xlink:href="#DejaVuSansMono-30"/>
       <use xlink:href="#DejaVuSansMono-44" transform="translate(60.203125 0)"/>
       <use xlink:href="#DejaVuSansMono-55" transform="translate(120.40625 0)"/>
      </g>
     </g>
    </g>
    <g id="xtick_9">
     <g id="line2d_17">
      <path d="M 630.944817 217.460837 
L 630.944817 71.63625 
" clip-path="url(#pabed3e8ef5)" style="fill: none; stroke: #1d2b37; stroke-opacity: 0.6; stroke-width: 0.6; stroke-linecap: square"/>
     </g>
     <g id="line2d_18">
      <g>
       <use xlink:href="#m56ed45d1a5" x="630.944817" y="217.460837" style="fill: #94a3b8; stroke: #94a3b8; stroke-width: 0.8"/>
      </g>
     </g>
     <g id="text_20">
      <!-- Apr -->
      <g style="fill: #94a3b8" transform="translate(627.760737 237.161193) rotate(-45) scale(0.07 -0.07)">
       <use xlink:href="#DejaVuSansMono-24"/>
       <use xlink:href="#DejaVuSansMono-53" transform="translate(60.203125 0)"/>
       <use xlink:href="#DejaVuSansMono-55" transform="translate(120.40625 0)"/>
      </g>
     </g>
    </g>
    <g id="xtick_10">
     <g id="line2d_19">
      <path d="M 652.98853 217.460837 
L 652.98853 71.63625 
" clip-path="url(#pabed3e8ef5)" style="fill: none; stroke: #1d2b37; stroke-opacity: 0.6; stroke-width: 0.6; stroke-linecap: square"/>
     </g>
     <g id="line2d_20">
      <g>
       <use xlink:href="#m56ed45d1a5" x="652.98853" y="217.460837" style="fill: #94a3b8; stroke: #94a3b8; stroke-width: 0.8"/>
      </g>
     </g>
     <g id="text_21">
      <!-- May -->
      <g style="fill: #94a3b8" transform="translate(649.804451 237.161193) rotate(-45) scale(0.07 -0.07)">
       <use xlink:href="#DejaVuSansMono-30"/>
       <use xlink:href="#DejaVuSansMono-44" transform="translate(60.203125 0)"/>
       <use xlink:href="#DejaVuSansMono-5c" transform="translate(120.40625 0)"/>
      </g>
     </g>
    </g>
    <g id="xtick_11">
     <g id="line2d_21">
      <path d="M 675.032244 217.460837 
L 675.032244 71.63625 
" clip-path="url(#pabed3e8ef5)" style="fill: none; stroke: #1d2b37; stroke-opacity: 0.6; stroke-width: 0.6; stroke-linecap: square"/>
     </g>
     <g id="line2d_22">
      <g>
       <use xlink:href="#m56ed45d1a5" x="675.032244" y="217.460837" style="fill: #94a3b8; stroke: #94a3b8; stroke-width: 0.8"/>
      </g>
     </g>
     <g id="text_22">
      <!-- Jun -->
      <g style="fill: #94a3b8" transform="translate(671.848164 237.161193) rotate(-45) scale(0.07 -0.07)">
       <use xlink:href="#DejaVuSansMono-2d"/>
       <use xlink:href="#DejaVuSansMono-58" transform="translate(60.203125 0)"/>
       <use xlink:href="#DejaVuSansMono-51" transform="translate(120.40625 0)"/>
      </g>
     </g>
    </g>
    <g id="xtick_12">
     <g id="line2d_23">
      <path d="M 697.075958 217.460837 
L 697.075958 71.63625 
" clip-path="url(#pabed3e8ef5)" style="fill: none; stroke: #1d2b37; stroke-opacity: 0.6; stroke-width: 0.6; stroke-linecap: square"/>
     </g>
     <g id="line2d_24">
      <g>
       <use xlink:href="#m56ed45d1a5" x="697.075958" y="217.460837" style="fill: #94a3b8; stroke: #94a3b8; stroke-width: 0.8"/>
      </g>
     </g>
     <g id="text_23">
      <!-- Jul -->
      <g style="fill: #94a3b8" transform="translate(693.905219 237.187876) rotate(-45) scale(0.07 -0.07)">
       <use xlink:href="#DejaVuSansMono-2d"/>
       <use xlink:href="#DejaVuSansMono-58" transform="translate(60.203125 0)"/>
       <use xlink:href="#DejaVuSansMono-4f" transform="translate(120.40625 0)"/>
      </g>
     </g>
    </g>
   </g>
   <g id="matplotlib.axis_4">
    <g id="ytick_1">
     <g id="line2d_25">
      <path d="M 442.471065 210.832447 
L 709.2 210.832447 
" clip-path="url(#pabed3e8ef5)" style="fill: none; stroke: #1d2b37; stroke-opacity: 0.6; stroke-width: 0.6; stroke-linecap: square"/>
     </g>
     <g id="line2d_26">
      <defs>
       <path id="ma7b75a2962" d="M 0 0 
L -3.5 0 
" style="stroke: #94a3b8; stroke-width: 0.8"/>
      </defs>
      <g>
       <use xlink:href="#ma7b75a2962" x="442.471065" y="210.832447" style="fill: #94a3b8; stroke: #94a3b8; stroke-width: 0.8"/>
      </g>
     </g>
     <g id="text_24">
      <!-- 0 -->
      <g style="fill: #94a3b8" transform="translate(431.256847 213.491627) scale(0.07 -0.07)">
       <defs>
        <path id="DejaVuSansMono-13" d="M 1509 2344 
Q 1509 2516 1629 2641 
Q 1750 2766 1919 2766 
Q 2094 2766 2219 2641 
Q 2344 2516 2344 2344 
Q 2344 2169 2220 2047 
Q 2097 1925 1919 1925 
Q 1744 1925 1626 2044 
Q 1509 2163 1509 2344 
z
M 1925 4250 
Q 1484 4250 1267 3775 
Q 1050 3300 1050 2328 
Q 1050 1359 1267 884 
Q 1484 409 1925 409 
Q 2369 409 2586 884 
Q 2803 1359 2803 2328 
Q 2803 3300 2586 3775 
Q 2369 4250 1925 4250 
z
M 1925 4750 
Q 2672 4750 3055 4137 
Q 3438 3525 3438 2328 
Q 3438 1134 3055 521 
Q 2672 -91 1925 -91 
Q 1178 -91 797 521 
Q 416 1134 416 2328 
Q 416 3525 797 4137 
Q 1178 4750 1925 4750 
z
" transform="scale(0.015625)"/>
       </defs>
       <use xlink:href="#DejaVuSansMono-13"/>
      </g>
     </g>
    </g>
    <g id="ytick_2">
     <g id="line2d_27">
      <path d="M 442.471065 191.894189 
L 709.2 191.894189 
" clip-path="url(#pabed3e8ef5)" style="fill: none; stroke: #1d2b37; stroke-opacity: 0.6; stroke-width: 0.6; stroke-linecap: square"/>
     </g>
     <g id="line2d_28">
      <g>
       <use xlink:href="#ma7b75a2962" x="442.471065" y="191.894189" style="fill: #94a3b8; stroke: #94a3b8; stroke-width: 0.8"/>
      </g>
     </g>
     <g id="text_25">
      <!-- 2 -->
      <g style="fill: #94a3b8" transform="translate(431.256847 194.553369) scale(0.07 -0.07)">
       <defs>
        <path id="DejaVuSansMono-15" d="M 1166 531 
L 3309 531 
L 3309 0 
L 475 0 
L 475 531 
Q 1059 1147 1496 1619 
Q 1934 2091 2100 2284 
Q 2413 2666 2522 2902 
Q 2631 3138 2631 3384 
Q 2631 3775 2401 3997 
Q 2172 4219 1772 4219 
Q 1488 4219 1175 4116 
Q 863 4013 513 3803 
L 513 4441 
Q 834 4594 1145 4672 
Q 1456 4750 1759 4750 
Q 2444 4750 2861 4386 
Q 3278 4022 3278 3431 
Q 3278 3131 3139 2831 
Q 3000 2531 2688 2169 
Q 2513 1966 2180 1606 
Q 1847 1247 1166 531 
z
" transform="scale(0.015625)"/>
       </defs>
       <use xlink:href="#DejaVuSansMono-15"/>
      </g>
     </g>
    </g>
    <g id="ytick_3">
     <g id="line2d_29">
      <path d="M 442.471065 172.955931 
L 709.2 172.955931 
" clip-path="url(#pabed3e8ef5)" style="fill: none; stroke: #1d2b37; stroke-opacity: 0.6; stroke-width: 0.6; stroke-linecap: square"/>
     </g>
     <g id="line2d_30">
      <g>
       <use xlink:href="#ma7b75a2962" x="442.471065" y="172.955931" style="fill: #94a3b8; stroke: #94a3b8; stroke-width: 0.8"/>
      </g>
     </g>
     <g id="text_26">
      <!-- 4 -->
      <g style="fill: #94a3b8" transform="translate(431.256847 175.615111) scale(0.07 -0.07)">
       <defs>
        <path id="DejaVuSansMono-17" d="M 2297 4091 
L 825 1625 
L 2297 1625 
L 2297 4091 
z
M 2194 4666 
L 2925 4666 
L 2925 1625 
L 3547 1625 
L 3547 1113 
L 2925 1113 
L 2925 0 
L 2297 0 
L 2297 1113 
L 319 1113 
L 319 1709 
L 2194 4666 
z
" transform="scale(0.015625)"/>
       </defs>
       <use xlink:href="#DejaVuSansMono-17"/>
      </g>
     </g>
    </g>
    <g id="ytick_4">
     <g id="line2d_31">
      <path d="M 442.471065 154.017673 
L 709.2 154.017673 
" clip-path="url(#pabed3e8ef5)" style="fill: none; stroke: #1d2b37; stroke-opacity: 0.6; stroke-width: 0.6; stroke-linecap: square"/>
     </g>
     <g id="line2d_32">
      <g>
       <use xlink:href="#ma7b75a2962" x="442.471065" y="154.017673" style="fill: #94a3b8; stroke: #94a3b8; stroke-width: 0.8"/>
      </g>
     </g>
     <g id="text_27">
      <!-- 6 -->
      <g style="fill: #94a3b8" transform="translate(431.256847 156.676852) scale(0.07 -0.07)">
       <defs>
        <path id="DejaVuSansMono-19" d="M 3097 4563 
L 3097 3981 
Q 2900 4097 2678 4158 
Q 2456 4219 2216 4219 
Q 1616 4219 1306 3767 
Q 997 3316 997 2438 
Q 1147 2750 1412 2917 
Q 1678 3084 2022 3084 
Q 2697 3084 3067 2670 
Q 3438 2256 3438 1497 
Q 3438 741 3056 325 
Q 2675 -91 1984 -91 
Q 1172 -91 794 492 
Q 416 1075 416 2328 
Q 416 3509 870 4129 
Q 1325 4750 2188 4750 
Q 2419 4750 2650 4701 
Q 2881 4653 3097 4563 
z
M 1972 2591 
Q 1569 2591 1337 2300 
Q 1106 2009 1106 1497 
Q 1106 984 1337 693 
Q 1569 403 1972 403 
Q 2391 403 2603 679 
Q 2816 956 2816 1497 
Q 2816 2041 2603 2316 
Q 2391 2591 1972 2591 
z
" transform="scale(0.015625)"/>
       </defs>
       <use xlink:href="#DejaVuSansMono-19"/>
      </g>
     </g>
    </g>
    <g id="ytick_5">
     <g id="line2d_33">
      <path d="M 442.471065 135.079415 
L 709.2 135.079415 
" clip-path="url(#pabed3e8ef5)" style="fill: none; stroke: #1d2b37; stroke-opacity: 0.6; stroke-width: 0.6; stroke-linecap: square"/>
     </g>
     <g id="line2d_34">
      <g>
       <use xlink:href="#ma7b75a2962" x="442.471065" y="135.079415" style="fill: #94a3b8; stroke: #94a3b8; stroke-width: 0.8"/>
      </g>
     </g>
     <g id="text_28">
      <!-- 8 -->
      <g style="fill: #94a3b8" transform="translate(431.256847 137.738594) scale(0.07 -0.07)">
       <defs>
        <path id="DejaVuSansMono-1b" d="M 1925 2216 
Q 1503 2216 1273 1980 
Q 1044 1744 1044 1313 
Q 1044 881 1276 642 
Q 1509 403 1925 403 
Q 2350 403 2579 639 
Q 2809 875 2809 1313 
Q 2809 1741 2576 1978 
Q 2344 2216 1925 2216 
z
M 1375 2478 
Q 972 2581 745 2862 
Q 519 3144 519 3541 
Q 519 4097 897 4423 
Q 1275 4750 1925 4750 
Q 2578 4750 2956 4423 
Q 3334 4097 3334 3541 
Q 3334 3144 3107 2862 
Q 2881 2581 2478 2478 
Q 2947 2375 3195 2062 
Q 3444 1750 3444 1253 
Q 3444 622 3041 265 
Q 2638 -91 1925 -91 
Q 1213 -91 811 264 
Q 409 619 409 1247 
Q 409 1747 657 2061 
Q 906 2375 1375 2478 
z
M 1147 3481 
Q 1147 3106 1347 2909 
Q 1547 2713 1925 2713 
Q 2306 2713 2506 2909 
Q 2706 3106 2706 3481 
Q 2706 3863 2507 4063 
Q 2309 4263 1925 4263 
Q 1547 4263 1347 4061 
Q 1147 3859 1147 3481 
z
" transform="scale(0.015625)"/>
       </defs>
       <use xlink:href="#DejaVuSansMono-1b"/>
      </g>
     </g>
    </g>
    <g id="ytick_6">
     <g id="line2d_35">
      <path d="M 442.471065 116.141157 
L 709.2 116.141157 
" clip-path="url(#pabed3e8ef5)" style="fill: none; stroke: #1d2b37; stroke-opacity: 0.6; stroke-width: 0.6; stroke-linecap: square"/>
     </g>
     <g id="line2d_36">
      <g>
       <use xlink:href="#ma7b75a2962" x="442.471065" y="116.141157" style="fill: #94a3b8; stroke: #94a3b8; stroke-width: 0.8"/>
      </g>
     </g>
     <g id="text_29">
      <!-- 10 -->
      <g style="fill: #94a3b8" transform="translate(427.042628 118.800336) scale(0.07 -0.07)">
       <defs>
        <path id="DejaVuSansMono-14" d="M 844 531 
L 1825 531 
L 1825 4097 
L 769 3859 
L 769 4434 
L 1819 4666 
L 2450 4666 
L 2450 531 
L 3419 531 
L 3419 0 
L 844 0 
L 844 531 
z
" transform="scale(0.015625)"/>
       </defs>
       <use xlink:href="#DejaVuSansMono-14"/>
       <use xlink:href="#DejaVuSansMono-13" transform="translate(60.203125 0)"/>
      </g>
     </g>
    </g>
    <g id="ytick_7">
     <g id="line2d_37">
      <path d="M 442.471065 97.202898 
L 709.2 97.202898 
" clip-path="url(#pabed3e8ef5)" style="fill: none; stroke: #1d2b37; stroke-opacity: 0.6; stroke-width: 0.6; stroke-linecap: square"/>
     </g>
     <g id="line2d_38">
      <g>
       <use xlink:href="#ma7b75a2962" x="442.471065" y="97.202898" style="fill: #94a3b8; stroke: #94a3b8; stroke-width: 0.8"/>
      </g>
     </g>
     <g id="text_30">
      <!-- 12 -->
      <g style="fill: #94a3b8" transform="translate(427.042628 99.862078) scale(0.07 -0.07)">
       <use xlink:href="#DejaVuSansMono-14"/>
       <use xlink:href="#DejaVuSansMono-15" transform="translate(60.203125 0)"/>
      </g>
     </g>
    </g>
    <g id="ytick_8">
     <g id="line2d_39">
      <path d="M 442.471065 78.26464 
L 709.2 78.26464 
" clip-path="url(#pabed3e8ef5)" style="fill: none; stroke: #1d2b37; stroke-opacity: 0.6; stroke-width: 0.6; stroke-linecap: square"/>
     </g>
     <g id="line2d_40">
      <g>
       <use xlink:href="#ma7b75a2962" x="442.471065" y="78.26464" style="fill: #94a3b8; stroke: #94a3b8; stroke-width: 0.8"/>
      </g>
     </g>
     <g id="text_31">
      <!-- 14 -->
      <g style="fill: #94a3b8" transform="translate(427.042628 80.92382) scale(0.07 -0.07)">
       <use xlink:href="#DejaVuSansMono-14"/>
       <use xlink:href="#DejaVuSansMono-17" transform="translate(60.203125 0)"/>
      </g>
     </g>
    </g>
   </g>
   <g id="line2d_41">
    <path d="M 454.595108 210.832447 
L 476.638821 210.832447 
L 498.682535 210.832447 
L 520.726249 210.832447 
L 542.769962 182.42506 
L 564.813676 210.832447 
L 586.857389 201.363318 
L 608.901103 135.079415 
L 630.944817 78.26464 
L 652.98853 144.548544 
L 675.032244 144.548544 
L 697.075958 106.672027 
" clip-path="url(#pabed3e8ef5)" style="fill: none; stroke: #7dd3fc; stroke-width: 1.5; stroke-linecap: square"/>
    <defs>
     <path id="m14678f75e4" d="M 0 2 
C 0.530406 2 1.03916 1.789267 1.414214 1.414214 
C 1.789267 1.03916 2 0.530406 2 0 
C 2 -0.530406 1.789267 -1.03916 1.414214 -1.414214 
C 1.03916 -1.789267 0.530406 -2 0 -2 
C -0.530406 -2 -1.03916 -1.789267 -1.414214 -1.414214 
C -1.789267 -1.03916 -2 -0.530406 -2 0 
C -2 0.530406 -1.789267 1.03916 -1.414214 1.414214 
C -1.03916 1.789267 -0.530406 2 0 2 
z
" style="stroke: #7dd3fc"/>
    </defs>
    <g clip-path="url(#pabed3e8ef5)">
     <use xlink:href="#m14678f75e4" x="454.595108" y="210.832447" style="fill: #7dd3fc; stroke: #7dd3fc"/>
     <use xlink:href="#m14678f75e4" x="476.638821" y="210.832447" style="fill: #7dd3fc; stroke: #7dd3fc"/>
     <use xlink:href="#m14678f75e4" x="498.682535" y="210.832447" style="fill: #7dd3fc; stroke: #7dd3fc"/>
     <use xlink:href="#m14678f75e4" x="520.726249" y="210.832447" style="fill: #7dd3fc; stroke: #7dd3fc"/>
     <use xlink:href="#m14678f75e4" x="542.769962" y="182.42506" style="fill: #7dd3fc; stroke: #7dd3fc"/>
     <use xlink:href="#m14678f75e4" x="564.813676" y="210.832447" style="fill: #7dd3fc; stroke: #7dd3fc"/>
     <use xlink:href="#m14678f75e4" x="586.857389" y="201.363318" style="fill: #7dd3fc; stroke: #7dd3fc"/>
     <use xlink:href="#m14678f75e4" x="608.901103" y="135.079415" style="fill: #7dd3fc; stroke: #7dd3fc"/>
     <use xlink:href="#m14678f75e4" x="630.944817" y="78.26464" style="fill: #7dd3fc; stroke: #7dd3fc"/>
     <use xlink:href="#m14678f75e4" x="652.98853" y="144.548544" style="fill: #7dd3fc; stroke: #7dd3fc"/>
     <use xlink:href="#m14678f75e4" x="675.032244" y="144.548544" style="fill: #7dd3fc; stroke: #7dd3fc"/>
     <use xlink:href="#m14678f75e4" x="697.075958" y="106.672027" style="fill: #7dd3fc; stroke: #7dd3fc"/>
    </g>
   </g>
   <g id="patch_13">
    <path d="M 442.471065 217.460837 
L 442.471065 71.63625 
" style="fill: none; stroke: #1d2b37; stroke-width: 0.8; stroke-linejoin: miter; stroke-linecap: square"/>
   </g>
   <g id="patch_14">
    <path d="M 442.471065 217.460837 
L 709.2 217.460837 
" style="fill: none; stroke: #1d2b37; stroke-width: 0.8; stroke-linejoin: miter; stroke-linecap: square"/>
   </g>
   <g id="text_32">
    <!-- contributions per month (last 12mo) -->
    <g style="fill: #dbeafe" transform="translate(442.471065 63.63625) scale(0.1 -0.1)">
     <defs>
      <path id="DejaVuSansMono-50" d="M 2113 3144 
Q 2219 3369 2383 3476 
Q 2547 3584 2778 3584 
Q 3200 3584 3373 3257 
Q 3547 2931 3547 2028 
L 3547 0 
L 3022 0 
L 3022 2003 
Q 3022 2744 2939 2923 
Q 2856 3103 2638 3103 
Q 2388 3103 2295 2911 
Q 2203 2719 2203 2003 
L 2203 0 
L 1678 0 
L 1678 2003 
Q 1678 2753 1589 2928 
Q 1500 3103 1269 3103 
Q 1041 3103 952 2911 
Q 863 2719 863 2003 
L 863 0 
L 341 0 
L 341 3500 
L 863 3500 
L 863 3200 
Q 966 3388 1120 3486 
Q 1275 3584 1472 3584 
Q 1709 3584 1867 3475 
Q 2025 3366 2113 3144 
z
" transform="scale(0.015625)"/>
     </defs>
     <use xlink:href="#DejaVuSansMono-46"/>
     <use xlink:href="#DejaVuSansMono-52" transform="translate(60.203125 0)"/>
     <use xlink:href="#DejaVuSansMono-51" transform="translate(120.40625 0)"/>
     <use xlink:href="#DejaVuSansMono-57" transform="translate(180.609375 0)"/>
     <use xlink:href="#DejaVuSansMono-55" transform="translate(240.8125 0)"/>
     <use xlink:href="#DejaVuSansMono-4c" transform="translate(301.015625 0)"/>
     <use xlink:href="#DejaVuSansMono-45" transform="translate(361.21875 0)"/>
     <use xlink:href="#DejaVuSansMono-58" transform="translate(421.421875 0)"/>
     <use xlink:href="#DejaVuSansMono-57" transform="translate(481.625 0)"/>
     <use xlink:href="#DejaVuSansMono-4c" transform="translate(541.828125 0)"/>
     <use xlink:href="#DejaVuSansMono-52" transform="translate(602.03125 0)"/>
     <use xlink:href="#DejaVuSansMono-51" transform="translate(662.234375 0)"/>
     <use xlink:href="#DejaVuSansMono-56" transform="translate(722.4375 0)"/>
     <use xlink:href="#DejaVuSansMono-3" transform="translate(782.640625 0)"/>
     <use xlink:href="#DejaVuSansMono-53" transform="translate(842.84375 0)"/>
     <use xlink:href="#DejaVuSansMono-48" transform="translate(903.046875 0)"/>
     <use xlink:href="#DejaVuSansMono-55" transform="translate(963.25 0)"/>
     <use xlink:href="#DejaVuSansMono-3" transform="translate(1023.453125 0)"/>
     <use xlink:href="#DejaVuSansMono-50" transform="translate(1083.65625 0)"/>
     <use xlink:href="#DejaVuSansMono-52" transform="translate(1143.859375 0)"/>
     <use xlink:href="#DejaVuSansMono-51" transform="translate(1204.0625 0)"/>
     <use xlink:href="#DejaVuSansMono-57" transform="translate(1264.265625 0)"/>
     <use xlink:href="#DejaVuSansMono-4b" transform="translate(1324.46875 0)"/>
     <use xlink:href="#DejaVuSansMono-3" transform="translate(1384.671875 0)"/>
     <use xlink:href="#DejaVuSansMono-b" transform="translate(1444.875 0)"/>
     <use xlink:href="#DejaVuSansMono-4f" transform="translate(1505.078125 0)"/>
     <use xlink:href="#DejaVuSansMono-44" transform="translate(1565.28125 0)"/>
     <use xlink:href="#DejaVuSansMono-56" transform="translate(1625.484375 0)"/>
     <use xlink:href="#DejaVuSansMono-57" transform="translate(1685.6875 0)"/>
     <use xlink:href="#DejaVuSansMono-3" transform="translate(1745.890625 0)"/>
     <use xlink:href="#DejaVuSansMono-14" transform="translate(1806.09375 0)"/>
     <use xlink:href="#DejaVuSansMono-15" transform="translate(1866.296875 0)"/>
     <use xlink:href="#DejaVuSansMono-50" transform="translate(1926.5 0)"/>
     <use xlink:href="#DejaVuSansMono-52" transform="translate(1986.703125 0)"/>
     <use xlink:href="#DejaVuSansMono-c" transform="translate(2046.90625 0)"/>
    </g>
   </g>
  </g>
  <g id="axes_3">
   <g id="patch_15">
    <path d="M 127.369688 410.6 
L 394.098622 410.6 
L 394.098622 264.775413 
L 127.369688 264.775413 
z
" style="fill: #0b1c26"/>
   </g>
   <g id="patch_16">
    <path d="M 127.369688 403.97161 
L 127.394882 403.97161 
L 127.394882 390.834259 
L 127.369688 390.834259 
z
" clip-path="url(#p786276b0f6)" style="fill: #7dd3fc"/>
   </g>
   <g id="patch_17">
    <path d="M 127.369688 380.085518 
L 127.401455 380.085518 
L 127.401455 366.948168 
L 127.369688 366.948168 
z
" clip-path="url(#p786276b0f6)" style="fill: #7dd3fc"/>
   </g>
   <g id="patch_18">
    <path d="M 127.369688 356.199427 
L 127.412409 356.199427 
L 127.412409 343.062077 
L 127.369688 343.062077 
z
" clip-path="url(#p786276b0f6)" style="fill: #7dd3fc"/>
   </g>
   <g id="patch_19">
    <path d="M 127.369688 332.313336 
L 137.047668 332.313336 
L 137.047668 319.175986 
L 127.369688 319.175986 
z
" clip-path="url(#p786276b0f6)" style="fill: #7dd3fc"/>
   </g>
   <g id="patch_20">
    <path d="M 127.369688 308.427244 
L 147.744384 308.427244 
L 147.744384 295.289894 
L 127.369688 295.289894 
z
" clip-path="url(#p786276b0f6)" style="fill: #7dd3fc"/>
   </g>
   <g id="patch_21">
    <path d="M 127.369688 284.541153 
L 381.397244 284.541153 
L 381.397244 271.403803 
L 127.369688 271.403803 
z
" clip-path="url(#p786276b0f6)" style="fill: #7dd3fc"/>
   </g>
   <g id="matplotlib.axis_5">
    <g id="xtick_13">
     <g id="line2d_42">
      <path d="M 127.369688 410.6 
L 127.369688 264.775413 
" clip-path="url(#p786276b0f6)" style="fill: none; stroke: #1d2b37; stroke-opacity: 0.6; stroke-width: 0.6; stroke-linecap: square"/>
     </g>
     <g id="line2d_43">
      <g>
       <use xlink:href="#m56ed45d1a5" x="127.369688" y="410.6" style="fill: #94a3b8; stroke: #94a3b8; stroke-width: 0.8"/>
      </g>
     </g>
     <g id="text_33">
      <!-- 0 -->
      <g style="fill: #94a3b8" transform="translate(125.262578 422.918359) scale(0.07 -0.07)">
       <use xlink:href="#DejaVuSansMono-13"/>
      </g>
     </g>
    </g>
    <g id="xtick_14">
     <g id="line2d_44">
      <path d="M 182.140378 410.6 
L 182.140378 264.775413 
" clip-path="url(#p786276b0f6)" style="fill: none; stroke: #1d2b37; stroke-opacity: 0.6; stroke-width: 0.6; stroke-linecap: square"/>
     </g>
     <g id="line2d_45">
      <g>
       <use xlink:href="#m56ed45d1a5" x="182.140378" y="410.6" style="fill: #94a3b8; stroke: #94a3b8; stroke-width: 0.8"/>
      </g>
     </g>
     <g id="text_34">
      <!-- 50000 -->
      <g style="fill: #94a3b8" transform="translate(171.604831 422.918359) scale(0.07 -0.07)">
       <defs>
        <path id="DejaVuSansMono-18" d="M 647 4666 
L 3009 4666 
L 3009 4134 
L 1222 4134 
L 1222 2988 
Q 1356 3038 1492 3061 
Q 1628 3084 1766 3084 
Q 2491 3084 2916 2656 
Q 3341 2228 3341 1497 
Q 3341 759 2895 334 
Q 2450 -91 1678 -91 
Q 1306 -91 998 -41 
Q 691 9 447 109 
L 447 750 
Q 734 594 1025 517 
Q 1316 441 1619 441 
Q 2141 441 2423 716 
Q 2706 991 2706 1497 
Q 2706 1997 2414 2275 
Q 2122 2553 1600 2553 
Q 1347 2553 1106 2495 
Q 866 2438 647 2322 
L 647 4666 
z
" transform="scale(0.015625)"/>
       </defs>
       <use xlink:href="#DejaVuSansMono-18"/>
       <use xlink:href="#DejaVuSansMono-13" transform="translate(60.203125 0)"/>
       <use xlink:href="#DejaVuSansMono-13" transform="translate(120.40625 0)"/>
       <use xlink:href="#DejaVuSansMono-13" transform="translate(180.609375 0)"/>
       <use xlink:href="#DejaVuSansMono-13" transform="translate(240.8125 0)"/>
      </g>
     </g>
    </g>
    <g id="xtick_15">
     <g id="line2d_46">
      <path d="M 236.911068 410.6 
L 236.911068 264.775413 
" clip-path="url(#p786276b0f6)" style="fill: none; stroke: #1d2b37; stroke-opacity: 0.6; stroke-width: 0.6; stroke-linecap: square"/>
     </g>
     <g id="line2d_47">
      <g>
       <use xlink:href="#m56ed45d1a5" x="236.911068" y="410.6" style="fill: #94a3b8; stroke: #94a3b8; stroke-width: 0.8"/>
      </g>
     </g>
     <g id="text_35">
      <!-- 100000 -->
      <g style="fill: #94a3b8" transform="translate(224.268412 422.918359) scale(0.07 -0.07)">
       <use xlink:href="#DejaVuSansMono-14"/>
       <use xlink:href="#DejaVuSansMono-13" transform="translate(60.203125 0)"/>
       <use xlink:href="#DejaVuSansMono-13" transform="translate(120.40625 0)"/>
       <use xlink:href="#DejaVuSansMono-13" transform="translate(180.609375 0)"/>
       <use xlink:href="#DejaVuSansMono-13" transform="translate(240.8125 0)"/>
       <use xlink:href="#DejaVuSansMono-13" transform="translate(301.015625 0)"/>
      </g>
     </g>
    </g>
    <g id="xtick_16">
     <g id="line2d_48">
      <path d="M 291.681758 410.6 
L 291.681758 264.775413 
" clip-path="url(#p786276b0f6)" style="fill: none; stroke: #1d2b37; stroke-opacity: 0.6; stroke-width: 0.6; stroke-linecap: square"/>
     </g>
     <g id="line2d_49">
      <g>
       <use xlink:href="#m56ed45d1a5" x="291.681758" y="410.6" style="fill: #94a3b8; stroke: #94a3b8; stroke-width: 0.8"/>
      </g>
     </g>
     <g id="text_36">
      <!-- 150000 -->
      <g style="fill: #94a3b8" transform="translate(279.039102 422.918359) scale(0.07 -0.07)">
       <use xlink:href="#DejaVuSansMono-14"/>
       <use xlink:href="#DejaVuSansMono-18" transform="translate(60.203125 0)"/>
       <use xlink:href="#DejaVuSansMono-13" transform="translate(120.40625 0)"/>
       <use xlink:href="#DejaVuSansMono-13" transform="translate(180.609375 0)"/>
       <use xlink:href="#DejaVuSansMono-13" transform="translate(240.8125 0)"/>
       <use xlink:href="#DejaVuSansMono-13" transform="translate(301.015625 0)"/>
      </g>
     </g>
    </g>
    <g id="xtick_17">
     <g id="line2d_50">
      <path d="M 346.452449 410.6 
L 346.452449 264.775413 
" clip-path="url(#p786276b0f6)" style="fill: none; stroke: #1d2b37; stroke-opacity: 0.6; stroke-width: 0.6; stroke-linecap: square"/>
     </g>
     <g id="line2d_51">
      <g>
       <use xlink:href="#m56ed45d1a5" x="346.452449" y="410.6" style="fill: #94a3b8; stroke: #94a3b8; stroke-width: 0.8"/>
      </g>
     </g>
     <g id="text_37">
      <!-- 200000 -->
      <g style="fill: #94a3b8" transform="translate(333.809792 422.918359) scale(0.07 -0.07)">
       <use xlink:href="#DejaVuSansMono-15"/>
       <use xlink:href="#DejaVuSansMono-13" transform="translate(60.203125 0)"/>
       <use xlink:href="#DejaVuSansMono-13" transform="translate(120.40625 0)"/>
       <use xlink:href="#DejaVuSansMono-13" transform="translate(180.609375 0)"/>
       <use xlink:href="#DejaVuSansMono-13" transform="translate(240.8125 0)"/>
       <use xlink:href="#DejaVuSansMono-13" transform="translate(301.015625 0)"/>
      </g>
     </g>
    </g>
    <g id="text_38">
     <!-- KB -->
     <g style="fill: #94a3b8" transform="translate(256.519936 433.918359) scale(0.07 -0.07)">
      <defs>
       <path id="DejaVuSansMono-2e" d="M 428 4666 
L 1063 4666 
L 1063 2591 
L 3034 4666 
L 3775 4666 
L 1959 2759 
L 3828 0 
L 3066 0 
L 1544 2338 
L 1063 1825 
L 1063 0 
L 428 0 
L 428 4666 
z
" transform="scale(0.015625)"/>
       <path id="DejaVuSansMono-25" d="M 1153 2228 
L 1153 519 
L 1900 519 
Q 2450 519 2684 711 
Q 2919 903 2919 1344 
Q 2919 1800 2672 2014 
Q 2425 2228 1900 2228 
L 1153 2228 
z
M 1153 4147 
L 1153 2741 
L 1888 2741 
Q 2344 2741 2548 2916 
Q 2753 3091 2753 3481 
Q 2753 3834 2551 3990 
Q 2350 4147 1888 4147 
L 1153 4147 
z
M 519 4666 
L 1900 4666 
Q 2616 4666 3003 4356 
Q 3391 4047 3391 3481 
Q 3391 3053 3186 2806 
Q 2981 2559 2572 2497 
Q 3031 2428 3292 2104 
Q 3553 1781 3553 1281 
Q 3553 647 3137 323 
Q 2722 0 1900 0 
L 519 0 
L 519 4666 
z
" transform="scale(0.015625)"/>
      </defs>
      <use xlink:href="#DejaVuSansMono-2e"/>
      <use xlink:href="#DejaVuSansMono-25" transform="translate(60.203125 0)"/>
     </g>
    </g>
   </g>
   <g id="matplotlib.axis_6">
    <g id="ytick_9">
     <g id="line2d_52">
      <g>
       <use xlink:href="#ma7b75a2962" x="127.369688" y="397.402935" style="fill: #94a3b8; stroke: #94a3b8; stroke-width: 0.8"/>
      </g>
     </g>
     <g id="text_39">
      <!-- BDA_IA2_Grp11 -->
      <g style="fill: #94a3b8" transform="translate(65.584844 400.062114) scale(0.07 -0.07)">
       <defs>
        <path id="DejaVuSansMono-42" d="M 3853 -1259 
L 3853 -1509 
L 0 -1509 
L 0 -1259 
L 3853 -1259 
z
" transform="scale(0.015625)"/>
        <path id="DejaVuSansMono-2c" d="M 628 4666 
L 3219 4666 
L 3219 4134 
L 2241 4134 
L 2241 531 
L 3219 531 
L 3219 0 
L 628 0 
L 628 531 
L 1606 531 
L 1606 4134 
L 628 4134 
L 628 4666 
z
" transform="scale(0.015625)"/>
        <path id="DejaVuSansMono-2a" d="M 3450 384 
Q 3197 150 2880 29 
Q 2563 -91 2194 -91 
Q 1306 -91 812 545 
Q 319 1181 319 2328 
Q 319 3472 819 4111 
Q 1319 4750 2209 4750 
Q 2503 4750 2772 4667 
Q 3041 4584 3291 4416 
L 3291 3769 
Q 3038 4009 2772 4123 
Q 2506 4238 2209 4238 
Q 1594 4238 1286 3761 
Q 978 3284 978 2328 
Q 978 1356 1276 889 
Q 1575 422 2194 422 
Q 2403 422 2561 470 
Q 2719 519 2847 622 
L 2847 1875 
L 2169 1875 
L 2169 2394 
L 3450 2394 
L 3450 384 
z
" transform="scale(0.015625)"/>
       </defs>
       <use xlink:href="#DejaVuSansMono-25"/>
       <use xlink:href="#DejaVuSansMono-27" transform="translate(60.203125 0)"/>
       <use xlink:href="#DejaVuSansMono-24" transform="translate(120.40625 0)"/>
       <use xlink:href="#DejaVuSansMono-42" transform="translate(180.609375 0)"/>
       <use xlink:href="#DejaVuSansMono-2c" transform="translate(240.8125 0)"/>
       <use xlink:href="#DejaVuSansMono-24" transform="translate(301.015625 0)"/>
       <use xlink:href="#DejaVuSansMono-15" transform="translate(361.21875 0)"/>
       <use xlink:href="#DejaVuSansMono-42" transform="translate(421.421875 0)"/>
       <use xlink:href="#DejaVuSansMono-2a" transform="translate(481.625 0)"/>
       <use xlink:href="#DejaVuSansMono-55" transform="translate(541.828125 0)"/>
       <use xlink:href="#DejaVuSansMono-53" transform="translate(602.03125 0)"/>
       <use xlink:href="#DejaVuSansMono-14" transform="translate(662.234375 0)"/>
       <use xlink:href="#DejaVuSansMono-14" transform="translate(722.4375 0)"/>
      </g>
     </g>
    </g>
    <g id="ytick_10">
     <g id="line2d_53">
      <g>
       <use xlink:href="#ma7b75a2962" x="127.369688" y="373.516843" style="fill: #94a3b8; stroke: #94a3b8; stroke-width: 0.8"/>
      </g>
     </g>
     <g id="text_40">
      <!-- shre2201 -->
      <g style="fill: #94a3b8" transform="translate(86.655938 376.176296) scale(0.07 -0.07)">
       <use xlink:href="#DejaVuSansMono-56"/>
       <use xlink:href="#DejaVuSansMono-4b" transform="translate(60.203125 0)"/>
       <use xlink:href="#DejaVuSansMono-55" transform="translate(120.40625 0)"/>
       <use xlink:href="#DejaVuSansMono-48" transform="translate(180.609375 0)"/>
       <use xlink:href="#DejaVuSansMono-15" transform="translate(240.8125 0)"/>
       <use xlink:href="#DejaVuSansMono-15" transform="translate(301.015625 0)"/>
       <use xlink:href="#DejaVuSansMono-13" transform="translate(361.21875 0)"/>
       <use xlink:href="#DejaVuSansMono-14" transform="translate(421.421875 0)"/>
      </g>
     </g>
    </g>
    <g id="ytick_11">
     <g id="line2d_54">
      <g>
       <use xlink:href="#ma7b75a2962" x="127.369688" y="349.630752" style="fill: #94a3b8; stroke: #94a3b8; stroke-width: 0.8"/>
      </g>
     </g>
     <g id="text_41">
      <!-- rageclicker -->
      <g style="fill: #94a3b8" transform="translate(74.013281 352.308799) scale(0.07 -0.07)">
       <defs>
        <path id="DejaVuSansMono-4e" d="M 738 4863 
L 1331 4863 
L 1331 2047 
L 2841 3500 
L 3541 3500 
L 2163 2181 
L 3756 0 
L 3053 0 
L 1759 1806 
L 1331 1403 
L 1331 0 
L 738 0 
L 738 4863 
z
" transform="scale(0.015625)"/>
       </defs>
       <use xlink:href="#DejaVuSansMono-55"/>
       <use xlink:href="#DejaVuSansMono-44" transform="translate(60.203125 0)"/>
       <use xlink:href="#DejaVuSansMono-4a" transform="translate(120.40625 0)"/>
       <use xlink:href="#DejaVuSansMono-48" transform="translate(180.609375 0)"/>
       <use xlink:href="#DejaVuSansMono-46" transform="translate(240.8125 0)"/>
       <use xlink:href="#DejaVuSansMono-4f" transform="translate(301.015625 0)"/>
       <use xlink:href="#DejaVuSansMono-4c" transform="translate(361.21875 0)"/>
       <use xlink:href="#DejaVuSansMono-46" transform="translate(421.421875 0)"/>
       <use xlink:href="#DejaVuSansMono-4e" transform="translate(481.625 0)"/>
       <use xlink:href="#DejaVuSansMono-48" transform="translate(541.828125 0)"/>
       <use xlink:href="#DejaVuSansMono-55" transform="translate(602.03125 0)"/>
      </g>
     </g>
    </g>
    <g id="ytick_12">
     <g id="line2d_55">
      <g>
       <use xlink:href="#ma7b75a2962" x="127.369688" y="325.744661" style="fill: #94a3b8; stroke: #94a3b8; stroke-width: 0.8"/>
      </g>
     </g>
     <g id="text_42">
      <!-- prijasskincare -->
      <g style="fill: #94a3b8" transform="translate(61.370625 328.404114) scale(0.07 -0.07)">
       <defs>
        <path id="DejaVuSansMono-4d" d="M 1875 -63 
L 1875 3053 
L 884 3053 
L 884 3500 
L 2450 3500 
L 2450 -63 
Q 2450 -672 2170 -1001 
Q 1891 -1331 1375 -1331 
L 581 -1331 
L 581 -844 
L 1313 -844 
Q 1594 -844 1734 -648 
Q 1875 -453 1875 -63 
z
M 1875 4863 
L 2450 4863 
L 2450 4134 
L 1875 4134 
L 1875 4863 
z
" transform="scale(0.015625)"/>
       </defs>
       <use xlink:href="#DejaVuSansMono-53"/>
       <use xlink:href="#DejaVuSansMono-55" transform="translate(60.203125 0)"/>
       <use xlink:href="#DejaVuSansMono-4c" transform="translate(120.40625 0)"/>
       <use xlink:href="#DejaVuSansMono-4d" transform="translate(180.609375 0)"/>
       <use xlink:href="#DejaVuSansMono-44" transform="translate(240.8125 0)"/>
       <use xlink:href="#DejaVuSansMono-56" transform="translate(301.015625 0)"/>
       <use xlink:href="#DejaVuSansMono-56" transform="translate(361.21875 0)"/>
       <use xlink:href="#DejaVuSansMono-4e" transform="translate(421.421875 0)"/>
       <use xlink:href="#DejaVuSansMono-4c" transform="translate(481.625 0)"/>
       <use xlink:href="#DejaVuSansMono-51" transform="translate(541.828125 0)"/>
       <use xlink:href="#DejaVuSansMono-46" transform="translate(602.03125 0)"/>
       <use xlink:href="#DejaVuSansMono-44" transform="translate(662.234375 0)"/>
       <use xlink:href="#DejaVuSansMono-55" transform="translate(722.4375 0)"/>
       <use xlink:href="#DejaVuSansMono-48" transform="translate(782.640625 0)"/>
      </g>
     </g>
    </g>
    <g id="ytick_13">
     <g id="line2d_56">
      <g>
       <use xlink:href="#ma7b75a2962" x="127.369688" y="301.858569" style="fill: #94a3b8; stroke: #94a3b8; stroke-width: 0.8"/>
      </g>
     </g>
     <g id="text_43">
      <!-- portfolio -->
      <g style="fill: #94a3b8" transform="translate(82.441719 304.536616) scale(0.07 -0.07)">
       <defs>
        <path id="DejaVuSansMono-49" d="M 3322 4863 
L 3322 4384 
L 2669 4384 
Q 2359 4384 2239 4257 
Q 2119 4131 2119 3809 
L 2119 3500 
L 3322 3500 
L 3322 3053 
L 2119 3053 
L 2119 0 
L 1544 0 
L 1544 3053 
L 609 3053 
L 609 3500 
L 1544 3500 
L 1544 3744 
Q 1544 4319 1808 4591 
Q 2072 4863 2631 4863 
L 3322 4863 
z
" transform="scale(0.015625)"/>
       </defs>
       <use xlink:href="#DejaVuSansMono-53"/>
       <use xlink:href="#DejaVuSansMono-52" transform="translate(60.203125 0)"/>
       <use xlink:href="#DejaVuSansMono-55" transform="translate(120.40625 0)"/>
       <use xlink:href="#DejaVuSansMono-57" transform="translate(180.609375 0)"/>
       <use xlink:href="#DejaVuSansMono-49" transform="translate(240.8125 0)"/>
       <use xlink:href="#DejaVuSansMono-52" transform="translate(301.015625 0)"/>
       <use xlink:href="#DejaVuSansMono-4f" transform="translate(361.21875 0)"/>
       <use xlink:href="#DejaVuSansMono-4c" transform="translate(421.421875 0)"/>
       <use xlink:href="#DejaVuSansMono-52" transform="translate(481.625 0)"/>
      </g>
     </g>
    </g>
    <g id="ytick_14">
     <g id="line2d_57">
      <g>
       <use xlink:href="#ma7b75a2962" x="127.369688" y="277.972478" style="fill: #94a3b8; stroke: #94a3b8; stroke-width: 0.8"/>
      </g>
     </g>
     <g id="text_44">
      <!-- solar-image-classification -->
      <g style="fill: #94a3b8" transform="translate(10.8 280.650525) scale(0.07 -0.07)">
       <defs>
        <path id="DejaVuSansMono-10" d="M 1113 2009 
L 2741 2009 
L 2741 1497 
L 1113 1497 
L 1113 2009 
z
" transform="scale(0.015625)"/>
       </defs>
       <use xlink:href="#DejaVuSansMono-56"/>
       <use xlink:href="#DejaVuSansMono-52" transform="translate(60.203125 0)"/>
       <use xlink:href="#DejaVuSansMono-4f" transform="translate(120.40625 0)"/>
       <use xlink:href="#DejaVuSansMono-44" transform="translate(180.609375 0)"/>
       <use xlink:href="#DejaVuSansMono-55" transform="translate(240.8125 0)"/>
       <use xlink:href="#DejaVuSansMono-10" transform="translate(301.015625 0)"/>
       <use xlink:href="#DejaVuSansMono-4c" transform="translate(361.21875 0)"/>
       <use xlink:href="#DejaVuSansMono-50" transform="translate(421.421875 0)"/>
       <use xlink:href="#DejaVuSansMono-44" transform="translate(481.625 0)"/>
       <use xlink:href="#DejaVuSansMono-4a" transform="translate(541.828125 0)"/>
       <use xlink:href="#DejaVuSansMono-48" transform="translate(602.03125 0)"/>
       <use xlink:href="#DejaVuSansMono-10" transform="translate(662.234375 0)"/>
       <use xlink:href="#DejaVuSansMono-46" transform="translate(722.4375 0)"/>
       <use xlink:href="#DejaVuSansMono-4f" transform="translate(782.640625 0)"/>
       <use xlink:href="#DejaVuSansMono-44" transform="translate(842.84375 0)"/>
       <use xlink:href="#DejaVuSansMono-56" transform="translate(903.046875 0)"/>
       <use xlink:href="#DejaVuSansMono-56" transform="translate(963.25 0)"/>
       <use xlink:href="#DejaVuSansMono-4c" transform="translate(1023.453125 0)"/>
       <use xlink:href="#DejaVuSansMono-49" transform="translate(1083.65625 0)"/>
       <use xlink:href="#DejaVuSansMono-4c" transform="translate(1143.859375 0)"/>
       <use xlink:href="#DejaVuSansMono-46" transform="translate(1204.0625 0)"/>
       <use xlink:href="#DejaVuSansMono-44" transform="translate(1264.265625 0)"/>
       <use xlink:href="#DejaVuSansMono-57" transform="translate(1324.46875 0)"/>
       <use xlink:href="#DejaVuSansMono-4c" transform="translate(1384.671875 0)"/>
       <use xlink:href="#DejaVuSansMono-52" transform="translate(1444.875 0)"/>
       <use xlink:href="#DejaVuSansMono-51" transform="translate(1505.078125 0)"/>
      </g>
     </g>
    </g>
   </g>
   <g id="patch_22">
    <path d="M 127.369688 410.6 
L 127.369688 264.775413 
" style="fill: none; stroke: #1d2b37; stroke-width: 0.8; stroke-linejoin: miter; stroke-linecap: square"/>
   </g>
   <g id="patch_23">
    <path d="M 127.369688 410.6 
L 394.098622 410.6 
" style="fill: none; stroke: #1d2b37; stroke-width: 0.8; stroke-linejoin: miter; stroke-linecap: square"/>
   </g>
   <g id="text_45">
    <!-- repo size (KB) -->
    <g style="fill: #dbeafe" transform="translate(127.369688 256.775413) scale(0.1 -0.1)">
     <defs>
      <path id="DejaVuSansMono-5d" d="M 709 3506 
L 3250 3506 
L 3250 2981 
L 1241 469 
L 3250 469 
L 3250 0 
L 634 0 
L 634 531 
L 2644 3047 
L 709 3047 
L 709 3506 
z
" transform="scale(0.015625)"/>
     </defs>
     <use xlink:href="#DejaVuSansMono-55"/>
     <use xlink:href="#DejaVuSansMono-48" transform="translate(60.203125 0)"/>
     <use xlink:href="#DejaVuSansMono-53" transform="translate(120.40625 0)"/>
     <use xlink:href="#DejaVuSansMono-52" transform="translate(180.609375 0)"/>
     <use xlink:href="#DejaVuSansMono-3" transform="translate(240.8125 0)"/>
     <use xlink:href="#DejaVuSansMono-56" transform="translate(301.015625 0)"/>
     <use xlink:href="#DejaVuSansMono-4c" transform="translate(361.21875 0)"/>
     <use xlink:href="#DejaVuSansMono-5d" transform="translate(421.421875 0)"/>
     <use xlink:href="#DejaVuSansMono-48" transform="translate(481.625 0)"/>
     <use xlink:href="#DejaVuSansMono-3" transform="translate(541.828125 0)"/>
     <use xlink:href="#DejaVuSansMono-b" transform="translate(602.03125 0)"/>
     <use xlink:href="#DejaVuSansMono-2e" transform="translate(662.234375 0)"/>
     <use xlink:href="#DejaVuSansMono-25" transform="translate(722.4375 0)"/>
     <use xlink:href="#DejaVuSansMono-c" transform="translate(782.640625 0)"/>
    </g>
   </g>
  </g>
  <g id="axes_4">
   <g id="patch_24">
    <path d="M 442.471065 410.6 
L 709.2 410.6 
L 709.2 264.775413 
L 442.471065 264.775413 
z
" style="fill: #0b1c26"/>
   </g>
   <g id="patch_25">
    <path d="M 454.595108 410.6 
L 476.638821 410.6 
L 476.638821 410.6 
L 454.595108 410.6 
z
" clip-path="url(#p57a55b2445)" style="fill: #7dd3fc"/>
   </g>
   <g id="patch_26">
    <path d="M 491.334631 410.6 
L 513.378344 410.6 
L 513.378344 410.6 
L 491.334631 410.6 
z
" clip-path="url(#p57a55b2445)" style="fill: #7dd3fc"/>
   </g>
   <g id="patch_27">
    <path d="M 528.074153 410.6 
L 550.117867 410.6 
L 550.117867 375.87986 
L 528.074153 375.87986 
z
" clip-path="url(#p57a55b2445)" style="fill: #7dd3fc"/>
   </g>
   <g id="patch_28">
    <path d="M 564.813676 410.6 
L 586.857389 410.6 
L 586.857389 410.6 
L 564.813676 410.6 
z
" clip-path="url(#p57a55b2445)" style="fill: #7dd3fc"/>
   </g>
   <g id="patch_29">
    <path d="M 601.553199 410.6 
L 623.596912 410.6 
L 623.596912 289.07951 
L 601.553199 289.07951 
z
" clip-path="url(#p57a55b2445)" style="fill: #7dd3fc"/>
   </g>
   <g id="patch_30">
    <path d="M 638.292721 410.6 
L 660.336435 410.6 
L 660.336435 271.719441 
L 638.292721 271.719441 
z
" clip-path="url(#p57a55b2445)" style="fill: #7dd3fc"/>
   </g>
   <g id="patch_31">
    <path d="M 675.032244 410.6 
L 697.075958 410.6 
L 697.075958 410.6 
L 675.032244 410.6 
z
" clip-path="url(#p57a55b2445)" style="fill: #7dd3fc"/>
   </g>
   <g id="matplotlib.axis_7">
    <g id="xtick_18">
     <g id="line2d_58">
      <path d="M 465.616965 410.6 
L 465.616965 264.775413 
" clip-path="url(#p57a55b2445)" style="fill: none; stroke: #1d2b37; stroke-opacity: 0.6; stroke-width: 0.6; stroke-linecap: square"/>
     </g>
     <g id="line2d_59">
      <g>
       <use xlink:href="#m56ed45d1a5" x="465.616965" y="410.6" style="fill: #94a3b8; stroke: #94a3b8; stroke-width: 0.8"/>
      </g>
     </g>
     <g id="text_46">
      <!-- Mon -->
      <g style="fill: #94a3b8" transform="translate(459.295637 422.918359) scale(0.07 -0.07)">
       <use xlink:href="#DejaVuSansMono-30"/>
       <use xlink:href="#DejaVuSansMono-52" transform="translate(60.203125 0)"/>
       <use xlink:href="#DejaVuSansMono-51" transform="translate(120.40625 0)"/>
      </g>
     </g>
    </g>
    <g id="xtick_19">
     <g id="line2d_60">
      <path d="M 502.356487 410.6 
L 502.356487 264.775413 
" clip-path="url(#p57a55b2445)" style="fill: none; stroke: #1d2b37; stroke-opacity: 0.6; stroke-width: 0.6; stroke-linecap: square"/>
     </g>
     <g id="line2d_61">
      <g>
       <use xlink:href="#m56ed45d1a5" x="502.356487" y="410.6" style="fill: #94a3b8; stroke: #94a3b8; stroke-width: 0.8"/>
      </g>
     </g>
     <g id="text_47">
      <!-- Tue -->
      <g style="fill: #94a3b8" transform="translate(496.035159 422.918359) scale(0.07 -0.07)">
       <use xlink:href="#DejaVuSansMono-37"/>
       <use xlink:href="#DejaVuSansMono-58" transform="translate(60.203125 0)"/>
       <use xlink:href="#DejaVuSansMono-48" transform="translate(120.40625 0)"/>
      </g>
     </g>
    </g>
    <g id="xtick_20">
     <g id="line2d_62">
      <path d="M 539.09601 410.6 
L 539.09601 264.775413 
" clip-path="url(#p57a55b2445)" style="fill: none; stroke: #1d2b37; stroke-opacity: 0.6; stroke-width: 0.6; stroke-linecap: square"/>
     </g>
     <g id="line2d_63">
      <g>
       <use xlink:href="#m56ed45d1a5" x="539.09601" y="410.6" style="fill: #94a3b8; stroke: #94a3b8; stroke-width: 0.8"/>
      </g>
     </g>
     <g id="text_48">
      <!-- Wed -->
      <g style="fill: #94a3b8" transform="translate(532.774682 422.918906) scale(0.07 -0.07)">
       <defs>
        <path id="DejaVuSansMono-3a" d="M 0 4666 
L 616 4666 
L 1063 878 
L 1594 3384 
L 2253 3384 
L 2791 872 
L 3238 4666 
L 3853 4666 
L 3156 0 
L 2559 0 
L 1925 2772 
L 1294 0 
L 697 0 
L 0 4666 
z
" transform="scale(0.015625)"/>
       </defs>
       <use xlink:href="#DejaVuSansMono-3a"/>
       <use xlink:href="#DejaVuSansMono-48" transform="translate(60.203125 0)"/>
       <use xlink:href="#DejaVuSansMono-47" transform="translate(120.40625 0)"/>
      </g>
     </g>
    </g>
    <g id="xtick_21">
     <g id="line2d_64">
      <path d="M 575.835533 410.6 
L 575.835533 264.775413 
" clip-path="url(#p57a55b2445)" style="fill: none; stroke: #1d2b37; stroke-opacity: 0.6; stroke-width: 0.6; stroke-linecap: square"/>
     </g>
     <g id="line2d_65">
      <g>
       <use xlink:href="#m56ed45d1a5" x="575.835533" y="410.6" style="fill: #94a3b8; stroke: #94a3b8; stroke-width: 0.8"/>
      </g>
     </g>
     <g id="text_49">
      <!-- Thu -->
      <g style="fill: #94a3b8" transform="translate(569.514205 422.918906) scale(0.07 -0.07)">
       <use xlink:href="#DejaVuSansMono-37"/>
       <use xlink:href="#DejaVuSansMono-4b" transform="translate(60.203125 0)"/>
       <use xlink:href="#DejaVuSansMono-58" transform="translate(120.40625 0)"/>
      </g>
     </g>
    </g>
    <g id="xtick_22">
     <g id="line2d_66">
      <path d="M 612.575055 410.6 
L 612.575055 264.775413 
" clip-path="url(#p57a55b2445)" style="fill: none; stroke: #1d2b37; stroke-opacity: 0.6; stroke-width: 0.6; stroke-linecap: square"/>
     </g>
     <g id="line2d_67">
      <g>
       <use xlink:href="#m56ed45d1a5" x="612.575055" y="410.6" style="fill: #94a3b8; stroke: #94a3b8; stroke-width: 0.8"/>
      </g>
     </g>
     <g id="text_50">
      <!-- Fri -->
      <g style="fill: #94a3b8" transform="translate(606.253727 422.918906) scale(0.07 -0.07)">
       <use xlink:href="#DejaVuSansMono-29"/>
       <use xlink:href="#DejaVuSansMono-55" transform="translate(60.203125 0)"/>
       <use xlink:href="#DejaVuSansMono-4c" transform="translate(120.40625 0)"/>
      </g>
     </g>
    </g>
    <g id="xtick_23">
     <g id="line2d_68">
      <path d="M 649.314578 410.6 
L 649.314578 264.775413 
" clip-path="url(#p57a55b2445)" style="fill: none; stroke: #1d2b37; stroke-opacity: 0.6; stroke-width: 0.6; stroke-linecap: square"/>
     </g>
     <g id="line2d_69">
      <g>
       <use xlink:href="#m56ed45d1a5" x="649.314578" y="410.6" style="fill: #94a3b8; stroke: #94a3b8; stroke-width: 0.8"/>
      </g>
     </g>
     <g id="text_51">
      <!-- Sat -->
      <g style="fill: #94a3b8" transform="translate(642.99325 422.918359) scale(0.07 -0.07)">
       <use xlink:href="#DejaVuSansMono-36"/>
       <use xlink:href="#DejaVuSansMono-44" transform="translate(60.203125 0)"/>
       <use xlink:href="#DejaVuSansMono-57" transform="translate(120.40625 0)"/>
      </g>
     </g>
    </g>
    <g id="xtick_24">
     <g id="line2d_70">
      <path d="M 686.054101 410.6 
L 686.054101 264.775413 
" clip-path="url(#p57a55b2445)" style="fill: none; stroke: #1d2b37; stroke-opacity: 0.6; stroke-width: 0.6; stroke-linecap: square"/>
     </g>
     <g id="line2d_71">
      <g>
       <use xlink:href="#m56ed45d1a5" x="686.054101" y="410.6" style="fill: #94a3b8; stroke: #94a3b8; stroke-width: 0.8"/>
      </g>
     </g>
     <g id="text_52">
      <!-- Sun -->
      <g style="fill: #94a3b8" transform="translate(679.732773 422.918359) scale(0.07 -0.07)">
       <use xlink:href="#DejaVuSansMono-36"/>
       <use xlink:href="#DejaVuSansMono-58" transform="translate(60.203125 0)"/>
       <use xlink:href="#DejaVuSansMono-51" transform="translate(120.40625 0)"/>
      </g>
     </g>
    </g>
   </g>
   <g id="matplotlib.axis_8">
    <g id="ytick_15">
     <g id="line2d_72">
      <g>
       <use xlink:href="#ma7b75a2962" x="442.471065" y="410.6" style="fill: #94a3b8; stroke: #94a3b8; stroke-width: 0.8"/>
      </g>
     </g>
     <g id="text_53">
      <!-- 0 -->
      <g style="fill: #94a3b8" transform="translate(431.256847 413.25918) scale(0.07 -0.07)">
       <use xlink:href="#DejaVuSansMono-13"/>
      </g>
     </g>
    </g>
    <g id="ytick_16">
     <g id="line2d_73">
      <g>
       <use xlink:href="#ma7b75a2962" x="442.471065" y="393.23993" style="fill: #94a3b8; stroke: #94a3b8; stroke-width: 0.8"/>
      </g>
     </g>
     <g id="text_54">
      <!-- 1 -->
      <g style="fill: #94a3b8" transform="translate(431.256847 395.89911) scale(0.07 -0.07)">
       <use xlink:href="#DejaVuSansMono-14"/>
      </g>
     </g>
    </g>
    <g id="ytick_17">
     <g id="line2d_74">
      <g>
       <use xlink:href="#ma7b75a2962" x="442.471065" y="375.87986" style="fill: #94a3b8; stroke: #94a3b8; stroke-width: 0.8"/>
      </g>
     </g>
     <g id="text_55">
      <!-- 2 -->
      <g style="fill: #94a3b8" transform="translate(431.256847 378.53904) scale(0.07 -0.07)">
       <use xlink:href="#DejaVuSansMono-15"/>
      </g>
     </g>
    </g>
    <g id="ytick_18">
     <g id="line2d_75">
      <g>
       <use xlink:href="#ma7b75a2962" x="442.471065" y="358.51979" style="fill: #94a3b8; stroke: #94a3b8; stroke-width: 0.8"/>
      </g>
     </g>
     <g id="text_56">
      <!-- 3 -->
      <g style="fill: #94a3b8" transform="translate(431.256847 361.17897) scale(0.07 -0.07)">
       <defs>
        <path id="DejaVuSansMono-16" d="M 2425 2497 
Q 2884 2375 3128 2064 
Q 3372 1753 3372 1288 
Q 3372 644 2939 276 
Q 2506 -91 1741 -91 
Q 1419 -91 1084 -31 
Q 750 28 428 141 
L 428 769 
Q 747 603 1056 522 
Q 1366 441 1672 441 
Q 2191 441 2469 675 
Q 2747 909 2747 1350 
Q 2747 1756 2469 1995 
Q 2191 2234 1716 2234 
L 1234 2234 
L 1234 2753 
L 1716 2753 
Q 2150 2753 2394 2943 
Q 2638 3134 2638 3475 
Q 2638 3834 2411 4026 
Q 2184 4219 1766 4219 
Q 1488 4219 1191 4156 
Q 894 4094 569 3969 
L 569 4550 
Q 947 4650 1242 4700 
Q 1538 4750 1766 4750 
Q 2447 4750 2855 4408 
Q 3263 4066 3263 3500 
Q 3263 3116 3048 2859 
Q 2834 2603 2425 2497 
z
" transform="scale(0.015625)"/>
       </defs>
       <use xlink:href="#DejaVuSansMono-16"/>
      </g>
     </g>
    </g>
    <g id="ytick_19">
     <g id="line2d_76">
      <g>
       <use xlink:href="#ma7b75a2962" x="442.471065" y="341.15972" style="fill: #94a3b8; stroke: #94a3b8; stroke-width: 0.8"/>
      </g>
     </g>
     <g id="text_57">
      <!-- 4 -->
      <g style="fill: #94a3b8" transform="translate(431.256847 343.8189) scale(0.07 -0.07)">
       <use xlink:href="#DejaVuSansMono-17"/>
      </g>
     </g>
    </g>
    <g id="ytick_20">
     <g id="line2d_77">
      <g>
       <use xlink:href="#ma7b75a2962" x="442.471065" y="323.79965" style="fill: #94a3b8; stroke: #94a3b8; stroke-width: 0.8"/>
      </g>
     </g>
     <g id="text_58">
      <!-- 5 -->
      <g style="fill: #94a3b8" transform="translate(431.256847 326.45883) scale(0.07 -0.07)">
       <use xlink:href="#DejaVuSansMono-18"/>
      </g>
     </g>
    </g>
    <g id="ytick_21">
     <g id="line2d_78">
      <g>
       <use xlink:href="#ma7b75a2962" x="442.471065" y="306.43958" style="fill: #94a3b8; stroke: #94a3b8; stroke-width: 0.8"/>
      </g>
     </g>
     <g id="text_59">
      <!-- 6 -->
      <g style="fill: #94a3b8" transform="translate(431.256847 309.09876) scale(0.07 -0.07)">
       <use xlink:href="#DejaVuSansMono-19"/>
      </g>
     </g>
    </g>
    <g id="ytick_22">
     <g id="line2d_79">
      <g>
       <use xlink:href="#ma7b75a2962" x="442.471065" y="289.07951" style="fill: #94a3b8; stroke: #94a3b8; stroke-width: 0.8"/>
      </g>
     </g>
     <g id="text_60">
      <!-- 7 -->
      <g style="fill: #94a3b8" transform="translate(431.256847 291.73869) scale(0.07 -0.07)">
       <defs>
        <path id="DejaVuSansMono-1a" d="M 434 4666 
L 3372 4666 
L 3372 4397 
L 1703 0 
L 1044 0 
L 2669 4134 
L 434 4134 
L 434 4666 
z
" transform="scale(0.015625)"/>
       </defs>
       <use xlink:href="#DejaVuSansMono-1a"/>
      </g>
     </g>
    </g>
    <g id="ytick_23">
     <g id="line2d_80">
      <g>
       <use xlink:href="#ma7b75a2962" x="442.471065" y="271.719441" style="fill: #94a3b8; stroke: #94a3b8; stroke-width: 0.8"/>
      </g>
     </g>
     <g id="text_61">
      <!-- 8 -->
      <g style="fill: #94a3b8" transform="translate(431.256847 274.37862) scale(0.07 -0.07)">
       <use xlink:href="#DejaVuSansMono-1b"/>
      </g>
     </g>
    </g>
   </g>
   <g id="patch_32">
    <path d="M 442.471065 410.6 
L 442.471065 264.775413 
" style="fill: none; stroke: #1d2b37; stroke-width: 0.8; stroke-linejoin: miter; stroke-linecap: square"/>
   </g>
   <g id="patch_33">
    <path d="M 442.471065 410.6 
L 709.2 410.6 
" style="fill: none; stroke: #1d2b37; stroke-width: 0.8; stroke-linejoin: miter; stroke-linecap: square"/>
   </g>
   <g id="text_62">
    <!-- pushes by day of week -->
    <g style="fill: #dbeafe" transform="translate(442.471065 256.775413) scale(0.1 -0.1)">
     <defs>
      <path id="DejaVuSansMono-5a" d="M 0 3500 
L 569 3500 
L 1178 672 
L 1678 2478 
L 2169 2478 
L 2675 672 
L 3284 3500 
L 3853 3500 
L 3034 0 
L 2484 0 
L 1925 1919 
L 1369 0 
L 819 0 
L 0 3500 
z
" transform="scale(0.015625)"/>
     </defs>
     <use xlink:href="#DejaVuSansMono-53"/>
     <use xlink:href="#DejaVuSansMono-58" transform="translate(60.203125 0)"/>
     <use xlink:href="#DejaVuSansMono-56" transform="translate(120.40625 0)"/>
     <use xlink:href="#DejaVuSansMono-4b" transform="translate(180.609375 0)"/>
     <use xlink:href="#DejaVuSansMono-48" transform="translate(240.8125 0)"/>
     <use xlink:href="#DejaVuSansMono-56" transform="translate(301.015625 0)"/>
     <use xlink:href="#DejaVuSansMono-3" transform="translate(361.21875 0)"/>
     <use xlink:href="#DejaVuSansMono-45" transform="translate(421.421875 0)"/>
     <use xlink:href="#DejaVuSansMono-5c" transform="translate(481.625 0)"/>
     <use xlink:href="#DejaVuSansMono-3" transform="translate(541.828125 0)"/>
     <use xlink:href="#DejaVuSansMono-47" transform="translate(602.03125 0)"/>
     <use xlink:href="#DejaVuSansMono-44" transform="translate(662.234375 0)"/>
     <use xlink:href="#DejaVuSansMono-5c" transform="translate(722.4375 0)"/>
     <use xlink:href="#DejaVuSansMono-3" transform="translate(782.640625 0)"/>
     <use xlink:href="#DejaVuSansMono-52" transform="translate(842.84375 0)"/>
     <use xlink:href="#DejaVuSansMono-49" transform="translate(903.046875 0)"/>
     <use xlink:href="#DejaVuSansMono-3" transform="translate(963.25 0)"/>
     <use xlink:href="#DejaVuSansMono-5a" transform="translate(1023.453125 0)"/>
     <use xlink:href="#DejaVuSansMono-48" transform="translate(1083.65625 0)"/>
     <use xlink:href="#DejaVuSansMono-48" transform="translate(1143.859375 0)"/>
     <use xlink:href="#DejaVuSansMono-4e" transform="translate(1204.0625 0)"/>
    </g>
   </g>
  </g>
  <g id="text_63">
   <!-- shre2201 · repo analytics -->
   <g style="fill: #dbeafe" transform="translate(14.4 18.109875) scale(0.12 -0.12)">
    <defs>
     <path id="DejaVuSansMono-79" d="M 1528 2700 
L 2316 2700 
L 2316 1747 
L 1528 1747 
L 1528 2700 
z
" transform="scale(0.015625)"/>
    </defs>
    <use xlink:href="#DejaVuSansMono-56"/>
    <use xlink:href="#DejaVuSansMono-4b" transform="translate(60.203125 0)"/>
    <use xlink:href="#DejaVuSansMono-55" transform="translate(120.40625 0)"/>
    <use xlink:href="#DejaVuSansMono-48" transform="translate(180.609375 0)"/>
    <use xlink:href="#DejaVuSansMono-15" transform="translate(240.8125 0)"/>
    <use xlink:href="#DejaVuSansMono-15" transform="translate(301.015625 0)"/>
    <use xlink:href="#DejaVuSansMono-13" transform="translate(361.21875 0)"/>
    <use xlink:href="#DejaVuSansMono-14" transform="translate(421.421875 0)"/>
    <use xlink:href="#DejaVuSansMono-3" transform="translate(481.625 0)"/>
    <use xlink:href="#DejaVuSansMono-79" transform="translate(541.828125 0)"/>
    <use xlink:href="#DejaVuSansMono-3" transform="translate(602.03125 0)"/>
    <use xlink:href="#DejaVuSansMono-55" transform="translate(662.234375 0)"/>
    <use xlink:href="#DejaVuSansMono-48" transform="translate(722.4375 0)"/>
    <use xlink:href="#DejaVuSansMono-53" transform="translate(782.640625 0)"/>
    <use xlink:href="#DejaVuSansMono-52" transform="translate(842.84375 0)"/>
    <use xlink:href="#DejaVuSansMono-3" transform="translate(903.046875 0)"/>
    <use xlink:href="#DejaVuSansMono-44" transform="translate(963.25 0)"/>
    <use xlink:href="#DejaVuSansMono-51" transform="translate(1023.453125 0)"/>
    <use xlink:href="#DejaVuSansMono-44" transform="translate(1083.65625 0)"/>
    <use xlink:href="#DejaVuSansMono-4f" transform="translate(1143.859375 0)"/>
    <use xlink:href="#DejaVuSansMono-5c" transform="translate(1204.0625 0)"/>
    <use xlink:href="#DejaVuSansMono-57" transform="translate(1264.265625 0)"/>
    <use xlink:href="#DejaVuSansMono-4c" transform="translate(1324.46875 0)"/>
    <use xlink:href="#DejaVuSansMono-46" transform="translate(1384.671875 0)"/>
    <use xlink:href="#DejaVuSansMono-56" transform="translate(1444.875 0)"/>
   </g>
  </g>
 </g>
 <defs>
  <clipPath id="pabed3e8ef5">
   <rect x="442.471065" y="71.63625" width="266.728935" height="145.824587"/>
  </clipPath>
  <clipPath id="p786276b0f6">
   <rect x="127.369688" y="264.775413" width="266.728935" height="145.824587"/>
  </clipPath>
  <clipPath id="p57a55b2445">
   <rect x="442.471065" y="264.775413" width="266.728935" height="145.824587"/>
  </clipPath>
 </defs>
</svg>
