<svg xmlns="http://www.w3.org/2000/svg" viewBox="0 0 720 550" width="100%" role="img" aria-label="Character sheet generated from shre2201's GitHub data">
  <style>
    text { font-family: "Courier New", Courier, monospace; }
  </style>
  <rect width="720" height="550" rx="12" fill="#06161d"/>
  <rect width="720" height="56" rx="12" fill="#102027"/>
  <rect y="42" width="720" height="14" fill="#102027"/>
  <text x="24" y="34" fill="#dbeafe" font-size="18" font-weight="bold">shre2201</text>
  <text x="696" y="34" fill="#facc15" font-size="16" text-anchor="end">Lv.4</text>
  <text x="24" y="50" fill="#7dd3fc" font-size="12">[AI/ML Class]</text>
  <text x="24" y="92" fill="#94a3b8" font-size="13">Skills (by bytes written)</text>
  <text x="24" y="136" fill="#dbeafe" font-size="13">TypeScript</text>
  <rect x="164" y="124" width="320" height="14" fill="#1d2b37" rx="3"/>
  <rect x="164" y="124" width="165.3" height="14" fill="#9db4ff" rx="3"/>
  <text x="494" y="136" fill="#64748b" font-size="12">52%</text>
  <text x="24" y="166" fill="#dbeafe" font-size="13">Python</text>
  <rect x="164" y="154" width="320" height="14" fill="#1d2b37" rx="3"/>
  <rect x="164" y="154" width="71.5" height="14" fill="#9db4ff" rx="3"/>
  <text x="494" y="166" fill="#64748b" font-size="12">22%</text>
  <text x="24" y="196" fill="#dbeafe" font-size="13">JavaScript</text>
  <rect x="164" y="184" width="320" height="14" fill="#1d2b37" rx="3"/>
  <rect x="164" y="184" width="39.1" height="14" fill="#9db4ff" rx="3"/>
  <text x="494" y="196" fill="#64748b" font-size="12">12%</text>
  <text x="24" y="226" fill="#dbeafe" font-size="13">HTML</text>
  <rect x="164" y="214" width="320" height="14" fill="#1d2b37" rx="3"/>
  <rect x="164" y="214" width="28.4" height="14" fill="#9db4ff" rx="3"/>
  <text x="494" y="226" fill="#64748b" font-size="12">9%</text>
  <text x="24" y="256" fill="#dbeafe" font-size="13">CSS</text>
  <rect x="164" y="244" width="320" height="14" fill="#1d2b37" rx="3"/>
  <rect x="164" y="244" width="15.7" height="14" fill="#9db4ff" rx="3"/>
  <text x="494" y="256" fill="#64748b" font-size="12">5%</text>
  <text x="24" y="286" fill="#94a3b8" font-size="13">Quests</text>
  <text x="24" y="322" fill="#f0b7c8" font-size="13">[ ] shre2201</text>
  <text x="696" y="322" fill="#64748b" font-size="12" text-anchor="end">(in progress)</text>
  <text x="24" y="352" fill="#f0b7c8" font-size="13">[ ] portfolio</text>
  <text x="696" y="352" fill="#64748b" font-size="12" text-anchor="end">(in progress)</text>
  <text x="24" y="382" fill="#4ade80" font-size="13">[x] prijasskincare</text>
  <text x="696" y="382" fill="#64748b" font-size="12" text-anchor="end">(shipped)</text>
  <text x="24" y="412" fill="#4ade80" font-size="13">[x] solar-image-classification</text>
  <text x="696" y="412" fill="#64748b" font-size="12" text-anchor="end">(shipped)</text>
  <text x="24" y="442" fill="#4ade80" font-size="13">[x] rageclicker</text>
  <text x="696" y="442" fill="#64748b" font-size="12" text-anchor="end">(shipped)</text>
  <text x="24" y="472" fill="#4ade80" font-size="13">[x] BDA_IA2_Grp11</text>
  <text x="696" y="472" fill="#64748b" font-size="12" text-anchor="end">(shipped)</text>
</svg>